%TF.GenerationSoftware,KiCad,Pcbnew,8.0.1*%
%TF.CreationDate,2024-05-11T19:31:04-03:00*%
%TF.ProjectId,business-card-pi-pico,62757369-6e65-4737-932d-636172642d70,rev?*%
%TF.SameCoordinates,Original*%
%TF.FileFunction,Copper,L2,Bot*%
%TF.FilePolarity,Positive*%
%FSLAX46Y46*%
G04 Gerber Fmt 4.6, Leading zero omitted, Abs format (unit mm)*
G04 Created by KiCad (PCBNEW 8.0.1) date 2024-05-11 19:31:04*
%MOMM*%
%LPD*%
G01*
G04 APERTURE LIST*
%TA.AperFunction,ComponentPad*%
%ADD10C,2.000000*%
%TD*%
%TA.AperFunction,ComponentPad*%
%ADD11O,1.600000X2.000000*%
%TD*%
%TA.AperFunction,ComponentPad*%
%ADD12O,1.700000X1.700000*%
%TD*%
%TA.AperFunction,ComponentPad*%
%ADD13R,1.700000X1.700000*%
%TD*%
%TA.AperFunction,ViaPad*%
%ADD14C,0.600000*%
%TD*%
%TA.AperFunction,Conductor*%
%ADD15C,0.200000*%
%TD*%
%TA.AperFunction,Conductor*%
%ADD16C,2.000000*%
%TD*%
G04 APERTURE END LIST*
D10*
%TO.P,SW1,1,1*%
%TO.N,GND*%
X149250000Y-99750000D03*
X155750000Y-99750000D03*
%TO.P,SW1,2,2*%
%TO.N,Net-(R8-Pad1)*%
X149250000Y-104250000D03*
X155750000Y-104250000D03*
%TD*%
D11*
%TO.P,J1,1,Pin_1*%
%TO.N,SDA*%
X111960000Y-78900000D03*
%TO.P,J1,2,Pin_2*%
%TO.N,SCL*%
X114500000Y-78900000D03*
%TO.P,J1,3,Pin_3*%
%TO.N,3V3*%
X117040000Y-78900000D03*
%TO.P,J1,4,Pin_4*%
%TO.N,GND*%
X119580000Y-78900000D03*
%TD*%
D12*
%TO.P,U1,1,GPIO0*%
%TO.N,pin1*%
X163110000Y-55870000D03*
%TO.P,U1,2,GPIO1*%
%TO.N,pin2*%
X163110000Y-58410000D03*
D13*
%TO.P,U1,3,GND*%
%TO.N,GND*%
X163110000Y-60950000D03*
D12*
%TO.P,U1,4,GPIO2*%
%TO.N,pin3*%
X163110000Y-63490000D03*
%TO.P,U1,5,GPIO3*%
%TO.N,pin4*%
X163110000Y-66030000D03*
%TO.P,U1,6,GPIO4*%
%TO.N,pin5*%
X163110000Y-68570000D03*
%TO.P,U1,7,GPIO5*%
%TO.N,pin6*%
X163110000Y-71110000D03*
D13*
%TO.P,U1,8,GND*%
%TO.N,GND*%
X163110000Y-73650000D03*
D12*
%TO.P,U1,9,GPIO6*%
%TO.N,pin7*%
X163110000Y-76190000D03*
%TO.P,U1,10,GPIO7*%
%TO.N,Capacitive_touch*%
X163110000Y-78730000D03*
%TO.P,U1,11,GPIO8*%
%TO.N,unconnected-(U1-GPIO8-Pad11)*%
X163110000Y-81270000D03*
%TO.P,U1,12,GPIO9*%
%TO.N,unconnected-(U1-GPIO9-Pad12)*%
X163110000Y-83810000D03*
D13*
%TO.P,U1,13,GND*%
%TO.N,GND*%
X163110000Y-86350000D03*
D12*
%TO.P,U1,14,GPIO10*%
%TO.N,SDA*%
X163110000Y-88890000D03*
%TO.P,U1,15,GPIO11*%
%TO.N,SCL*%
X163110000Y-91430000D03*
%TO.P,U1,16,GPIO12*%
%TO.N,unconnected-(U1-GPIO12-Pad16)*%
X163110000Y-93970000D03*
%TO.P,U1,17,GPIO13*%
%TO.N,unconnected-(U1-GPIO13-Pad17)*%
X163110000Y-96510000D03*
D13*
%TO.P,U1,18,GND*%
%TO.N,GND*%
X163110000Y-99050000D03*
D12*
%TO.P,U1,19,GPIO14*%
%TO.N,unconnected-(U1-GPIO14-Pad19)*%
X163110000Y-101590000D03*
%TO.P,U1,20,GPIO15*%
%TO.N,unconnected-(U1-GPIO15-Pad20)*%
X163110000Y-104130000D03*
%TO.P,U1,21,GPIO16*%
%TO.N,unconnected-(U1-GPIO16-Pad21)*%
X180890000Y-104130000D03*
%TO.P,U1,22,GPIO17*%
%TO.N,unconnected-(U1-GPIO17-Pad22)*%
X180890000Y-101590000D03*
D13*
%TO.P,U1,23,GND*%
%TO.N,GND*%
X180890000Y-99050000D03*
D12*
%TO.P,U1,24,GPIO18*%
%TO.N,unconnected-(U1-GPIO18-Pad24)*%
X180890000Y-96510000D03*
%TO.P,U1,25,GPIO19*%
%TO.N,unconnected-(U1-GPIO19-Pad25)*%
X180890000Y-93970000D03*
%TO.P,U1,26,GPIO20*%
%TO.N,unconnected-(U1-GPIO20-Pad26)*%
X180890000Y-91430000D03*
%TO.P,U1,27,GPIO21*%
%TO.N,unconnected-(U1-GPIO21-Pad27)*%
X180890000Y-88890000D03*
D13*
%TO.P,U1,28,GND*%
%TO.N,GND*%
X180890000Y-86350000D03*
D12*
%TO.P,U1,29,GPIO22*%
%TO.N,unconnected-(U1-GPIO22-Pad29)*%
X180890000Y-83810000D03*
%TO.P,U1,30,RUN*%
%TO.N,unconnected-(U1-RUN-Pad30)*%
X180890000Y-81270000D03*
%TO.P,U1,31,GPIO26_ADC0*%
%TO.N,unconnected-(U1-GPIO26_ADC0-Pad31)*%
X180890000Y-78730000D03*
%TO.P,U1,32,GPIO27_ADC1*%
%TO.N,unconnected-(U1-GPIO27_ADC1-Pad32)*%
X180890000Y-76190000D03*
D13*
%TO.P,U1,33,AGND*%
%TO.N,unconnected-(U1-AGND-Pad33)*%
X180890000Y-73650000D03*
D12*
%TO.P,U1,34,GPIO28_ADC2*%
%TO.N,unconnected-(U1-GPIO28_ADC2-Pad34)*%
X180890000Y-71110000D03*
%TO.P,U1,35,ADC_VREF*%
%TO.N,unconnected-(U1-ADC_VREF-Pad35)*%
X180890000Y-68570000D03*
%TO.P,U1,36,3V3*%
%TO.N,3V3*%
X180890000Y-66030000D03*
%TO.P,U1,37,3V3_EN*%
%TO.N,unconnected-(U1-3V3_EN-Pad37)*%
X180890000Y-63490000D03*
D13*
%TO.P,U1,38,GND*%
%TO.N,GND*%
X180890000Y-60950000D03*
D12*
%TO.P,U1,39,VSYS*%
%TO.N,unconnected-(U1-VSYS-Pad39)*%
X180890000Y-58410000D03*
%TO.P,U1,40,VBUS*%
%TO.N,unconnected-(U1-VBUS-Pad40)*%
X180890000Y-55870000D03*
%TO.P,U1,41,SWCLK*%
%TO.N,unconnected-(U1-SWCLK-Pad41)*%
X169460000Y-103900000D03*
D13*
%TO.P,U1,42,GND*%
%TO.N,GND*%
X172000000Y-103900000D03*
D12*
%TO.P,U1,43,SWDIO*%
%TO.N,unconnected-(U1-SWDIO-Pad43)*%
X174540000Y-103900000D03*
%TD*%
D14*
%TO.N,Capacitive_touch*%
X154432000Y-87376000D03*
%TO.N,SDA*%
X112000000Y-81000000D03*
%TO.N,SCL*%
X114500000Y-82500000D03*
%TO.N,Net-(D1-K)*%
X155087500Y-58500000D03*
%TO.N,Net-(D1-A)*%
X155087500Y-56000000D03*
%TO.N,Net-(D11-K)*%
X155087500Y-76000000D03*
%TO.N,Net-(D10-A)*%
X155087500Y-71000000D03*
%TO.N,Net-(D10-K)*%
X155087500Y-68500000D03*
%TO.N,Net-(D17-K)*%
X155000000Y-66000000D03*
%TO.N,Net-(D12-A)*%
X155087500Y-63500000D03*
%TO.N,Net-(D1-K)*%
X128437500Y-58500000D03*
%TO.N,Net-(D1-A)*%
X126500000Y-56000000D03*
%TO.N,Net-(D17-K)*%
X125500000Y-66500000D03*
%TO.N,Net-(D10-K)*%
X123000000Y-69000000D03*
%TO.N,Net-(D10-A)*%
X125000000Y-71500000D03*
%TO.N,Net-(D11-K)*%
X121500000Y-74500000D03*
%TO.N,Net-(D12-A)*%
X126100000Y-65500000D03*
X120500000Y-60500000D03*
X117500000Y-65500000D03*
X109000000Y-65500000D03*
%TO.N,Net-(D17-K)*%
X116000000Y-61500000D03*
X116000000Y-64000000D03*
X106460000Y-63960000D03*
%TO.N,Net-(D10-K)*%
X125000000Y-60500000D03*
X121000000Y-64000000D03*
%TO.N,GND*%
X134000000Y-105500000D03*
X134000000Y-92000000D03*
X134000000Y-94500000D03*
X145000000Y-105500000D03*
X145000000Y-92000000D03*
X145000000Y-94500000D03*
%TD*%
D15*
%TO.N,Capacitive_touch*%
X156982000Y-78730000D02*
X163110000Y-78730000D01*
X156972000Y-78740000D02*
X156982000Y-78730000D01*
X154432000Y-80772000D02*
X156464000Y-78740000D01*
X156464000Y-78740000D02*
X156972000Y-78740000D01*
X154432000Y-87376000D02*
X154432000Y-80772000D01*
D16*
%TO.N,GND*%
X145000000Y-95500000D02*
X149250000Y-99750000D01*
X145000000Y-94500000D02*
X145000000Y-95500000D01*
D15*
%TO.N,SDA*%
X159610000Y-88890000D02*
X163110000Y-88890000D01*
X158500000Y-90000000D02*
X159610000Y-88890000D01*
X125000000Y-90000000D02*
X158500000Y-90000000D01*
X116000000Y-81000000D02*
X125000000Y-90000000D01*
X112000000Y-81000000D02*
X116000000Y-81000000D01*
%TO.N,SCL*%
X159500000Y-91500000D02*
X160000000Y-91500000D01*
X160000000Y-91500000D02*
X160070000Y-91430000D01*
X158500000Y-90500000D02*
X159500000Y-91500000D01*
X160070000Y-91430000D02*
X163110000Y-91430000D01*
X124500000Y-90500000D02*
X158500000Y-90500000D01*
X116500000Y-82500000D02*
X124500000Y-90500000D01*
X114500000Y-82500000D02*
X116500000Y-82500000D01*
%TO.N,Net-(D1-K)*%
X128437500Y-58500000D02*
X155000000Y-58500000D01*
X155000000Y-58500000D02*
X155087500Y-58500000D01*
%TO.N,Net-(D1-A)*%
X126500000Y-56000000D02*
X155000000Y-56000000D01*
X155000000Y-56000000D02*
X155087500Y-56000000D01*
%TO.N,Net-(D11-K)*%
X152500000Y-76000000D02*
X155087500Y-76000000D01*
X151000000Y-74500000D02*
X152500000Y-76000000D01*
X121500000Y-74500000D02*
X151000000Y-74500000D01*
%TO.N,Net-(D10-A)*%
X153500000Y-71000000D02*
X155087500Y-71000000D01*
X125000000Y-71500000D02*
X153000000Y-71500000D01*
X153000000Y-71500000D02*
X153500000Y-71000000D01*
%TO.N,Net-(D10-K)*%
X153000000Y-69000000D02*
X153500000Y-68500000D01*
X153500000Y-68500000D02*
X155087500Y-68500000D01*
X123000000Y-69000000D02*
X153000000Y-69000000D01*
%TO.N,Net-(D17-K)*%
X153000000Y-66000000D02*
X155000000Y-66000000D01*
%TO.N,Net-(D12-A)*%
X151000000Y-65500000D02*
X153000000Y-63500000D01*
X126100000Y-65500000D02*
X151000000Y-65500000D01*
X153000000Y-63500000D02*
X155087500Y-63500000D01*
%TO.N,Net-(D17-K)*%
X152500000Y-66500000D02*
X153000000Y-66000000D01*
X125500000Y-66500000D02*
X152500000Y-66500000D01*
%TO.N,Net-(D12-A)*%
X117500000Y-65500000D02*
X126100000Y-65500000D01*
X120500000Y-62500000D02*
X117500000Y-65500000D01*
X120500000Y-60500000D02*
X120500000Y-62500000D01*
X109000000Y-65500000D02*
X117500000Y-65500000D01*
%TO.N,Net-(D17-K)*%
X115960000Y-63960000D02*
X115960000Y-61540000D01*
X115960000Y-61540000D02*
X116000000Y-61500000D01*
X116000000Y-64000000D02*
X115960000Y-63960000D01*
X106460000Y-63960000D02*
X115960000Y-63960000D01*
%TO.N,Net-(D10-K)*%
X121500000Y-64000000D02*
X121000000Y-64000000D01*
X125000000Y-60500000D02*
X121500000Y-64000000D01*
%TD*%
%TA.AperFunction,Conductor*%
%TO.N,GND*%
G36*
X184442539Y-53520185D02*
G01*
X184488294Y-53572989D01*
X184499500Y-53624500D01*
X184499500Y-106375500D01*
X184479815Y-106442539D01*
X184427011Y-106488294D01*
X184375500Y-106499500D01*
X100624500Y-106499500D01*
X100557461Y-106479815D01*
X100511706Y-106427011D01*
X100500500Y-106375500D01*
X100500500Y-104250000D01*
X148044357Y-104250000D01*
X148064884Y-104471535D01*
X148064885Y-104471537D01*
X148125769Y-104685523D01*
X148125775Y-104685538D01*
X148224938Y-104884683D01*
X148224943Y-104884691D01*
X148359020Y-105062238D01*
X148523437Y-105212123D01*
X148523439Y-105212125D01*
X148712595Y-105329245D01*
X148712596Y-105329245D01*
X148712599Y-105329247D01*
X148920060Y-105409618D01*
X149138757Y-105450500D01*
X149138759Y-105450500D01*
X149361241Y-105450500D01*
X149361243Y-105450500D01*
X149579940Y-105409618D01*
X149787401Y-105329247D01*
X149976562Y-105212124D01*
X150140981Y-105062236D01*
X150275058Y-104884689D01*
X150374229Y-104685528D01*
X150435115Y-104471536D01*
X150455643Y-104250000D01*
X154544357Y-104250000D01*
X154564884Y-104471535D01*
X154564885Y-104471537D01*
X154625769Y-104685523D01*
X154625775Y-104685538D01*
X154724938Y-104884683D01*
X154724943Y-104884691D01*
X154859020Y-105062238D01*
X155023437Y-105212123D01*
X155023439Y-105212125D01*
X155212595Y-105329245D01*
X155212596Y-105329245D01*
X155212599Y-105329247D01*
X155420060Y-105409618D01*
X155638757Y-105450500D01*
X155638759Y-105450500D01*
X155861241Y-105450500D01*
X155861243Y-105450500D01*
X156079940Y-105409618D01*
X156287401Y-105329247D01*
X156476562Y-105212124D01*
X156640981Y-105062236D01*
X156775058Y-104884689D01*
X156874229Y-104685528D01*
X156935115Y-104471536D01*
X156955643Y-104250000D01*
X156944524Y-104130000D01*
X162054417Y-104130000D01*
X162074699Y-104335932D01*
X162093280Y-104397186D01*
X162134768Y-104533954D01*
X162232315Y-104716450D01*
X162232317Y-104716452D01*
X162363589Y-104876410D01*
X162373680Y-104884691D01*
X162523550Y-105007685D01*
X162706046Y-105105232D01*
X162904066Y-105165300D01*
X162904065Y-105165300D01*
X162922529Y-105167118D01*
X163110000Y-105185583D01*
X163315934Y-105165300D01*
X163513954Y-105105232D01*
X163696450Y-105007685D01*
X163856410Y-104876410D01*
X163987685Y-104716450D01*
X164085232Y-104533954D01*
X164145300Y-104335934D01*
X164165583Y-104130000D01*
X164145300Y-103924066D01*
X164138000Y-103900000D01*
X168404417Y-103900000D01*
X168424699Y-104105932D01*
X168424700Y-104105934D01*
X168484768Y-104303954D01*
X168582315Y-104486450D01*
X168582317Y-104486452D01*
X168713589Y-104646410D01*
X168798934Y-104716450D01*
X168873550Y-104777685D01*
X169056046Y-104875232D01*
X169254066Y-104935300D01*
X169254065Y-104935300D01*
X169272529Y-104937118D01*
X169460000Y-104955583D01*
X169665934Y-104935300D01*
X169863954Y-104875232D01*
X170046450Y-104777685D01*
X170206410Y-104646410D01*
X170337685Y-104486450D01*
X170416643Y-104338730D01*
X170465605Y-104288888D01*
X170533742Y-104273428D01*
X170599422Y-104297260D01*
X170641791Y-104352818D01*
X170650000Y-104397186D01*
X170650000Y-104797844D01*
X170656401Y-104857372D01*
X170656403Y-104857379D01*
X170706645Y-104992086D01*
X170706649Y-104992093D01*
X170792809Y-105107187D01*
X170792812Y-105107190D01*
X170907906Y-105193350D01*
X170907913Y-105193354D01*
X171042620Y-105243596D01*
X171042627Y-105243598D01*
X171102155Y-105249999D01*
X171102172Y-105250000D01*
X171750000Y-105250000D01*
X171750000Y-104344560D01*
X171803147Y-104375245D01*
X171932857Y-104410000D01*
X172067143Y-104410000D01*
X172196853Y-104375245D01*
X172250000Y-104344560D01*
X172250000Y-105250000D01*
X172897828Y-105250000D01*
X172897844Y-105249999D01*
X172957372Y-105243598D01*
X172957379Y-105243596D01*
X173092086Y-105193354D01*
X173092093Y-105193350D01*
X173207187Y-105107190D01*
X173207190Y-105107187D01*
X173293350Y-104992093D01*
X173293354Y-104992086D01*
X173343596Y-104857379D01*
X173343598Y-104857372D01*
X173349999Y-104797844D01*
X173350000Y-104797827D01*
X173350000Y-104397186D01*
X173369685Y-104330147D01*
X173422489Y-104284392D01*
X173491647Y-104274448D01*
X173555203Y-104303473D01*
X173583356Y-104338729D01*
X173662315Y-104486450D01*
X173662317Y-104486452D01*
X173793589Y-104646410D01*
X173878934Y-104716450D01*
X173953550Y-104777685D01*
X174136046Y-104875232D01*
X174334066Y-104935300D01*
X174334065Y-104935300D01*
X174352529Y-104937118D01*
X174540000Y-104955583D01*
X174745934Y-104935300D01*
X174943954Y-104875232D01*
X175126450Y-104777685D01*
X175286410Y-104646410D01*
X175417685Y-104486450D01*
X175515232Y-104303954D01*
X175568000Y-104130000D01*
X179834417Y-104130000D01*
X179854699Y-104335932D01*
X179873280Y-104397186D01*
X179914768Y-104533954D01*
X180012315Y-104716450D01*
X180012317Y-104716452D01*
X180143589Y-104876410D01*
X180153680Y-104884691D01*
X180303550Y-105007685D01*
X180486046Y-105105232D01*
X180684066Y-105165300D01*
X180684065Y-105165300D01*
X180702529Y-105167118D01*
X180890000Y-105185583D01*
X181095934Y-105165300D01*
X181293954Y-105105232D01*
X181476450Y-105007685D01*
X181636410Y-104876410D01*
X181767685Y-104716450D01*
X181865232Y-104533954D01*
X181925300Y-104335934D01*
X181945583Y-104130000D01*
X181925300Y-103924066D01*
X181865232Y-103726046D01*
X181767685Y-103543550D01*
X181707203Y-103469852D01*
X181636410Y-103383589D01*
X181476452Y-103252317D01*
X181476453Y-103252317D01*
X181476450Y-103252315D01*
X181293954Y-103154768D01*
X181095934Y-103094700D01*
X181095932Y-103094699D01*
X181095934Y-103094699D01*
X180890000Y-103074417D01*
X180684067Y-103094699D01*
X180508692Y-103147898D01*
X180489930Y-103153590D01*
X180486043Y-103154769D01*
X180375898Y-103213643D01*
X180303550Y-103252315D01*
X180303548Y-103252316D01*
X180303547Y-103252317D01*
X180143589Y-103383589D01*
X180012317Y-103543547D01*
X179914769Y-103726043D01*
X179854699Y-103924067D01*
X179834417Y-104130000D01*
X175568000Y-104130000D01*
X175575300Y-104105934D01*
X175595583Y-103900000D01*
X175575300Y-103694066D01*
X175515232Y-103496046D01*
X175417685Y-103313550D01*
X175365702Y-103250209D01*
X175286410Y-103153589D01*
X175126452Y-103022317D01*
X175126453Y-103022317D01*
X175126450Y-103022315D01*
X174943954Y-102924768D01*
X174745934Y-102864700D01*
X174745932Y-102864699D01*
X174745934Y-102864699D01*
X174540000Y-102844417D01*
X174334067Y-102864699D01*
X174136043Y-102924769D01*
X174102634Y-102942627D01*
X173953550Y-103022315D01*
X173953548Y-103022316D01*
X173953547Y-103022317D01*
X173793589Y-103153589D01*
X173662317Y-103313547D01*
X173583358Y-103461267D01*
X173534395Y-103511111D01*
X173466257Y-103526571D01*
X173400578Y-103502739D01*
X173358209Y-103447181D01*
X173350000Y-103402813D01*
X173350000Y-103002172D01*
X173349999Y-103002155D01*
X173343598Y-102942627D01*
X173343596Y-102942620D01*
X173293354Y-102807913D01*
X173293350Y-102807906D01*
X173207190Y-102692812D01*
X173207187Y-102692809D01*
X173092093Y-102606649D01*
X173092086Y-102606645D01*
X172957379Y-102556403D01*
X172957372Y-102556401D01*
X172897844Y-102550000D01*
X172250000Y-102550000D01*
X172250000Y-103455439D01*
X172196853Y-103424755D01*
X172067143Y-103390000D01*
X171932857Y-103390000D01*
X171803147Y-103424755D01*
X171750000Y-103455439D01*
X171750000Y-102550000D01*
X171102155Y-102550000D01*
X171042627Y-102556401D01*
X171042620Y-102556403D01*
X170907913Y-102606645D01*
X170907906Y-102606649D01*
X170792812Y-102692809D01*
X170792809Y-102692812D01*
X170706649Y-102807906D01*
X170706645Y-102807913D01*
X170656403Y-102942620D01*
X170656401Y-102942627D01*
X170650000Y-103002155D01*
X170650000Y-103402813D01*
X170630315Y-103469852D01*
X170577511Y-103515607D01*
X170508353Y-103525551D01*
X170444797Y-103496526D01*
X170416642Y-103461267D01*
X170404079Y-103437764D01*
X170337685Y-103313550D01*
X170285702Y-103250209D01*
X170206410Y-103153589D01*
X170046452Y-103022317D01*
X170046453Y-103022317D01*
X170046450Y-103022315D01*
X169863954Y-102924768D01*
X169665934Y-102864700D01*
X169665932Y-102864699D01*
X169665934Y-102864699D01*
X169460000Y-102844417D01*
X169254067Y-102864699D01*
X169056043Y-102924769D01*
X169022634Y-102942627D01*
X168873550Y-103022315D01*
X168873548Y-103022316D01*
X168873547Y-103022317D01*
X168713589Y-103153589D01*
X168582317Y-103313547D01*
X168484769Y-103496043D01*
X168424699Y-103694067D01*
X168404417Y-103900000D01*
X164138000Y-103900000D01*
X164085232Y-103726046D01*
X163987685Y-103543550D01*
X163927203Y-103469852D01*
X163856410Y-103383589D01*
X163696452Y-103252317D01*
X163696453Y-103252317D01*
X163696450Y-103252315D01*
X163513954Y-103154768D01*
X163315934Y-103094700D01*
X163315932Y-103094699D01*
X163315934Y-103094699D01*
X163110000Y-103074417D01*
X162904067Y-103094699D01*
X162728692Y-103147898D01*
X162709930Y-103153590D01*
X162706043Y-103154769D01*
X162595898Y-103213643D01*
X162523550Y-103252315D01*
X162523548Y-103252316D01*
X162523547Y-103252317D01*
X162363589Y-103383589D01*
X162232317Y-103543547D01*
X162134769Y-103726043D01*
X162074699Y-103924067D01*
X162054417Y-104130000D01*
X156944524Y-104130000D01*
X156935115Y-104028464D01*
X156874229Y-103814472D01*
X156830198Y-103726046D01*
X156775061Y-103615316D01*
X156775056Y-103615308D01*
X156640979Y-103437761D01*
X156476562Y-103287876D01*
X156476560Y-103287874D01*
X156287404Y-103170754D01*
X156287398Y-103170752D01*
X156079940Y-103090382D01*
X155861243Y-103049500D01*
X155638757Y-103049500D01*
X155420060Y-103090382D01*
X155288864Y-103141207D01*
X155212601Y-103170752D01*
X155212595Y-103170754D01*
X155023439Y-103287874D01*
X155023437Y-103287876D01*
X154859020Y-103437761D01*
X154724943Y-103615308D01*
X154724938Y-103615316D01*
X154625775Y-103814461D01*
X154625769Y-103814476D01*
X154564885Y-104028462D01*
X154564884Y-104028464D01*
X154544357Y-104249999D01*
X154544357Y-104250000D01*
X150455643Y-104250000D01*
X150435115Y-104028464D01*
X150374229Y-103814472D01*
X150330198Y-103726046D01*
X150275061Y-103615316D01*
X150275056Y-103615308D01*
X150140979Y-103437761D01*
X149976562Y-103287876D01*
X149976560Y-103287874D01*
X149787404Y-103170754D01*
X149787398Y-103170752D01*
X149579940Y-103090382D01*
X149361243Y-103049500D01*
X149138757Y-103049500D01*
X148920060Y-103090382D01*
X148788864Y-103141207D01*
X148712601Y-103170752D01*
X148712595Y-103170754D01*
X148523439Y-103287874D01*
X148523437Y-103287876D01*
X148359020Y-103437761D01*
X148224943Y-103615308D01*
X148224938Y-103615316D01*
X148125775Y-103814461D01*
X148125769Y-103814476D01*
X148064885Y-104028462D01*
X148064884Y-104028464D01*
X148044357Y-104249999D01*
X148044357Y-104250000D01*
X100500500Y-104250000D01*
X100500500Y-99750005D01*
X147744859Y-99750005D01*
X147765385Y-99997729D01*
X147765387Y-99997738D01*
X147826412Y-100238717D01*
X147926266Y-100466364D01*
X148026564Y-100619882D01*
X148726212Y-99920234D01*
X148737482Y-99962292D01*
X148809890Y-100087708D01*
X148912292Y-100190110D01*
X149037708Y-100262518D01*
X149079765Y-100273787D01*
X148379942Y-100973609D01*
X148426768Y-101010055D01*
X148426770Y-101010056D01*
X148645385Y-101128364D01*
X148645396Y-101128369D01*
X148880506Y-101209083D01*
X149125707Y-101250000D01*
X149374293Y-101250000D01*
X149619493Y-101209083D01*
X149854603Y-101128369D01*
X149854614Y-101128364D01*
X150073228Y-101010057D01*
X150073231Y-101010055D01*
X150120056Y-100973609D01*
X149420234Y-100273787D01*
X149462292Y-100262518D01*
X149587708Y-100190110D01*
X149690110Y-100087708D01*
X149762518Y-99962292D01*
X149773787Y-99920235D01*
X150473434Y-100619882D01*
X150573731Y-100466369D01*
X150673587Y-100238717D01*
X150734612Y-99997738D01*
X150734614Y-99997729D01*
X150755141Y-99750005D01*
X154244859Y-99750005D01*
X154265385Y-99997729D01*
X154265387Y-99997738D01*
X154326412Y-100238717D01*
X154426266Y-100466364D01*
X154526564Y-100619882D01*
X155226212Y-99920234D01*
X155237482Y-99962292D01*
X155309890Y-100087708D01*
X155412292Y-100190110D01*
X155537708Y-100262518D01*
X155579765Y-100273787D01*
X154879942Y-100973609D01*
X154926768Y-101010055D01*
X154926770Y-101010056D01*
X155145385Y-101128364D01*
X155145396Y-101128369D01*
X155380506Y-101209083D01*
X155625707Y-101250000D01*
X155874293Y-101250000D01*
X156119493Y-101209083D01*
X156354603Y-101128369D01*
X156354614Y-101128364D01*
X156573228Y-101010057D01*
X156573231Y-101010055D01*
X156620056Y-100973609D01*
X155920234Y-100273787D01*
X155962292Y-100262518D01*
X156087708Y-100190110D01*
X156190110Y-100087708D01*
X156262518Y-99962292D01*
X156273787Y-99920235D01*
X156973434Y-100619882D01*
X157073731Y-100466369D01*
X157173587Y-100238717D01*
X157234612Y-99997738D01*
X157234614Y-99997729D01*
X157238748Y-99947844D01*
X161760000Y-99947844D01*
X161766401Y-100007372D01*
X161766403Y-100007379D01*
X161816645Y-100142086D01*
X161816649Y-100142093D01*
X161902809Y-100257187D01*
X161902812Y-100257190D01*
X162017906Y-100343350D01*
X162017913Y-100343354D01*
X162152620Y-100393596D01*
X162152627Y-100393598D01*
X162212155Y-100399999D01*
X162212172Y-100400000D01*
X162612813Y-100400000D01*
X162679852Y-100419685D01*
X162725607Y-100472489D01*
X162735551Y-100541647D01*
X162706526Y-100605203D01*
X162671267Y-100633357D01*
X162523550Y-100712315D01*
X162523548Y-100712316D01*
X162523547Y-100712317D01*
X162363589Y-100843589D01*
X162232317Y-101003547D01*
X162232315Y-101003550D01*
X162228837Y-101010057D01*
X162134769Y-101186043D01*
X162074699Y-101384067D01*
X162054417Y-101590000D01*
X162074699Y-101795932D01*
X162074700Y-101795934D01*
X162134768Y-101993954D01*
X162232315Y-102176450D01*
X162232317Y-102176452D01*
X162363589Y-102336410D01*
X162460209Y-102415702D01*
X162523550Y-102467685D01*
X162706046Y-102565232D01*
X162904066Y-102625300D01*
X162904065Y-102625300D01*
X162922529Y-102627118D01*
X163110000Y-102645583D01*
X163315934Y-102625300D01*
X163513954Y-102565232D01*
X163696450Y-102467685D01*
X163856410Y-102336410D01*
X163987685Y-102176450D01*
X164085232Y-101993954D01*
X164145300Y-101795934D01*
X164165583Y-101590000D01*
X164145300Y-101384066D01*
X164085232Y-101186046D01*
X163987685Y-101003550D01*
X163935702Y-100940209D01*
X163856410Y-100843589D01*
X163696452Y-100712317D01*
X163696453Y-100712317D01*
X163696450Y-100712315D01*
X163548732Y-100633357D01*
X163498889Y-100584395D01*
X163483429Y-100516257D01*
X163507261Y-100450578D01*
X163562819Y-100408209D01*
X163607187Y-100400000D01*
X164007828Y-100400000D01*
X164007844Y-100399999D01*
X164067372Y-100393598D01*
X164067379Y-100393596D01*
X164202086Y-100343354D01*
X164202093Y-100343350D01*
X164317187Y-100257190D01*
X164317190Y-100257187D01*
X164403350Y-100142093D01*
X164403354Y-100142086D01*
X164453596Y-100007379D01*
X164453598Y-100007372D01*
X164459999Y-99947844D01*
X179540000Y-99947844D01*
X179546401Y-100007372D01*
X179546403Y-100007379D01*
X179596645Y-100142086D01*
X179596649Y-100142093D01*
X179682809Y-100257187D01*
X179682812Y-100257190D01*
X179797906Y-100343350D01*
X179797913Y-100343354D01*
X179932620Y-100393596D01*
X179932627Y-100393598D01*
X179992155Y-100399999D01*
X179992172Y-100400000D01*
X180392813Y-100400000D01*
X180459852Y-100419685D01*
X180505607Y-100472489D01*
X180515551Y-100541647D01*
X180486526Y-100605203D01*
X180451267Y-100633357D01*
X180303550Y-100712315D01*
X180303548Y-100712316D01*
X180303547Y-100712317D01*
X180143589Y-100843589D01*
X180012317Y-101003547D01*
X180012315Y-101003550D01*
X180008837Y-101010057D01*
X179914769Y-101186043D01*
X179854699Y-101384067D01*
X179834417Y-101590000D01*
X179854699Y-101795932D01*
X179854700Y-101795934D01*
X179914768Y-101993954D01*
X180012315Y-102176450D01*
X180012317Y-102176452D01*
X180143589Y-102336410D01*
X180240209Y-102415702D01*
X180303550Y-102467685D01*
X180486046Y-102565232D01*
X180684066Y-102625300D01*
X180684065Y-102625300D01*
X180702529Y-102627118D01*
X180890000Y-102645583D01*
X181095934Y-102625300D01*
X181293954Y-102565232D01*
X181476450Y-102467685D01*
X181636410Y-102336410D01*
X181767685Y-102176450D01*
X181865232Y-101993954D01*
X181925300Y-101795934D01*
X181945583Y-101590000D01*
X181925300Y-101384066D01*
X181865232Y-101186046D01*
X181767685Y-101003550D01*
X181715702Y-100940209D01*
X181636410Y-100843589D01*
X181476452Y-100712317D01*
X181476453Y-100712317D01*
X181476450Y-100712315D01*
X181328732Y-100633357D01*
X181278889Y-100584395D01*
X181263429Y-100516257D01*
X181287261Y-100450578D01*
X181342819Y-100408209D01*
X181387187Y-100400000D01*
X181787828Y-100400000D01*
X181787844Y-100399999D01*
X181847372Y-100393598D01*
X181847379Y-100393596D01*
X181982086Y-100343354D01*
X181982093Y-100343350D01*
X182097187Y-100257190D01*
X182097190Y-100257187D01*
X182183350Y-100142093D01*
X182183354Y-100142086D01*
X182233596Y-100007379D01*
X182233598Y-100007372D01*
X182239999Y-99947844D01*
X182240000Y-99947827D01*
X182240000Y-99300000D01*
X181334560Y-99300000D01*
X181365245Y-99246853D01*
X181400000Y-99117143D01*
X181400000Y-98982857D01*
X181365245Y-98853147D01*
X181334560Y-98800000D01*
X182240000Y-98800000D01*
X182240000Y-98152172D01*
X182239999Y-98152155D01*
X182233598Y-98092627D01*
X182233596Y-98092620D01*
X182183354Y-97957913D01*
X182183350Y-97957906D01*
X182097190Y-97842812D01*
X182097187Y-97842809D01*
X181982093Y-97756649D01*
X181982086Y-97756645D01*
X181847379Y-97706403D01*
X181847372Y-97706401D01*
X181787844Y-97700000D01*
X181387187Y-97700000D01*
X181320148Y-97680315D01*
X181274393Y-97627511D01*
X181264449Y-97558353D01*
X181293474Y-97494797D01*
X181328733Y-97466642D01*
X181476450Y-97387685D01*
X181636410Y-97256410D01*
X181767685Y-97096450D01*
X181865232Y-96913954D01*
X181925300Y-96715934D01*
X181945583Y-96510000D01*
X181925300Y-96304066D01*
X181865232Y-96106046D01*
X181767685Y-95923550D01*
X181715702Y-95860209D01*
X181636410Y-95763589D01*
X181476452Y-95632317D01*
X181476453Y-95632317D01*
X181476450Y-95632315D01*
X181293954Y-95534768D01*
X181095934Y-95474700D01*
X181095932Y-95474699D01*
X181095934Y-95474699D01*
X180890000Y-95454417D01*
X180684067Y-95474699D01*
X180486043Y-95534769D01*
X180375898Y-95593643D01*
X180303550Y-95632315D01*
X180303548Y-95632316D01*
X180303547Y-95632317D01*
X180143589Y-95763589D01*
X180012317Y-95923547D01*
X179914769Y-96106043D01*
X179854699Y-96304067D01*
X179834417Y-96510000D01*
X179854699Y-96715932D01*
X179854700Y-96715934D01*
X179914768Y-96913954D01*
X180012315Y-97096450D01*
X180012317Y-97096452D01*
X180143589Y-97256410D01*
X180240209Y-97335702D01*
X180303550Y-97387685D01*
X180451267Y-97466642D01*
X180501111Y-97515605D01*
X180516571Y-97583743D01*
X180492739Y-97649422D01*
X180437181Y-97691791D01*
X180392813Y-97700000D01*
X179992155Y-97700000D01*
X179932627Y-97706401D01*
X179932620Y-97706403D01*
X179797913Y-97756645D01*
X179797906Y-97756649D01*
X179682812Y-97842809D01*
X179682809Y-97842812D01*
X179596649Y-97957906D01*
X179596645Y-97957913D01*
X179546403Y-98092620D01*
X179546401Y-98092627D01*
X179540000Y-98152155D01*
X179540000Y-98800000D01*
X180445440Y-98800000D01*
X180414755Y-98853147D01*
X180380000Y-98982857D01*
X180380000Y-99117143D01*
X180414755Y-99246853D01*
X180445440Y-99300000D01*
X179540000Y-99300000D01*
X179540000Y-99947844D01*
X164459999Y-99947844D01*
X164460000Y-99947827D01*
X164460000Y-99300000D01*
X163554560Y-99300000D01*
X163585245Y-99246853D01*
X163620000Y-99117143D01*
X163620000Y-98982857D01*
X163585245Y-98853147D01*
X163554560Y-98800000D01*
X164460000Y-98800000D01*
X164460000Y-98152172D01*
X164459999Y-98152155D01*
X164453598Y-98092627D01*
X164453596Y-98092620D01*
X164403354Y-97957913D01*
X164403350Y-97957906D01*
X164317190Y-97842812D01*
X164317187Y-97842809D01*
X164202093Y-97756649D01*
X164202086Y-97756645D01*
X164067379Y-97706403D01*
X164067372Y-97706401D01*
X164007844Y-97700000D01*
X163607187Y-97700000D01*
X163540148Y-97680315D01*
X163494393Y-97627511D01*
X163484449Y-97558353D01*
X163513474Y-97494797D01*
X163548733Y-97466642D01*
X163696450Y-97387685D01*
X163856410Y-97256410D01*
X163987685Y-97096450D01*
X164085232Y-96913954D01*
X164145300Y-96715934D01*
X164165583Y-96510000D01*
X164145300Y-96304066D01*
X164085232Y-96106046D01*
X163987685Y-95923550D01*
X163935702Y-95860209D01*
X163856410Y-95763589D01*
X163696452Y-95632317D01*
X163696453Y-95632317D01*
X163696450Y-95632315D01*
X163513954Y-95534768D01*
X163315934Y-95474700D01*
X163315932Y-95474699D01*
X163315934Y-95474699D01*
X163110000Y-95454417D01*
X162904067Y-95474699D01*
X162706043Y-95534769D01*
X162595898Y-95593643D01*
X162523550Y-95632315D01*
X162523548Y-95632316D01*
X162523547Y-95632317D01*
X162363589Y-95763589D01*
X162232317Y-95923547D01*
X162134769Y-96106043D01*
X162074699Y-96304067D01*
X162054417Y-96510000D01*
X162074699Y-96715932D01*
X162074700Y-96715934D01*
X162134768Y-96913954D01*
X162232315Y-97096450D01*
X162232317Y-97096452D01*
X162363589Y-97256410D01*
X162460209Y-97335702D01*
X162523550Y-97387685D01*
X162671267Y-97466642D01*
X162721111Y-97515605D01*
X162736571Y-97583743D01*
X162712739Y-97649422D01*
X162657181Y-97691791D01*
X162612813Y-97700000D01*
X162212155Y-97700000D01*
X162152627Y-97706401D01*
X162152620Y-97706403D01*
X162017913Y-97756645D01*
X162017906Y-97756649D01*
X161902812Y-97842809D01*
X161902809Y-97842812D01*
X161816649Y-97957906D01*
X161816645Y-97957913D01*
X161766403Y-98092620D01*
X161766401Y-98092627D01*
X161760000Y-98152155D01*
X161760000Y-98800000D01*
X162665440Y-98800000D01*
X162634755Y-98853147D01*
X162600000Y-98982857D01*
X162600000Y-99117143D01*
X162634755Y-99246853D01*
X162665440Y-99300000D01*
X161760000Y-99300000D01*
X161760000Y-99947844D01*
X157238748Y-99947844D01*
X157255141Y-99750005D01*
X157255141Y-99749994D01*
X157234614Y-99502270D01*
X157234612Y-99502261D01*
X157173587Y-99261282D01*
X157073731Y-99033630D01*
X156973434Y-98880116D01*
X156273787Y-99579764D01*
X156262518Y-99537708D01*
X156190110Y-99412292D01*
X156087708Y-99309890D01*
X155962292Y-99237482D01*
X155920235Y-99226212D01*
X156620057Y-98526390D01*
X156620056Y-98526389D01*
X156573229Y-98489943D01*
X156354614Y-98371635D01*
X156354603Y-98371630D01*
X156119493Y-98290916D01*
X155874293Y-98250000D01*
X155625707Y-98250000D01*
X155380506Y-98290916D01*
X155145396Y-98371630D01*
X155145390Y-98371632D01*
X154926761Y-98489949D01*
X154879942Y-98526388D01*
X154879942Y-98526390D01*
X155579765Y-99226212D01*
X155537708Y-99237482D01*
X155412292Y-99309890D01*
X155309890Y-99412292D01*
X155237482Y-99537708D01*
X155226212Y-99579764D01*
X154526564Y-98880116D01*
X154426267Y-99033632D01*
X154326412Y-99261282D01*
X154265387Y-99502261D01*
X154265385Y-99502270D01*
X154244859Y-99749994D01*
X154244859Y-99750005D01*
X150755141Y-99750005D01*
X150755141Y-99749994D01*
X150734614Y-99502270D01*
X150734612Y-99502261D01*
X150673587Y-99261282D01*
X150573731Y-99033630D01*
X150473434Y-98880116D01*
X149773787Y-99579764D01*
X149762518Y-99537708D01*
X149690110Y-99412292D01*
X149587708Y-99309890D01*
X149462292Y-99237482D01*
X149420235Y-99226212D01*
X150120057Y-98526390D01*
X150120056Y-98526389D01*
X150073229Y-98489943D01*
X149854614Y-98371635D01*
X149854603Y-98371630D01*
X149619493Y-98290916D01*
X149374293Y-98250000D01*
X149125707Y-98250000D01*
X148880506Y-98290916D01*
X148645396Y-98371630D01*
X148645390Y-98371632D01*
X148426761Y-98489949D01*
X148379942Y-98526388D01*
X148379942Y-98526390D01*
X149079765Y-99226212D01*
X149037708Y-99237482D01*
X148912292Y-99309890D01*
X148809890Y-99412292D01*
X148737482Y-99537708D01*
X148726212Y-99579764D01*
X148026564Y-98880116D01*
X147926267Y-99033632D01*
X147826412Y-99261282D01*
X147765387Y-99502261D01*
X147765385Y-99502270D01*
X147744859Y-99749994D01*
X147744859Y-99750005D01*
X100500500Y-99750005D01*
X100500500Y-93970000D01*
X162054417Y-93970000D01*
X162074699Y-94175932D01*
X162074700Y-94175934D01*
X162134768Y-94373954D01*
X162232315Y-94556450D01*
X162232317Y-94556452D01*
X162363589Y-94716410D01*
X162460209Y-94795702D01*
X162523550Y-94847685D01*
X162706046Y-94945232D01*
X162904066Y-95005300D01*
X162904065Y-95005300D01*
X162922529Y-95007118D01*
X163110000Y-95025583D01*
X163315934Y-95005300D01*
X163513954Y-94945232D01*
X163696450Y-94847685D01*
X163856410Y-94716410D01*
X163987685Y-94556450D01*
X164085232Y-94373954D01*
X164145300Y-94175934D01*
X164165583Y-93970000D01*
X179834417Y-93970000D01*
X179854699Y-94175932D01*
X179854700Y-94175934D01*
X179914768Y-94373954D01*
X180012315Y-94556450D01*
X180012317Y-94556452D01*
X180143589Y-94716410D01*
X180240209Y-94795702D01*
X180303550Y-94847685D01*
X180486046Y-94945232D01*
X180684066Y-95005300D01*
X180684065Y-95005300D01*
X180702529Y-95007118D01*
X180890000Y-95025583D01*
X181095934Y-95005300D01*
X181293954Y-94945232D01*
X181476450Y-94847685D01*
X181636410Y-94716410D01*
X181767685Y-94556450D01*
X181865232Y-94373954D01*
X181925300Y-94175934D01*
X181945583Y-93970000D01*
X181925300Y-93764066D01*
X181865232Y-93566046D01*
X181767685Y-93383550D01*
X181715702Y-93320209D01*
X181636410Y-93223589D01*
X181476452Y-93092317D01*
X181476453Y-93092317D01*
X181476450Y-93092315D01*
X181293954Y-92994768D01*
X181095934Y-92934700D01*
X181095932Y-92934699D01*
X181095934Y-92934699D01*
X180890000Y-92914417D01*
X180684067Y-92934699D01*
X180486043Y-92994769D01*
X180375898Y-93053643D01*
X180303550Y-93092315D01*
X180303548Y-93092316D01*
X180303547Y-93092317D01*
X180143589Y-93223589D01*
X180012317Y-93383547D01*
X179914769Y-93566043D01*
X179854699Y-93764067D01*
X179834417Y-93970000D01*
X164165583Y-93970000D01*
X164145300Y-93764066D01*
X164085232Y-93566046D01*
X163987685Y-93383550D01*
X163935702Y-93320209D01*
X163856410Y-93223589D01*
X163696452Y-93092317D01*
X163696453Y-93092317D01*
X163696450Y-93092315D01*
X163513954Y-92994768D01*
X163315934Y-92934700D01*
X163315932Y-92934699D01*
X163315934Y-92934699D01*
X163110000Y-92914417D01*
X162904067Y-92934699D01*
X162706043Y-92994769D01*
X162595898Y-93053643D01*
X162523550Y-93092315D01*
X162523548Y-93092316D01*
X162523547Y-93092317D01*
X162363589Y-93223589D01*
X162232317Y-93383547D01*
X162134769Y-93566043D01*
X162074699Y-93764067D01*
X162054417Y-93970000D01*
X100500500Y-93970000D01*
X100500500Y-81000000D01*
X111494353Y-81000000D01*
X111514834Y-81142456D01*
X111574622Y-81273371D01*
X111574623Y-81273373D01*
X111668872Y-81382143D01*
X111789947Y-81459953D01*
X111789950Y-81459954D01*
X111789949Y-81459954D01*
X111928036Y-81500499D01*
X111928038Y-81500500D01*
X111928039Y-81500500D01*
X112071962Y-81500500D01*
X112071962Y-81500499D01*
X112210053Y-81459953D01*
X112331128Y-81382143D01*
X112364788Y-81343296D01*
X112423567Y-81305523D01*
X112458501Y-81300500D01*
X115824167Y-81300500D01*
X115891206Y-81320185D01*
X115911848Y-81336819D01*
X116562848Y-81987819D01*
X116596333Y-82049142D01*
X116591349Y-82118834D01*
X116549477Y-82174767D01*
X116484013Y-82199184D01*
X116475167Y-82199500D01*
X114958501Y-82199500D01*
X114891462Y-82179815D01*
X114864788Y-82156703D01*
X114856971Y-82147682D01*
X114831128Y-82117857D01*
X114710053Y-82040047D01*
X114710051Y-82040046D01*
X114710049Y-82040045D01*
X114710050Y-82040045D01*
X114571963Y-81999500D01*
X114571961Y-81999500D01*
X114428039Y-81999500D01*
X114428036Y-81999500D01*
X114289949Y-82040045D01*
X114168873Y-82117856D01*
X114168872Y-82117856D01*
X114168872Y-82117857D01*
X114156290Y-82132377D01*
X114074623Y-82226626D01*
X114074622Y-82226628D01*
X114014834Y-82357543D01*
X113994353Y-82500000D01*
X114014834Y-82642456D01*
X114065966Y-82754417D01*
X114074623Y-82773373D01*
X114168872Y-82882143D01*
X114289947Y-82959953D01*
X114289950Y-82959954D01*
X114289949Y-82959954D01*
X114428036Y-83000499D01*
X114428038Y-83000500D01*
X114428039Y-83000500D01*
X114571962Y-83000500D01*
X114571962Y-83000499D01*
X114710053Y-82959953D01*
X114831128Y-82882143D01*
X114864788Y-82843296D01*
X114923567Y-82805523D01*
X114958501Y-82800500D01*
X116324167Y-82800500D01*
X116391206Y-82820185D01*
X116411848Y-82836819D01*
X124259540Y-90684511D01*
X124315489Y-90740460D01*
X124315491Y-90740461D01*
X124315495Y-90740464D01*
X124384004Y-90780017D01*
X124384011Y-90780021D01*
X124460438Y-90800500D01*
X124539562Y-90800500D01*
X158324167Y-90800500D01*
X158391206Y-90820185D01*
X158411848Y-90836819D01*
X159315489Y-91740460D01*
X159374829Y-91774720D01*
X159384008Y-91780020D01*
X159384012Y-91780022D01*
X159460438Y-91800500D01*
X159460440Y-91800500D01*
X160039560Y-91800500D01*
X160039562Y-91800500D01*
X160115989Y-91780021D01*
X160172988Y-91747113D01*
X160234988Y-91730500D01*
X162011421Y-91730500D01*
X162078460Y-91750185D01*
X162124215Y-91802989D01*
X162130081Y-91818503D01*
X162134768Y-91833954D01*
X162232315Y-92016450D01*
X162232317Y-92016452D01*
X162363589Y-92176410D01*
X162460209Y-92255702D01*
X162523550Y-92307685D01*
X162706046Y-92405232D01*
X162904066Y-92465300D01*
X162904065Y-92465300D01*
X162922529Y-92467118D01*
X163110000Y-92485583D01*
X163315934Y-92465300D01*
X163513954Y-92405232D01*
X163696450Y-92307685D01*
X163856410Y-92176410D01*
X163987685Y-92016450D01*
X164085232Y-91833954D01*
X164145300Y-91635934D01*
X164165583Y-91430000D01*
X179834417Y-91430000D01*
X179854699Y-91635932D01*
X179854700Y-91635934D01*
X179914768Y-91833954D01*
X180012315Y-92016450D01*
X180012317Y-92016452D01*
X180143589Y-92176410D01*
X180240209Y-92255702D01*
X180303550Y-92307685D01*
X180486046Y-92405232D01*
X180684066Y-92465300D01*
X180684065Y-92465300D01*
X180702529Y-92467118D01*
X180890000Y-92485583D01*
X181095934Y-92465300D01*
X181293954Y-92405232D01*
X181476450Y-92307685D01*
X181636410Y-92176410D01*
X181767685Y-92016450D01*
X181865232Y-91833954D01*
X181925300Y-91635934D01*
X181945583Y-91430000D01*
X181925300Y-91224066D01*
X181865232Y-91026046D01*
X181767685Y-90843550D01*
X181683080Y-90740458D01*
X181636410Y-90683589D01*
X181476452Y-90552317D01*
X181476453Y-90552317D01*
X181476450Y-90552315D01*
X181293954Y-90454768D01*
X181095934Y-90394700D01*
X181095932Y-90394699D01*
X181095934Y-90394699D01*
X180890000Y-90374417D01*
X180684067Y-90394699D01*
X180486043Y-90454769D01*
X180375898Y-90513643D01*
X180303550Y-90552315D01*
X180303548Y-90552316D01*
X180303547Y-90552317D01*
X180143589Y-90683589D01*
X180012317Y-90843547D01*
X179914769Y-91026043D01*
X179854699Y-91224067D01*
X179834417Y-91430000D01*
X164165583Y-91430000D01*
X164145300Y-91224066D01*
X164085232Y-91026046D01*
X163987685Y-90843550D01*
X163903080Y-90740458D01*
X163856410Y-90683589D01*
X163696452Y-90552317D01*
X163696453Y-90552317D01*
X163696450Y-90552315D01*
X163513954Y-90454768D01*
X163315934Y-90394700D01*
X163315932Y-90394699D01*
X163315934Y-90394699D01*
X163110000Y-90374417D01*
X162904067Y-90394699D01*
X162706043Y-90454769D01*
X162595898Y-90513643D01*
X162523550Y-90552315D01*
X162523548Y-90552316D01*
X162523547Y-90552317D01*
X162363589Y-90683589D01*
X162232317Y-90843547D01*
X162134769Y-91026043D01*
X162134768Y-91026046D01*
X162130081Y-91041497D01*
X162091783Y-91099935D01*
X162027970Y-91128391D01*
X162011421Y-91129500D01*
X160030438Y-91129500D01*
X159992224Y-91139739D01*
X159954009Y-91149979D01*
X159954008Y-91149980D01*
X159897012Y-91182887D01*
X159835012Y-91199500D01*
X159675833Y-91199500D01*
X159608794Y-91179815D01*
X159588152Y-91163181D01*
X158762652Y-90337681D01*
X158729167Y-90276358D01*
X158734151Y-90206666D01*
X158762652Y-90162319D01*
X159698152Y-89226819D01*
X159759475Y-89193334D01*
X159785833Y-89190500D01*
X162011421Y-89190500D01*
X162078460Y-89210185D01*
X162124215Y-89262989D01*
X162130081Y-89278503D01*
X162134768Y-89293954D01*
X162232315Y-89476450D01*
X162232317Y-89476452D01*
X162363589Y-89636410D01*
X162440466Y-89699500D01*
X162523550Y-89767685D01*
X162706046Y-89865232D01*
X162904066Y-89925300D01*
X162904065Y-89925300D01*
X162922529Y-89927118D01*
X163110000Y-89945583D01*
X163315934Y-89925300D01*
X163513954Y-89865232D01*
X163696450Y-89767685D01*
X163856410Y-89636410D01*
X163987685Y-89476450D01*
X164085232Y-89293954D01*
X164145300Y-89095934D01*
X164165583Y-88890000D01*
X164145300Y-88684066D01*
X164085232Y-88486046D01*
X163987685Y-88303550D01*
X163935702Y-88240209D01*
X163856410Y-88143589D01*
X163696452Y-88012317D01*
X163696453Y-88012317D01*
X163696450Y-88012315D01*
X163548732Y-87933357D01*
X163498889Y-87884395D01*
X163483429Y-87816257D01*
X163507261Y-87750578D01*
X163562819Y-87708209D01*
X163607187Y-87700000D01*
X164007828Y-87700000D01*
X164007844Y-87699999D01*
X164067372Y-87693598D01*
X164067379Y-87693596D01*
X164202086Y-87643354D01*
X164202093Y-87643350D01*
X164317187Y-87557190D01*
X164317190Y-87557187D01*
X164403350Y-87442093D01*
X164403354Y-87442086D01*
X164453596Y-87307379D01*
X164453598Y-87307372D01*
X164459999Y-87247844D01*
X179540000Y-87247844D01*
X179546401Y-87307372D01*
X179546403Y-87307379D01*
X179596645Y-87442086D01*
X179596649Y-87442093D01*
X179682809Y-87557187D01*
X179682812Y-87557190D01*
X179797906Y-87643350D01*
X179797913Y-87643354D01*
X179932620Y-87693596D01*
X179932627Y-87693598D01*
X179992155Y-87699999D01*
X179992172Y-87700000D01*
X180392813Y-87700000D01*
X180459852Y-87719685D01*
X180505607Y-87772489D01*
X180515551Y-87841647D01*
X180486526Y-87905203D01*
X180451267Y-87933357D01*
X180303550Y-88012315D01*
X180303548Y-88012316D01*
X180303547Y-88012317D01*
X180143589Y-88143589D01*
X180012317Y-88303547D01*
X179914769Y-88486043D01*
X179854699Y-88684067D01*
X179834417Y-88890000D01*
X179854699Y-89095932D01*
X179854700Y-89095934D01*
X179914768Y-89293954D01*
X180012315Y-89476450D01*
X180012317Y-89476452D01*
X180143589Y-89636410D01*
X180220466Y-89699500D01*
X180303550Y-89767685D01*
X180486046Y-89865232D01*
X180684066Y-89925300D01*
X180684065Y-89925300D01*
X180702529Y-89927118D01*
X180890000Y-89945583D01*
X181095934Y-89925300D01*
X181293954Y-89865232D01*
X181476450Y-89767685D01*
X181636410Y-89636410D01*
X181767685Y-89476450D01*
X181865232Y-89293954D01*
X181925300Y-89095934D01*
X181945583Y-88890000D01*
X181925300Y-88684066D01*
X181865232Y-88486046D01*
X181767685Y-88303550D01*
X181715702Y-88240209D01*
X181636410Y-88143589D01*
X181476452Y-88012317D01*
X181476453Y-88012317D01*
X181476450Y-88012315D01*
X181328732Y-87933357D01*
X181278889Y-87884395D01*
X181263429Y-87816257D01*
X181287261Y-87750578D01*
X181342819Y-87708209D01*
X181387187Y-87700000D01*
X181787828Y-87700000D01*
X181787844Y-87699999D01*
X181847372Y-87693598D01*
X181847379Y-87693596D01*
X181982086Y-87643354D01*
X181982093Y-87643350D01*
X182097187Y-87557190D01*
X182097190Y-87557187D01*
X182183350Y-87442093D01*
X182183354Y-87442086D01*
X182233596Y-87307379D01*
X182233598Y-87307372D01*
X182239999Y-87247844D01*
X182240000Y-87247827D01*
X182240000Y-86600000D01*
X181334560Y-86600000D01*
X181365245Y-86546853D01*
X181400000Y-86417143D01*
X181400000Y-86282857D01*
X181365245Y-86153147D01*
X181334560Y-86100000D01*
X182240000Y-86100000D01*
X182240000Y-85452172D01*
X182239999Y-85452155D01*
X182233598Y-85392627D01*
X182233596Y-85392620D01*
X182183354Y-85257913D01*
X182183350Y-85257906D01*
X182097190Y-85142812D01*
X182097187Y-85142809D01*
X181982093Y-85056649D01*
X181982086Y-85056645D01*
X181847379Y-85006403D01*
X181847372Y-85006401D01*
X181787844Y-85000000D01*
X181387187Y-85000000D01*
X181320148Y-84980315D01*
X181274393Y-84927511D01*
X181264449Y-84858353D01*
X181293474Y-84794797D01*
X181328733Y-84766642D01*
X181476450Y-84687685D01*
X181636410Y-84556410D01*
X181767685Y-84396450D01*
X181865232Y-84213954D01*
X181925300Y-84015934D01*
X181945583Y-83810000D01*
X181925300Y-83604066D01*
X181865232Y-83406046D01*
X181767685Y-83223550D01*
X181715702Y-83160209D01*
X181636410Y-83063589D01*
X181476452Y-82932317D01*
X181476453Y-82932317D01*
X181476450Y-82932315D01*
X181293954Y-82834768D01*
X181095934Y-82774700D01*
X181095932Y-82774699D01*
X181095934Y-82774699D01*
X180890000Y-82754417D01*
X180684067Y-82774699D01*
X180486043Y-82834769D01*
X180397414Y-82882143D01*
X180303550Y-82932315D01*
X180303548Y-82932316D01*
X180303547Y-82932317D01*
X180143589Y-83063589D01*
X180012317Y-83223547D01*
X179914769Y-83406043D01*
X179854699Y-83604067D01*
X179834417Y-83810000D01*
X179854699Y-84015932D01*
X179854700Y-84015934D01*
X179914768Y-84213954D01*
X180012315Y-84396450D01*
X180012317Y-84396452D01*
X180143589Y-84556410D01*
X180240209Y-84635702D01*
X180303550Y-84687685D01*
X180451267Y-84766642D01*
X180501111Y-84815605D01*
X180516571Y-84883743D01*
X180492739Y-84949422D01*
X180437181Y-84991791D01*
X180392813Y-85000000D01*
X179992155Y-85000000D01*
X179932627Y-85006401D01*
X179932620Y-85006403D01*
X179797913Y-85056645D01*
X179797906Y-85056649D01*
X179682812Y-85142809D01*
X179682809Y-85142812D01*
X179596649Y-85257906D01*
X179596645Y-85257913D01*
X179546403Y-85392620D01*
X179546401Y-85392627D01*
X179540000Y-85452155D01*
X179540000Y-86100000D01*
X180445440Y-86100000D01*
X180414755Y-86153147D01*
X180380000Y-86282857D01*
X180380000Y-86417143D01*
X180414755Y-86546853D01*
X180445440Y-86600000D01*
X179540000Y-86600000D01*
X179540000Y-87247844D01*
X164459999Y-87247844D01*
X164460000Y-87247827D01*
X164460000Y-86600000D01*
X163554560Y-86600000D01*
X163585245Y-86546853D01*
X163620000Y-86417143D01*
X163620000Y-86282857D01*
X163585245Y-86153147D01*
X163554560Y-86100000D01*
X164460000Y-86100000D01*
X164460000Y-85452172D01*
X164459999Y-85452155D01*
X164453598Y-85392627D01*
X164453596Y-85392620D01*
X164403354Y-85257913D01*
X164403350Y-85257906D01*
X164317190Y-85142812D01*
X164317187Y-85142809D01*
X164202093Y-85056649D01*
X164202086Y-85056645D01*
X164067379Y-85006403D01*
X164067372Y-85006401D01*
X164007844Y-85000000D01*
X163607187Y-85000000D01*
X163540148Y-84980315D01*
X163494393Y-84927511D01*
X163484449Y-84858353D01*
X163513474Y-84794797D01*
X163548733Y-84766642D01*
X163696450Y-84687685D01*
X163856410Y-84556410D01*
X163987685Y-84396450D01*
X164085232Y-84213954D01*
X164145300Y-84015934D01*
X164165583Y-83810000D01*
X164145300Y-83604066D01*
X164085232Y-83406046D01*
X163987685Y-83223550D01*
X163935702Y-83160209D01*
X163856410Y-83063589D01*
X163696452Y-82932317D01*
X163696453Y-82932317D01*
X163696450Y-82932315D01*
X163513954Y-82834768D01*
X163315934Y-82774700D01*
X163315932Y-82774699D01*
X163315934Y-82774699D01*
X163110000Y-82754417D01*
X162904067Y-82774699D01*
X162706043Y-82834769D01*
X162617414Y-82882143D01*
X162523550Y-82932315D01*
X162523548Y-82932316D01*
X162523547Y-82932317D01*
X162363589Y-83063589D01*
X162232317Y-83223547D01*
X162134769Y-83406043D01*
X162074699Y-83604067D01*
X162054417Y-83810000D01*
X162074699Y-84015932D01*
X162074700Y-84015934D01*
X162134768Y-84213954D01*
X162232315Y-84396450D01*
X162232317Y-84396452D01*
X162363589Y-84556410D01*
X162460209Y-84635702D01*
X162523550Y-84687685D01*
X162671267Y-84766642D01*
X162721111Y-84815605D01*
X162736571Y-84883743D01*
X162712739Y-84949422D01*
X162657181Y-84991791D01*
X162612813Y-85000000D01*
X162212155Y-85000000D01*
X162152627Y-85006401D01*
X162152620Y-85006403D01*
X162017913Y-85056645D01*
X162017906Y-85056649D01*
X161902812Y-85142809D01*
X161902809Y-85142812D01*
X161816649Y-85257906D01*
X161816645Y-85257913D01*
X161766403Y-85392620D01*
X161766401Y-85392627D01*
X161760000Y-85452155D01*
X161760000Y-86100000D01*
X162665440Y-86100000D01*
X162634755Y-86153147D01*
X162600000Y-86282857D01*
X162600000Y-86417143D01*
X162634755Y-86546853D01*
X162665440Y-86600000D01*
X161760000Y-86600000D01*
X161760000Y-87247844D01*
X161766401Y-87307372D01*
X161766403Y-87307379D01*
X161816645Y-87442086D01*
X161816649Y-87442093D01*
X161902809Y-87557187D01*
X161902812Y-87557190D01*
X162017906Y-87643350D01*
X162017913Y-87643354D01*
X162152620Y-87693596D01*
X162152627Y-87693598D01*
X162212155Y-87699999D01*
X162212172Y-87700000D01*
X162612813Y-87700000D01*
X162679852Y-87719685D01*
X162725607Y-87772489D01*
X162735551Y-87841647D01*
X162706526Y-87905203D01*
X162671267Y-87933357D01*
X162523550Y-88012315D01*
X162523548Y-88012316D01*
X162523547Y-88012317D01*
X162363589Y-88143589D01*
X162232317Y-88303547D01*
X162134769Y-88486043D01*
X162134768Y-88486046D01*
X162130081Y-88501497D01*
X162091783Y-88559935D01*
X162027970Y-88588391D01*
X162011421Y-88589500D01*
X159570438Y-88589500D01*
X159532224Y-88599739D01*
X159494009Y-88609979D01*
X159494004Y-88609982D01*
X159425495Y-88649535D01*
X159425487Y-88649541D01*
X158411848Y-89663181D01*
X158350525Y-89696666D01*
X158324167Y-89699500D01*
X125175833Y-89699500D01*
X125108794Y-89679815D01*
X125088152Y-89663181D01*
X122800971Y-87376000D01*
X153926353Y-87376000D01*
X153946834Y-87518456D01*
X153964524Y-87557190D01*
X154006623Y-87649373D01*
X154100872Y-87758143D01*
X154221947Y-87835953D01*
X154221950Y-87835954D01*
X154221949Y-87835954D01*
X154360036Y-87876499D01*
X154360038Y-87876500D01*
X154360039Y-87876500D01*
X154503962Y-87876500D01*
X154503962Y-87876499D01*
X154642053Y-87835953D01*
X154763128Y-87758143D01*
X154857377Y-87649373D01*
X154917165Y-87518457D01*
X154937647Y-87376000D01*
X154917165Y-87233543D01*
X154857377Y-87102627D01*
X154857375Y-87102625D01*
X154857374Y-87102622D01*
X154762787Y-86993462D01*
X154733762Y-86929906D01*
X154732500Y-86912260D01*
X154732500Y-81270000D01*
X162054417Y-81270000D01*
X162074699Y-81475932D01*
X162082152Y-81500500D01*
X162134768Y-81673954D01*
X162232315Y-81856450D01*
X162232317Y-81856452D01*
X162363589Y-82016410D01*
X162403474Y-82049142D01*
X162523550Y-82147685D01*
X162706046Y-82245232D01*
X162904066Y-82305300D01*
X162904065Y-82305300D01*
X162922529Y-82307118D01*
X163110000Y-82325583D01*
X163315934Y-82305300D01*
X163513954Y-82245232D01*
X163696450Y-82147685D01*
X163856410Y-82016410D01*
X163987685Y-81856450D01*
X164085232Y-81673954D01*
X164145300Y-81475934D01*
X164165583Y-81270000D01*
X179834417Y-81270000D01*
X179854699Y-81475932D01*
X179862152Y-81500500D01*
X179914768Y-81673954D01*
X180012315Y-81856450D01*
X180012317Y-81856452D01*
X180143589Y-82016410D01*
X180183474Y-82049142D01*
X180303550Y-82147685D01*
X180486046Y-82245232D01*
X180684066Y-82305300D01*
X180684065Y-82305300D01*
X180702529Y-82307118D01*
X180890000Y-82325583D01*
X181095934Y-82305300D01*
X181293954Y-82245232D01*
X181476450Y-82147685D01*
X181636410Y-82016410D01*
X181767685Y-81856450D01*
X181865232Y-81673954D01*
X181925300Y-81475934D01*
X181945583Y-81270000D01*
X181925300Y-81064066D01*
X181865232Y-80866046D01*
X181767685Y-80683550D01*
X181688855Y-80587495D01*
X181636410Y-80523589D01*
X181476452Y-80392317D01*
X181476453Y-80392317D01*
X181476450Y-80392315D01*
X181293954Y-80294768D01*
X181095934Y-80234700D01*
X181095932Y-80234699D01*
X181095934Y-80234699D01*
X180890000Y-80214417D01*
X180684067Y-80234699D01*
X180486043Y-80294769D01*
X180375898Y-80353643D01*
X180303550Y-80392315D01*
X180303548Y-80392316D01*
X180303547Y-80392317D01*
X180143589Y-80523589D01*
X180015380Y-80679815D01*
X180012315Y-80683550D01*
X179992843Y-80719979D01*
X179914769Y-80866043D01*
X179854699Y-81064067D01*
X179834417Y-81270000D01*
X164165583Y-81270000D01*
X164145300Y-81064066D01*
X164085232Y-80866046D01*
X163987685Y-80683550D01*
X163908855Y-80587495D01*
X163856410Y-80523589D01*
X163696452Y-80392317D01*
X163696453Y-80392317D01*
X163696450Y-80392315D01*
X163513954Y-80294768D01*
X163315934Y-80234700D01*
X163315932Y-80234699D01*
X163315934Y-80234699D01*
X163110000Y-80214417D01*
X162904067Y-80234699D01*
X162706043Y-80294769D01*
X162595898Y-80353643D01*
X162523550Y-80392315D01*
X162523548Y-80392316D01*
X162523547Y-80392317D01*
X162363589Y-80523589D01*
X162235380Y-80679815D01*
X162232315Y-80683550D01*
X162212843Y-80719979D01*
X162134769Y-80866043D01*
X162074699Y-81064067D01*
X162054417Y-81270000D01*
X154732500Y-81270000D01*
X154732500Y-80947833D01*
X154752185Y-80880794D01*
X154768819Y-80860152D01*
X156552152Y-79076819D01*
X156613475Y-79043334D01*
X156639833Y-79040500D01*
X157011560Y-79040500D01*
X157011562Y-79040500D01*
X157033114Y-79034724D01*
X157065207Y-79030500D01*
X162011421Y-79030500D01*
X162078460Y-79050185D01*
X162124215Y-79102989D01*
X162130081Y-79118503D01*
X162134768Y-79133954D01*
X162232315Y-79316450D01*
X162232317Y-79316452D01*
X162363589Y-79476410D01*
X162460209Y-79555702D01*
X162523550Y-79607685D01*
X162706046Y-79705232D01*
X162904066Y-79765300D01*
X162904065Y-79765300D01*
X162922529Y-79767118D01*
X163110000Y-79785583D01*
X163315934Y-79765300D01*
X163513954Y-79705232D01*
X163696450Y-79607685D01*
X163856410Y-79476410D01*
X163987685Y-79316450D01*
X164085232Y-79133954D01*
X164145300Y-78935934D01*
X164165583Y-78730000D01*
X179834417Y-78730000D01*
X179854699Y-78935932D01*
X179883386Y-79030500D01*
X179914768Y-79133954D01*
X180012315Y-79316450D01*
X180012317Y-79316452D01*
X180143589Y-79476410D01*
X180240209Y-79555702D01*
X180303550Y-79607685D01*
X180486046Y-79705232D01*
X180684066Y-79765300D01*
X180684065Y-79765300D01*
X180702529Y-79767118D01*
X180890000Y-79785583D01*
X181095934Y-79765300D01*
X181293954Y-79705232D01*
X181476450Y-79607685D01*
X181636410Y-79476410D01*
X181767685Y-79316450D01*
X181865232Y-79133954D01*
X181925300Y-78935934D01*
X181945583Y-78730000D01*
X181925300Y-78524066D01*
X181865232Y-78326046D01*
X181767685Y-78143550D01*
X181665183Y-78018650D01*
X181636410Y-77983589D01*
X181518677Y-77886969D01*
X181476450Y-77852315D01*
X181293954Y-77754768D01*
X181095934Y-77694700D01*
X181095932Y-77694699D01*
X181095934Y-77694699D01*
X180890000Y-77674417D01*
X180684067Y-77694699D01*
X180486043Y-77754769D01*
X180376422Y-77813364D01*
X180303550Y-77852315D01*
X180303548Y-77852316D01*
X180303547Y-77852317D01*
X180143589Y-77983589D01*
X180012317Y-78143547D01*
X179914769Y-78326043D01*
X179854699Y-78524067D01*
X179834417Y-78730000D01*
X164165583Y-78730000D01*
X164145300Y-78524066D01*
X164085232Y-78326046D01*
X163987685Y-78143550D01*
X163885183Y-78018650D01*
X163856410Y-77983589D01*
X163738677Y-77886969D01*
X163696450Y-77852315D01*
X163513954Y-77754768D01*
X163315934Y-77694700D01*
X163315932Y-77694699D01*
X163315934Y-77694699D01*
X163110000Y-77674417D01*
X162904067Y-77694699D01*
X162706043Y-77754769D01*
X162596422Y-77813364D01*
X162523550Y-77852315D01*
X162523548Y-77852316D01*
X162523547Y-77852317D01*
X162363589Y-77983589D01*
X162232317Y-78143547D01*
X162134769Y-78326043D01*
X162134768Y-78326046D01*
X162130081Y-78341497D01*
X162091783Y-78399935D01*
X162027970Y-78428391D01*
X162011421Y-78429500D01*
X156942438Y-78429500D01*
X156920886Y-78435275D01*
X156888793Y-78439500D01*
X156424438Y-78439500D01*
X156393867Y-78447691D01*
X156348008Y-78459979D01*
X156348007Y-78459980D01*
X156296811Y-78489539D01*
X156296810Y-78489540D01*
X156279490Y-78499539D01*
X156279487Y-78499541D01*
X154191541Y-80587487D01*
X154191535Y-80587495D01*
X154151982Y-80656004D01*
X154151979Y-80656009D01*
X154144600Y-80683550D01*
X154133058Y-80726626D01*
X154131500Y-80732439D01*
X154131500Y-86912260D01*
X154111815Y-86979299D01*
X154101213Y-86993462D01*
X154006625Y-87102622D01*
X154006622Y-87102628D01*
X153946834Y-87233543D01*
X153926353Y-87376000D01*
X122800971Y-87376000D01*
X116184512Y-80759541D01*
X116184504Y-80759535D01*
X116115995Y-80719982D01*
X116115990Y-80719979D01*
X116090513Y-80713152D01*
X116039562Y-80699500D01*
X116039560Y-80699500D01*
X112458501Y-80699500D01*
X112391462Y-80679815D01*
X112364788Y-80656703D01*
X112331128Y-80617857D01*
X112210053Y-80540047D01*
X112210051Y-80540046D01*
X112210049Y-80540045D01*
X112210050Y-80540045D01*
X112071963Y-80499500D01*
X112071961Y-80499500D01*
X111928039Y-80499500D01*
X111928036Y-80499500D01*
X111789949Y-80540045D01*
X111668873Y-80617856D01*
X111574623Y-80726626D01*
X111574622Y-80726628D01*
X111514834Y-80857543D01*
X111494353Y-81000000D01*
X100500500Y-81000000D01*
X100500500Y-79198543D01*
X110959499Y-79198543D01*
X110997947Y-79391829D01*
X110997950Y-79391839D01*
X111073364Y-79573907D01*
X111073371Y-79573920D01*
X111182860Y-79737781D01*
X111182863Y-79737785D01*
X111322214Y-79877136D01*
X111322218Y-79877139D01*
X111486079Y-79986628D01*
X111486092Y-79986635D01*
X111668160Y-80062049D01*
X111668165Y-80062051D01*
X111668169Y-80062051D01*
X111668170Y-80062052D01*
X111861456Y-80100500D01*
X111861459Y-80100500D01*
X112058543Y-80100500D01*
X112188582Y-80074632D01*
X112251835Y-80062051D01*
X112433914Y-79986632D01*
X112597782Y-79877139D01*
X112737139Y-79737782D01*
X112846632Y-79573914D01*
X112922051Y-79391835D01*
X112960500Y-79198543D01*
X113499499Y-79198543D01*
X113537947Y-79391829D01*
X113537950Y-79391839D01*
X113613364Y-79573907D01*
X113613371Y-79573920D01*
X113722860Y-79737781D01*
X113722863Y-79737785D01*
X113862214Y-79877136D01*
X113862218Y-79877139D01*
X114026079Y-79986628D01*
X114026092Y-79986635D01*
X114208160Y-80062049D01*
X114208165Y-80062051D01*
X114208169Y-80062051D01*
X114208170Y-80062052D01*
X114401456Y-80100500D01*
X114401459Y-80100500D01*
X114598543Y-80100500D01*
X114728582Y-80074632D01*
X114791835Y-80062051D01*
X114973914Y-79986632D01*
X115137782Y-79877139D01*
X115277139Y-79737782D01*
X115386632Y-79573914D01*
X115462051Y-79391835D01*
X115500500Y-79198543D01*
X116039499Y-79198543D01*
X116077947Y-79391829D01*
X116077950Y-79391839D01*
X116153364Y-79573907D01*
X116153371Y-79573920D01*
X116262860Y-79737781D01*
X116262863Y-79737785D01*
X116402214Y-79877136D01*
X116402218Y-79877139D01*
X116566079Y-79986628D01*
X116566092Y-79986635D01*
X116748160Y-80062049D01*
X116748165Y-80062051D01*
X116748169Y-80062051D01*
X116748170Y-80062052D01*
X116941456Y-80100500D01*
X116941459Y-80100500D01*
X117138543Y-80100500D01*
X117268582Y-80074632D01*
X117331835Y-80062051D01*
X117513914Y-79986632D01*
X117677782Y-79877139D01*
X117817139Y-79737782D01*
X117926632Y-79573914D01*
X118002051Y-79391835D01*
X118038034Y-79210937D01*
X118070419Y-79149027D01*
X118131134Y-79114453D01*
X118200904Y-79118192D01*
X118257576Y-79159059D01*
X118282124Y-79215731D01*
X118312009Y-79404417D01*
X118375244Y-79599031D01*
X118468140Y-79781349D01*
X118588417Y-79946894D01*
X118588417Y-79946895D01*
X118733104Y-80091582D01*
X118898650Y-80211859D01*
X119080968Y-80304754D01*
X119275578Y-80367988D01*
X119330000Y-80376607D01*
X119330000Y-79333012D01*
X119387007Y-79365925D01*
X119514174Y-79400000D01*
X119645826Y-79400000D01*
X119772993Y-79365925D01*
X119830000Y-79333012D01*
X119830000Y-80376606D01*
X119884421Y-80367988D01*
X120079031Y-80304754D01*
X120261349Y-80211859D01*
X120426894Y-80091582D01*
X120426895Y-80091582D01*
X120571582Y-79946895D01*
X120571582Y-79946894D01*
X120691859Y-79781349D01*
X120784755Y-79599031D01*
X120847990Y-79404417D01*
X120880000Y-79202317D01*
X120880000Y-79150000D01*
X120013012Y-79150000D01*
X120045925Y-79092993D01*
X120080000Y-78965826D01*
X120080000Y-78834174D01*
X120045925Y-78707007D01*
X120013012Y-78650000D01*
X120880000Y-78650000D01*
X120880000Y-78597682D01*
X120847990Y-78395582D01*
X120784755Y-78200968D01*
X120691859Y-78018650D01*
X120571582Y-77853105D01*
X120571582Y-77853104D01*
X120426895Y-77708417D01*
X120261349Y-77588140D01*
X120079029Y-77495244D01*
X119884413Y-77432009D01*
X119830000Y-77423390D01*
X119830000Y-78466988D01*
X119772993Y-78434075D01*
X119645826Y-78400000D01*
X119514174Y-78400000D01*
X119387007Y-78434075D01*
X119330000Y-78466988D01*
X119330000Y-77423390D01*
X119275586Y-77432009D01*
X119080970Y-77495244D01*
X118898650Y-77588140D01*
X118733105Y-77708417D01*
X118733104Y-77708417D01*
X118588417Y-77853104D01*
X118588417Y-77853105D01*
X118468140Y-78018650D01*
X118375244Y-78200968D01*
X118312010Y-78395581D01*
X118282124Y-78584269D01*
X118252194Y-78647403D01*
X118192883Y-78684334D01*
X118123020Y-78683336D01*
X118064788Y-78644726D01*
X118038034Y-78589061D01*
X118012358Y-78459980D01*
X118002051Y-78408165D01*
X117996839Y-78395581D01*
X117926635Y-78226092D01*
X117926628Y-78226079D01*
X117817139Y-78062218D01*
X117817136Y-78062214D01*
X117677785Y-77922863D01*
X117677781Y-77922860D01*
X117513920Y-77813371D01*
X117513907Y-77813364D01*
X117331839Y-77737950D01*
X117331829Y-77737947D01*
X117138543Y-77699500D01*
X117138541Y-77699500D01*
X116941459Y-77699500D01*
X116941457Y-77699500D01*
X116748170Y-77737947D01*
X116748160Y-77737950D01*
X116566092Y-77813364D01*
X116566079Y-77813371D01*
X116402218Y-77922860D01*
X116402214Y-77922863D01*
X116262863Y-78062214D01*
X116262860Y-78062218D01*
X116153371Y-78226079D01*
X116153364Y-78226092D01*
X116077950Y-78408160D01*
X116077947Y-78408170D01*
X116039500Y-78601456D01*
X116039500Y-78601459D01*
X116039500Y-79198541D01*
X116039500Y-79198543D01*
X116039499Y-79198543D01*
X115500500Y-79198543D01*
X115500500Y-79198541D01*
X115500500Y-78601459D01*
X115500500Y-78601456D01*
X115462052Y-78408170D01*
X115462051Y-78408169D01*
X115462051Y-78408165D01*
X115456839Y-78395581D01*
X115386635Y-78226092D01*
X115386628Y-78226079D01*
X115277139Y-78062218D01*
X115277136Y-78062214D01*
X115137785Y-77922863D01*
X115137781Y-77922860D01*
X114973920Y-77813371D01*
X114973907Y-77813364D01*
X114791839Y-77737950D01*
X114791829Y-77737947D01*
X114598543Y-77699500D01*
X114598541Y-77699500D01*
X114401459Y-77699500D01*
X114401457Y-77699500D01*
X114208170Y-77737947D01*
X114208160Y-77737950D01*
X114026092Y-77813364D01*
X114026079Y-77813371D01*
X113862218Y-77922860D01*
X113862214Y-77922863D01*
X113722863Y-78062214D01*
X113722860Y-78062218D01*
X113613371Y-78226079D01*
X113613364Y-78226092D01*
X113537950Y-78408160D01*
X113537947Y-78408170D01*
X113499500Y-78601456D01*
X113499500Y-78601459D01*
X113499500Y-79198541D01*
X113499500Y-79198543D01*
X113499499Y-79198543D01*
X112960500Y-79198543D01*
X112960500Y-79198541D01*
X112960500Y-78601459D01*
X112960500Y-78601456D01*
X112922052Y-78408170D01*
X112922051Y-78408169D01*
X112922051Y-78408165D01*
X112916839Y-78395581D01*
X112846635Y-78226092D01*
X112846628Y-78226079D01*
X112737139Y-78062218D01*
X112737136Y-78062214D01*
X112597785Y-77922863D01*
X112597781Y-77922860D01*
X112433920Y-77813371D01*
X112433907Y-77813364D01*
X112251839Y-77737950D01*
X112251829Y-77737947D01*
X112058543Y-77699500D01*
X112058541Y-77699500D01*
X111861459Y-77699500D01*
X111861457Y-77699500D01*
X111668170Y-77737947D01*
X111668160Y-77737950D01*
X111486092Y-77813364D01*
X111486079Y-77813371D01*
X111322218Y-77922860D01*
X111322214Y-77922863D01*
X111182863Y-78062214D01*
X111182860Y-78062218D01*
X111073371Y-78226079D01*
X111073364Y-78226092D01*
X110997950Y-78408160D01*
X110997947Y-78408170D01*
X110959500Y-78601456D01*
X110959500Y-78601459D01*
X110959500Y-79198541D01*
X110959500Y-79198543D01*
X110959499Y-79198543D01*
X100500500Y-79198543D01*
X100500500Y-74500000D01*
X120994353Y-74500000D01*
X121014834Y-74642456D01*
X121060338Y-74742093D01*
X121074623Y-74773373D01*
X121168872Y-74882143D01*
X121289947Y-74959953D01*
X121289950Y-74959954D01*
X121289949Y-74959954D01*
X121397107Y-74991417D01*
X121426336Y-75000000D01*
X121428036Y-75000499D01*
X121428038Y-75000500D01*
X121428039Y-75000500D01*
X121571962Y-75000500D01*
X121571962Y-75000499D01*
X121710053Y-74959953D01*
X121831128Y-74882143D01*
X121864788Y-74843296D01*
X121923567Y-74805523D01*
X121958501Y-74800500D01*
X150824167Y-74800500D01*
X150891206Y-74820185D01*
X150911848Y-74836819D01*
X152259540Y-76184511D01*
X152315489Y-76240460D01*
X152315491Y-76240461D01*
X152315495Y-76240464D01*
X152372493Y-76273371D01*
X152384011Y-76280021D01*
X152460438Y-76300500D01*
X152539562Y-76300500D01*
X154628999Y-76300500D01*
X154696038Y-76320185D01*
X154722711Y-76343296D01*
X154756372Y-76382143D01*
X154877447Y-76459953D01*
X154877450Y-76459954D01*
X154877449Y-76459954D01*
X155015536Y-76500499D01*
X155015538Y-76500500D01*
X155015539Y-76500500D01*
X155159462Y-76500500D01*
X155159462Y-76500499D01*
X155297553Y-76459953D01*
X155418628Y-76382143D01*
X155512877Y-76273373D01*
X155572665Y-76142457D01*
X155593147Y-76000000D01*
X155572665Y-75857543D01*
X155512877Y-75726627D01*
X155418628Y-75617857D01*
X155297553Y-75540047D01*
X155297551Y-75540046D01*
X155297549Y-75540045D01*
X155297550Y-75540045D01*
X155159463Y-75499500D01*
X155159461Y-75499500D01*
X155015539Y-75499500D01*
X155015536Y-75499500D01*
X154877449Y-75540045D01*
X154756373Y-75617856D01*
X154722712Y-75656703D01*
X154663933Y-75694477D01*
X154628999Y-75699500D01*
X152675833Y-75699500D01*
X152608794Y-75679815D01*
X152588152Y-75663181D01*
X151472815Y-74547844D01*
X161760000Y-74547844D01*
X161766401Y-74607372D01*
X161766403Y-74607379D01*
X161816645Y-74742086D01*
X161816649Y-74742093D01*
X161902809Y-74857187D01*
X161902812Y-74857190D01*
X162017906Y-74943350D01*
X162017913Y-74943354D01*
X162152620Y-74993596D01*
X162152627Y-74993598D01*
X162212155Y-74999999D01*
X162212172Y-75000000D01*
X162612813Y-75000000D01*
X162679852Y-75019685D01*
X162725607Y-75072489D01*
X162735551Y-75141647D01*
X162706526Y-75205203D01*
X162671267Y-75233357D01*
X162523550Y-75312315D01*
X162523548Y-75312316D01*
X162523547Y-75312317D01*
X162363589Y-75443589D01*
X162232317Y-75603547D01*
X162232315Y-75603550D01*
X162224668Y-75617857D01*
X162134769Y-75786043D01*
X162074699Y-75984067D01*
X162054417Y-76190000D01*
X162074699Y-76395932D01*
X162074700Y-76395934D01*
X162134768Y-76593954D01*
X162232315Y-76776450D01*
X162232317Y-76776452D01*
X162363589Y-76936410D01*
X162460209Y-77015702D01*
X162523550Y-77067685D01*
X162706046Y-77165232D01*
X162904066Y-77225300D01*
X162904065Y-77225300D01*
X162922529Y-77227118D01*
X163110000Y-77245583D01*
X163315934Y-77225300D01*
X163513954Y-77165232D01*
X163696450Y-77067685D01*
X163856410Y-76936410D01*
X163987685Y-76776450D01*
X164085232Y-76593954D01*
X164145300Y-76395934D01*
X164165583Y-76190000D01*
X179834417Y-76190000D01*
X179854699Y-76395932D01*
X179854700Y-76395934D01*
X179914768Y-76593954D01*
X180012315Y-76776450D01*
X180012317Y-76776452D01*
X180143589Y-76936410D01*
X180240209Y-77015702D01*
X180303550Y-77067685D01*
X180486046Y-77165232D01*
X180684066Y-77225300D01*
X180684065Y-77225300D01*
X180702529Y-77227118D01*
X180890000Y-77245583D01*
X181095934Y-77225300D01*
X181293954Y-77165232D01*
X181476450Y-77067685D01*
X181636410Y-76936410D01*
X181767685Y-76776450D01*
X181865232Y-76593954D01*
X181925300Y-76395934D01*
X181945583Y-76190000D01*
X181925300Y-75984066D01*
X181865232Y-75786046D01*
X181767685Y-75603550D01*
X181682294Y-75499500D01*
X181636410Y-75443589D01*
X181476452Y-75312317D01*
X181476453Y-75312317D01*
X181476450Y-75312315D01*
X181293954Y-75214768D01*
X181095934Y-75154700D01*
X181095932Y-75154699D01*
X181095934Y-75154699D01*
X180890000Y-75134417D01*
X180684067Y-75154699D01*
X180486043Y-75214769D01*
X180375898Y-75273643D01*
X180303550Y-75312315D01*
X180303548Y-75312316D01*
X180303547Y-75312317D01*
X180143589Y-75443589D01*
X180012317Y-75603547D01*
X180012315Y-75603550D01*
X180004668Y-75617857D01*
X179914769Y-75786043D01*
X179854699Y-75984067D01*
X179834417Y-76190000D01*
X164165583Y-76190000D01*
X164145300Y-75984066D01*
X164085232Y-75786046D01*
X163987685Y-75603550D01*
X163902294Y-75499500D01*
X163856410Y-75443589D01*
X163696452Y-75312317D01*
X163696453Y-75312317D01*
X163696450Y-75312315D01*
X163548732Y-75233357D01*
X163498889Y-75184395D01*
X163483429Y-75116257D01*
X163507261Y-75050578D01*
X163562819Y-75008209D01*
X163607187Y-75000000D01*
X164007828Y-75000000D01*
X164007844Y-74999999D01*
X164067372Y-74993598D01*
X164067379Y-74993596D01*
X164202086Y-74943354D01*
X164202093Y-74943350D01*
X164317187Y-74857190D01*
X164317190Y-74857187D01*
X164403350Y-74742093D01*
X164403354Y-74742086D01*
X164453596Y-74607379D01*
X164453598Y-74607372D01*
X164459999Y-74547844D01*
X164460000Y-74547827D01*
X164460000Y-74519752D01*
X179839500Y-74519752D01*
X179851131Y-74578229D01*
X179851132Y-74578230D01*
X179895447Y-74644552D01*
X179961769Y-74688867D01*
X179961770Y-74688868D01*
X180020247Y-74700499D01*
X180020250Y-74700500D01*
X180020252Y-74700500D01*
X181759750Y-74700500D01*
X181759751Y-74700499D01*
X181774568Y-74697552D01*
X181818229Y-74688868D01*
X181818229Y-74688867D01*
X181818231Y-74688867D01*
X181884552Y-74644552D01*
X181928867Y-74578231D01*
X181928867Y-74578229D01*
X181928868Y-74578229D01*
X181940499Y-74519752D01*
X181940500Y-74519750D01*
X181940500Y-72780249D01*
X181940499Y-72780247D01*
X181928868Y-72721770D01*
X181928867Y-72721769D01*
X181884552Y-72655447D01*
X181818230Y-72611132D01*
X181818229Y-72611131D01*
X181759752Y-72599500D01*
X181759748Y-72599500D01*
X180020252Y-72599500D01*
X180020247Y-72599500D01*
X179961770Y-72611131D01*
X179961769Y-72611132D01*
X179895447Y-72655447D01*
X179851132Y-72721769D01*
X179851131Y-72721770D01*
X179839500Y-72780247D01*
X179839500Y-74519752D01*
X164460000Y-74519752D01*
X164460000Y-73900000D01*
X163554560Y-73900000D01*
X163585245Y-73846853D01*
X163620000Y-73717143D01*
X163620000Y-73582857D01*
X163585245Y-73453147D01*
X163554560Y-73400000D01*
X164460000Y-73400000D01*
X164460000Y-72752172D01*
X164459999Y-72752155D01*
X164453598Y-72692627D01*
X164453596Y-72692620D01*
X164403354Y-72557913D01*
X164403350Y-72557906D01*
X164317190Y-72442812D01*
X164317187Y-72442809D01*
X164202093Y-72356649D01*
X164202086Y-72356645D01*
X164067379Y-72306403D01*
X164067372Y-72306401D01*
X164007844Y-72300000D01*
X163607187Y-72300000D01*
X163540148Y-72280315D01*
X163494393Y-72227511D01*
X163484449Y-72158353D01*
X163513474Y-72094797D01*
X163548733Y-72066642D01*
X163696450Y-71987685D01*
X163856410Y-71856410D01*
X163987685Y-71696450D01*
X164085232Y-71513954D01*
X164145300Y-71315934D01*
X164165583Y-71110000D01*
X179834417Y-71110000D01*
X179854699Y-71315932D01*
X179861035Y-71336819D01*
X179914768Y-71513954D01*
X180012315Y-71696450D01*
X180012317Y-71696452D01*
X180143589Y-71856410D01*
X180240209Y-71935702D01*
X180303550Y-71987685D01*
X180486046Y-72085232D01*
X180684066Y-72145300D01*
X180684065Y-72145300D01*
X180702529Y-72147118D01*
X180890000Y-72165583D01*
X181095934Y-72145300D01*
X181293954Y-72085232D01*
X181476450Y-71987685D01*
X181636410Y-71856410D01*
X181767685Y-71696450D01*
X181865232Y-71513954D01*
X181925300Y-71315934D01*
X181945583Y-71110000D01*
X181925300Y-70904066D01*
X181865232Y-70706046D01*
X181767685Y-70523550D01*
X181715702Y-70460209D01*
X181636410Y-70363589D01*
X181476452Y-70232317D01*
X181476453Y-70232317D01*
X181476450Y-70232315D01*
X181293954Y-70134768D01*
X181095934Y-70074700D01*
X181095932Y-70074699D01*
X181095934Y-70074699D01*
X180890000Y-70054417D01*
X180684067Y-70074699D01*
X180486043Y-70134769D01*
X180375898Y-70193643D01*
X180303550Y-70232315D01*
X180303548Y-70232316D01*
X180303547Y-70232317D01*
X180143589Y-70363589D01*
X180012317Y-70523547D01*
X179914769Y-70706043D01*
X179854699Y-70904067D01*
X179834417Y-71110000D01*
X164165583Y-71110000D01*
X164145300Y-70904066D01*
X164085232Y-70706046D01*
X163987685Y-70523550D01*
X163935702Y-70460209D01*
X163856410Y-70363589D01*
X163696452Y-70232317D01*
X163696453Y-70232317D01*
X163696450Y-70232315D01*
X163513954Y-70134768D01*
X163315934Y-70074700D01*
X163315932Y-70074699D01*
X163315934Y-70074699D01*
X163110000Y-70054417D01*
X162904067Y-70074699D01*
X162706043Y-70134769D01*
X162595898Y-70193643D01*
X162523550Y-70232315D01*
X162523548Y-70232316D01*
X162523547Y-70232317D01*
X162363589Y-70363589D01*
X162232317Y-70523547D01*
X162134769Y-70706043D01*
X162074699Y-70904067D01*
X162054417Y-71110000D01*
X162074699Y-71315932D01*
X162081035Y-71336819D01*
X162134768Y-71513954D01*
X162232315Y-71696450D01*
X162232317Y-71696452D01*
X162363589Y-71856410D01*
X162460209Y-71935702D01*
X162523550Y-71987685D01*
X162671267Y-72066642D01*
X162721111Y-72115605D01*
X162736571Y-72183743D01*
X162712739Y-72249422D01*
X162657181Y-72291791D01*
X162612813Y-72300000D01*
X162212155Y-72300000D01*
X162152627Y-72306401D01*
X162152620Y-72306403D01*
X162017913Y-72356645D01*
X162017906Y-72356649D01*
X161902812Y-72442809D01*
X161902809Y-72442812D01*
X161816649Y-72557906D01*
X161816645Y-72557913D01*
X161766403Y-72692620D01*
X161766401Y-72692627D01*
X161760000Y-72752155D01*
X161760000Y-73400000D01*
X162665440Y-73400000D01*
X162634755Y-73453147D01*
X162600000Y-73582857D01*
X162600000Y-73717143D01*
X162634755Y-73846853D01*
X162665440Y-73900000D01*
X161760000Y-73900000D01*
X161760000Y-74547844D01*
X151472815Y-74547844D01*
X151184512Y-74259541D01*
X151184504Y-74259535D01*
X151115995Y-74219982D01*
X151115990Y-74219979D01*
X151090513Y-74213152D01*
X151039562Y-74199500D01*
X151039560Y-74199500D01*
X121958501Y-74199500D01*
X121891462Y-74179815D01*
X121864788Y-74156703D01*
X121831128Y-74117857D01*
X121710053Y-74040047D01*
X121710051Y-74040046D01*
X121710049Y-74040045D01*
X121710050Y-74040045D01*
X121571963Y-73999500D01*
X121571961Y-73999500D01*
X121428039Y-73999500D01*
X121428036Y-73999500D01*
X121289949Y-74040045D01*
X121168873Y-74117856D01*
X121074623Y-74226626D01*
X121074622Y-74226628D01*
X121014834Y-74357543D01*
X120994353Y-74500000D01*
X100500500Y-74500000D01*
X100500500Y-71500000D01*
X124494353Y-71500000D01*
X124514834Y-71642456D01*
X124539493Y-71696450D01*
X124574623Y-71773373D01*
X124668872Y-71882143D01*
X124789947Y-71959953D01*
X124789950Y-71959954D01*
X124789949Y-71959954D01*
X124928036Y-72000499D01*
X124928038Y-72000500D01*
X124928039Y-72000500D01*
X125071962Y-72000500D01*
X125071962Y-72000499D01*
X125210053Y-71959953D01*
X125331128Y-71882143D01*
X125364788Y-71843296D01*
X125423567Y-71805523D01*
X125458501Y-71800500D01*
X153039560Y-71800500D01*
X153039562Y-71800500D01*
X153115989Y-71780021D01*
X153184511Y-71740460D01*
X153240460Y-71684511D01*
X153588152Y-71336819D01*
X153649475Y-71303334D01*
X153675833Y-71300500D01*
X154628999Y-71300500D01*
X154696038Y-71320185D01*
X154722711Y-71343296D01*
X154756372Y-71382143D01*
X154877447Y-71459953D01*
X154877450Y-71459954D01*
X154877449Y-71459954D01*
X154984607Y-71491417D01*
X155013836Y-71500000D01*
X155015536Y-71500499D01*
X155015538Y-71500500D01*
X155015539Y-71500500D01*
X155159462Y-71500500D01*
X155159462Y-71500499D01*
X155297553Y-71459953D01*
X155418628Y-71382143D01*
X155512877Y-71273373D01*
X155572665Y-71142457D01*
X155593147Y-71000000D01*
X155572665Y-70857543D01*
X155512877Y-70726627D01*
X155418628Y-70617857D01*
X155297553Y-70540047D01*
X155297551Y-70540046D01*
X155297549Y-70540045D01*
X155297550Y-70540045D01*
X155159463Y-70499500D01*
X155159461Y-70499500D01*
X155015539Y-70499500D01*
X155015536Y-70499500D01*
X154877449Y-70540045D01*
X154756373Y-70617856D01*
X154722712Y-70656703D01*
X154663933Y-70694477D01*
X154628999Y-70699500D01*
X153460438Y-70699500D01*
X153384010Y-70719978D01*
X153315489Y-70759540D01*
X153315486Y-70759542D01*
X152911848Y-71163181D01*
X152850525Y-71196666D01*
X152824167Y-71199500D01*
X125458501Y-71199500D01*
X125391462Y-71179815D01*
X125364788Y-71156703D01*
X125331128Y-71117857D01*
X125210053Y-71040047D01*
X125210051Y-71040046D01*
X125210049Y-71040045D01*
X125210050Y-71040045D01*
X125071963Y-70999500D01*
X125071961Y-70999500D01*
X124928039Y-70999500D01*
X124928036Y-70999500D01*
X124789949Y-71040045D01*
X124668873Y-71117856D01*
X124574623Y-71226626D01*
X124574622Y-71226628D01*
X124514834Y-71357543D01*
X124494353Y-71500000D01*
X100500500Y-71500000D01*
X100500500Y-69000000D01*
X122494353Y-69000000D01*
X122514834Y-69142456D01*
X122559591Y-69240458D01*
X122574623Y-69273373D01*
X122668872Y-69382143D01*
X122789947Y-69459953D01*
X122789950Y-69459954D01*
X122789949Y-69459954D01*
X122928036Y-69500499D01*
X122928038Y-69500500D01*
X122928039Y-69500500D01*
X123071962Y-69500500D01*
X123071962Y-69500499D01*
X123210053Y-69459953D01*
X123331128Y-69382143D01*
X123364788Y-69343296D01*
X123423567Y-69305523D01*
X123458501Y-69300500D01*
X153039560Y-69300500D01*
X153039562Y-69300500D01*
X153115989Y-69280021D01*
X153184511Y-69240460D01*
X153240460Y-69184511D01*
X153588152Y-68836819D01*
X153649475Y-68803334D01*
X153675833Y-68800500D01*
X154628999Y-68800500D01*
X154696038Y-68820185D01*
X154722711Y-68843296D01*
X154756372Y-68882143D01*
X154877447Y-68959953D01*
X154877450Y-68959954D01*
X154877449Y-68959954D01*
X154925137Y-68973956D01*
X155013836Y-69000000D01*
X155015536Y-69000499D01*
X155015538Y-69000500D01*
X155015539Y-69000500D01*
X155159462Y-69000500D01*
X155159462Y-69000499D01*
X155297553Y-68959953D01*
X155418628Y-68882143D01*
X155512877Y-68773373D01*
X155572665Y-68642457D01*
X155583083Y-68570000D01*
X162054417Y-68570000D01*
X162074699Y-68775932D01*
X162104734Y-68874944D01*
X162134768Y-68973954D01*
X162232315Y-69156450D01*
X162232317Y-69156452D01*
X162363589Y-69316410D01*
X162443686Y-69382143D01*
X162523550Y-69447685D01*
X162706046Y-69545232D01*
X162904066Y-69605300D01*
X162904065Y-69605300D01*
X162922529Y-69607118D01*
X163110000Y-69625583D01*
X163315934Y-69605300D01*
X163513954Y-69545232D01*
X163696450Y-69447685D01*
X163856410Y-69316410D01*
X163987685Y-69156450D01*
X164085232Y-68973954D01*
X164145300Y-68775934D01*
X164165583Y-68570000D01*
X179834417Y-68570000D01*
X179854699Y-68775932D01*
X179884734Y-68874944D01*
X179914768Y-68973954D01*
X180012315Y-69156450D01*
X180012317Y-69156452D01*
X180143589Y-69316410D01*
X180223686Y-69382143D01*
X180303550Y-69447685D01*
X180486046Y-69545232D01*
X180684066Y-69605300D01*
X180684065Y-69605300D01*
X180702529Y-69607118D01*
X180890000Y-69625583D01*
X181095934Y-69605300D01*
X181293954Y-69545232D01*
X181476450Y-69447685D01*
X181636410Y-69316410D01*
X181767685Y-69156450D01*
X181865232Y-68973954D01*
X181925300Y-68775934D01*
X181945583Y-68570000D01*
X181925300Y-68364066D01*
X181865232Y-68166046D01*
X181767685Y-67983550D01*
X181715702Y-67920209D01*
X181636410Y-67823589D01*
X181476452Y-67692317D01*
X181476453Y-67692317D01*
X181476450Y-67692315D01*
X181293954Y-67594768D01*
X181095934Y-67534700D01*
X181095932Y-67534699D01*
X181095934Y-67534699D01*
X180890000Y-67514417D01*
X180684067Y-67534699D01*
X180486043Y-67594769D01*
X180375898Y-67653643D01*
X180303550Y-67692315D01*
X180303548Y-67692316D01*
X180303547Y-67692317D01*
X180143589Y-67823589D01*
X180012317Y-67983547D01*
X180012315Y-67983550D01*
X179973643Y-68055898D01*
X179914769Y-68166043D01*
X179854699Y-68364067D01*
X179834417Y-68570000D01*
X164165583Y-68570000D01*
X164145300Y-68364066D01*
X164085232Y-68166046D01*
X163987685Y-67983550D01*
X163935702Y-67920209D01*
X163856410Y-67823589D01*
X163696452Y-67692317D01*
X163696453Y-67692317D01*
X163696450Y-67692315D01*
X163513954Y-67594768D01*
X163315934Y-67534700D01*
X163315932Y-67534699D01*
X163315934Y-67534699D01*
X163110000Y-67514417D01*
X162904067Y-67534699D01*
X162706043Y-67594769D01*
X162595898Y-67653643D01*
X162523550Y-67692315D01*
X162523548Y-67692316D01*
X162523547Y-67692317D01*
X162363589Y-67823589D01*
X162232317Y-67983547D01*
X162232315Y-67983550D01*
X162193643Y-68055898D01*
X162134769Y-68166043D01*
X162074699Y-68364067D01*
X162054417Y-68570000D01*
X155583083Y-68570000D01*
X155593147Y-68500000D01*
X155572665Y-68357543D01*
X155512877Y-68226627D01*
X155418628Y-68117857D01*
X155297553Y-68040047D01*
X155297551Y-68040046D01*
X155297549Y-68040045D01*
X155297550Y-68040045D01*
X155159463Y-67999500D01*
X155159461Y-67999500D01*
X155015539Y-67999500D01*
X155015536Y-67999500D01*
X154877449Y-68040045D01*
X154756373Y-68117856D01*
X154722712Y-68156703D01*
X154663933Y-68194477D01*
X154628999Y-68199500D01*
X153460438Y-68199500D01*
X153384010Y-68219978D01*
X153315489Y-68259540D01*
X153315486Y-68259542D01*
X152911848Y-68663181D01*
X152850525Y-68696666D01*
X152824167Y-68699500D01*
X123458501Y-68699500D01*
X123391462Y-68679815D01*
X123364788Y-68656703D01*
X123331128Y-68617857D01*
X123210053Y-68540047D01*
X123210051Y-68540046D01*
X123210049Y-68540045D01*
X123210050Y-68540045D01*
X123071963Y-68499500D01*
X123071961Y-68499500D01*
X122928039Y-68499500D01*
X122928036Y-68499500D01*
X122789949Y-68540045D01*
X122668873Y-68617856D01*
X122574623Y-68726626D01*
X122574622Y-68726628D01*
X122514834Y-68857543D01*
X122494353Y-69000000D01*
X100500500Y-69000000D01*
X100500500Y-65500000D01*
X108494353Y-65500000D01*
X108514834Y-65642456D01*
X108574622Y-65773371D01*
X108574623Y-65773373D01*
X108668872Y-65882143D01*
X108789947Y-65959953D01*
X108789950Y-65959954D01*
X108789949Y-65959954D01*
X108897107Y-65991417D01*
X108926336Y-66000000D01*
X108928036Y-66000499D01*
X108928038Y-66000500D01*
X108928039Y-66000500D01*
X109071962Y-66000500D01*
X109071962Y-66000499D01*
X109210053Y-65959953D01*
X109331128Y-65882143D01*
X109364788Y-65843296D01*
X109423567Y-65805523D01*
X109458501Y-65800500D01*
X117041499Y-65800500D01*
X117108538Y-65820185D01*
X117135211Y-65843296D01*
X117168872Y-65882143D01*
X117289947Y-65959953D01*
X117289950Y-65959954D01*
X117289949Y-65959954D01*
X117397107Y-65991417D01*
X117426336Y-66000000D01*
X117428036Y-66000499D01*
X117428038Y-66000500D01*
X117428039Y-66000500D01*
X117571962Y-66000500D01*
X117571962Y-66000499D01*
X117710053Y-65959953D01*
X117831128Y-65882143D01*
X117864788Y-65843296D01*
X117923567Y-65805523D01*
X117958501Y-65800500D01*
X125244462Y-65800500D01*
X125311501Y-65820185D01*
X125357256Y-65872989D01*
X125367200Y-65942147D01*
X125338175Y-66005703D01*
X125295977Y-66037293D01*
X125289948Y-66040046D01*
X125168873Y-66117856D01*
X125074623Y-66226626D01*
X125074622Y-66226628D01*
X125014834Y-66357543D01*
X124994353Y-66500000D01*
X125014834Y-66642456D01*
X125059591Y-66740458D01*
X125074623Y-66773373D01*
X125168872Y-66882143D01*
X125289947Y-66959953D01*
X125289950Y-66959954D01*
X125289949Y-66959954D01*
X125428036Y-67000499D01*
X125428038Y-67000500D01*
X125428039Y-67000500D01*
X125571962Y-67000500D01*
X125571962Y-67000499D01*
X125710053Y-66959953D01*
X125831128Y-66882143D01*
X125864788Y-66843296D01*
X125923567Y-66805523D01*
X125958501Y-66800500D01*
X152539560Y-66800500D01*
X152539562Y-66800500D01*
X152615989Y-66780021D01*
X152684511Y-66740460D01*
X152740460Y-66684511D01*
X153088152Y-66336819D01*
X153149475Y-66303334D01*
X153175833Y-66300500D01*
X154541499Y-66300500D01*
X154608538Y-66320185D01*
X154635211Y-66343296D01*
X154668872Y-66382143D01*
X154789947Y-66459953D01*
X154789950Y-66459954D01*
X154789949Y-66459954D01*
X154897107Y-66491417D01*
X154926336Y-66500000D01*
X154928036Y-66500499D01*
X154928038Y-66500500D01*
X154928039Y-66500500D01*
X155071962Y-66500500D01*
X155071962Y-66500499D01*
X155210053Y-66459953D01*
X155331128Y-66382143D01*
X155425377Y-66273373D01*
X155485165Y-66142457D01*
X155501334Y-66030000D01*
X162054417Y-66030000D01*
X162074699Y-66235932D01*
X162074700Y-66235934D01*
X162134768Y-66433954D01*
X162232315Y-66616450D01*
X162253658Y-66642457D01*
X162363589Y-66776410D01*
X162460209Y-66855702D01*
X162523550Y-66907685D01*
X162706046Y-67005232D01*
X162904066Y-67065300D01*
X162904065Y-67065300D01*
X162922529Y-67067118D01*
X163110000Y-67085583D01*
X163315934Y-67065300D01*
X163513954Y-67005232D01*
X163696450Y-66907685D01*
X163856410Y-66776410D01*
X163987685Y-66616450D01*
X164085232Y-66433954D01*
X164145300Y-66235934D01*
X164165583Y-66030000D01*
X179834417Y-66030000D01*
X179854699Y-66235932D01*
X179854700Y-66235934D01*
X179914768Y-66433954D01*
X180012315Y-66616450D01*
X180033658Y-66642457D01*
X180143589Y-66776410D01*
X180240209Y-66855702D01*
X180303550Y-66907685D01*
X180486046Y-67005232D01*
X180684066Y-67065300D01*
X180684065Y-67065300D01*
X180702529Y-67067118D01*
X180890000Y-67085583D01*
X181095934Y-67065300D01*
X181293954Y-67005232D01*
X181476450Y-66907685D01*
X181636410Y-66776410D01*
X181767685Y-66616450D01*
X181865232Y-66433954D01*
X181925300Y-66235934D01*
X181945583Y-66030000D01*
X181925300Y-65824066D01*
X181865232Y-65626046D01*
X181767685Y-65443550D01*
X181697101Y-65357543D01*
X181636410Y-65283589D01*
X181489690Y-65163181D01*
X181476450Y-65152315D01*
X181293954Y-65054768D01*
X181095934Y-64994700D01*
X181095932Y-64994699D01*
X181095934Y-64994699D01*
X180890000Y-64974417D01*
X180684067Y-64994699D01*
X180486043Y-65054769D01*
X180375898Y-65113643D01*
X180303550Y-65152315D01*
X180303548Y-65152316D01*
X180303547Y-65152317D01*
X180143589Y-65283589D01*
X180012317Y-65443547D01*
X179914769Y-65626043D01*
X179854699Y-65824067D01*
X179834417Y-66030000D01*
X164165583Y-66030000D01*
X164145300Y-65824066D01*
X164085232Y-65626046D01*
X163987685Y-65443550D01*
X163917101Y-65357543D01*
X163856410Y-65283589D01*
X163709690Y-65163181D01*
X163696450Y-65152315D01*
X163513954Y-65054768D01*
X163315934Y-64994700D01*
X163315932Y-64994699D01*
X163315934Y-64994699D01*
X163110000Y-64974417D01*
X162904067Y-64994699D01*
X162706043Y-65054769D01*
X162595898Y-65113643D01*
X162523550Y-65152315D01*
X162523548Y-65152316D01*
X162523547Y-65152317D01*
X162363589Y-65283589D01*
X162232317Y-65443547D01*
X162134769Y-65626043D01*
X162074699Y-65824067D01*
X162054417Y-66030000D01*
X155501334Y-66030000D01*
X155505647Y-66000000D01*
X155485165Y-65857543D01*
X155425377Y-65726627D01*
X155331128Y-65617857D01*
X155210053Y-65540047D01*
X155210051Y-65540046D01*
X155210049Y-65540045D01*
X155210050Y-65540045D01*
X155071963Y-65499500D01*
X155071961Y-65499500D01*
X154928039Y-65499500D01*
X154928036Y-65499500D01*
X154789949Y-65540045D01*
X154668873Y-65617856D01*
X154635212Y-65656703D01*
X154576433Y-65694477D01*
X154541499Y-65699500D01*
X152960438Y-65699500D01*
X152884010Y-65719978D01*
X152815489Y-65759540D01*
X152815486Y-65759542D01*
X152411848Y-66163181D01*
X152350525Y-66196666D01*
X152324167Y-66199500D01*
X126355538Y-66199500D01*
X126288499Y-66179815D01*
X126242744Y-66127011D01*
X126232800Y-66057853D01*
X126261825Y-65994297D01*
X126304023Y-65962707D01*
X126310047Y-65959954D01*
X126310053Y-65959953D01*
X126431128Y-65882143D01*
X126464788Y-65843296D01*
X126523567Y-65805523D01*
X126558501Y-65800500D01*
X151039560Y-65800500D01*
X151039562Y-65800500D01*
X151115989Y-65780021D01*
X151184511Y-65740460D01*
X151240460Y-65684511D01*
X153088152Y-63836819D01*
X153149475Y-63803334D01*
X153175833Y-63800500D01*
X154628999Y-63800500D01*
X154696038Y-63820185D01*
X154722711Y-63843296D01*
X154756372Y-63882143D01*
X154877447Y-63959953D01*
X154877450Y-63959954D01*
X154877449Y-63959954D01*
X154984607Y-63991417D01*
X155013836Y-64000000D01*
X155015536Y-64000499D01*
X155015538Y-64000500D01*
X155015539Y-64000500D01*
X155159462Y-64000500D01*
X155159462Y-64000499D01*
X155297553Y-63959953D01*
X155418628Y-63882143D01*
X155512877Y-63773373D01*
X155572665Y-63642457D01*
X155593147Y-63500000D01*
X155572665Y-63357543D01*
X155512877Y-63226627D01*
X155418628Y-63117857D01*
X155297553Y-63040047D01*
X155297551Y-63040046D01*
X155297549Y-63040045D01*
X155297550Y-63040045D01*
X155159463Y-62999500D01*
X155159461Y-62999500D01*
X155015539Y-62999500D01*
X155015536Y-62999500D01*
X154877449Y-63040045D01*
X154756373Y-63117856D01*
X154722712Y-63156703D01*
X154663933Y-63194477D01*
X154628999Y-63199500D01*
X152960438Y-63199500D01*
X152922224Y-63209739D01*
X152884009Y-63219979D01*
X152884004Y-63219982D01*
X152815495Y-63259535D01*
X152815487Y-63259541D01*
X150911848Y-65163181D01*
X150850525Y-65196666D01*
X150824167Y-65199500D01*
X126558501Y-65199500D01*
X126491462Y-65179815D01*
X126464788Y-65156703D01*
X126431128Y-65117857D01*
X126310053Y-65040047D01*
X126310051Y-65040046D01*
X126310049Y-65040045D01*
X126310050Y-65040045D01*
X126171963Y-64999500D01*
X126171961Y-64999500D01*
X126028039Y-64999500D01*
X126028036Y-64999500D01*
X125889949Y-65040045D01*
X125768873Y-65117856D01*
X125735212Y-65156703D01*
X125676433Y-65194477D01*
X125641499Y-65199500D01*
X118524833Y-65199500D01*
X118457794Y-65179815D01*
X118412039Y-65127011D01*
X118402095Y-65057853D01*
X118431120Y-64994297D01*
X118437152Y-64987819D01*
X119424971Y-64000000D01*
X120494353Y-64000000D01*
X120514834Y-64142456D01*
X120556354Y-64233371D01*
X120574623Y-64273373D01*
X120668872Y-64382143D01*
X120789947Y-64459953D01*
X120789950Y-64459954D01*
X120789949Y-64459954D01*
X120928036Y-64500499D01*
X120928038Y-64500500D01*
X120928039Y-64500500D01*
X121071962Y-64500500D01*
X121071962Y-64500499D01*
X121208190Y-64460500D01*
X121210050Y-64459954D01*
X121210050Y-64459953D01*
X121210053Y-64459953D01*
X121331128Y-64382143D01*
X121364788Y-64343296D01*
X121423567Y-64305523D01*
X121458501Y-64300500D01*
X121539560Y-64300500D01*
X121539562Y-64300500D01*
X121615989Y-64280021D01*
X121684511Y-64240460D01*
X121740460Y-64184511D01*
X124077126Y-61847844D01*
X161760000Y-61847844D01*
X161766401Y-61907372D01*
X161766403Y-61907379D01*
X161816645Y-62042086D01*
X161816649Y-62042093D01*
X161902809Y-62157187D01*
X161902812Y-62157190D01*
X162017906Y-62243350D01*
X162017913Y-62243354D01*
X162152620Y-62293596D01*
X162152627Y-62293598D01*
X162212155Y-62299999D01*
X162212172Y-62300000D01*
X162612813Y-62300000D01*
X162679852Y-62319685D01*
X162725607Y-62372489D01*
X162735551Y-62441647D01*
X162706526Y-62505203D01*
X162671267Y-62533357D01*
X162523550Y-62612315D01*
X162523548Y-62612316D01*
X162523547Y-62612317D01*
X162363589Y-62743589D01*
X162232317Y-62903547D01*
X162134769Y-63086043D01*
X162074699Y-63284067D01*
X162054417Y-63490000D01*
X162074699Y-63695932D01*
X162084011Y-63726628D01*
X162134768Y-63893954D01*
X162232315Y-64076450D01*
X162253658Y-64102457D01*
X162363589Y-64236410D01*
X162447805Y-64305523D01*
X162523550Y-64367685D01*
X162706046Y-64465232D01*
X162904066Y-64525300D01*
X162904065Y-64525300D01*
X162922529Y-64527118D01*
X163110000Y-64545583D01*
X163315934Y-64525300D01*
X163513954Y-64465232D01*
X163696450Y-64367685D01*
X163856410Y-64236410D01*
X163987685Y-64076450D01*
X164085232Y-63893954D01*
X164145300Y-63695934D01*
X164165583Y-63490000D01*
X164145300Y-63284066D01*
X164085232Y-63086046D01*
X163987685Y-62903550D01*
X163935702Y-62840209D01*
X163856410Y-62743589D01*
X163738677Y-62646969D01*
X163696450Y-62612315D01*
X163548732Y-62533357D01*
X163498889Y-62484395D01*
X163483429Y-62416257D01*
X163507261Y-62350578D01*
X163562819Y-62308209D01*
X163607187Y-62300000D01*
X164007828Y-62300000D01*
X164007844Y-62299999D01*
X164067372Y-62293598D01*
X164067379Y-62293596D01*
X164202086Y-62243354D01*
X164202093Y-62243350D01*
X164317187Y-62157190D01*
X164317190Y-62157187D01*
X164403350Y-62042093D01*
X164403354Y-62042086D01*
X164453596Y-61907379D01*
X164453598Y-61907372D01*
X164459999Y-61847844D01*
X179540000Y-61847844D01*
X179546401Y-61907372D01*
X179546403Y-61907379D01*
X179596645Y-62042086D01*
X179596649Y-62042093D01*
X179682809Y-62157187D01*
X179682812Y-62157190D01*
X179797906Y-62243350D01*
X179797913Y-62243354D01*
X179932620Y-62293596D01*
X179932627Y-62293598D01*
X179992155Y-62299999D01*
X179992172Y-62300000D01*
X180392813Y-62300000D01*
X180459852Y-62319685D01*
X180505607Y-62372489D01*
X180515551Y-62441647D01*
X180486526Y-62505203D01*
X180451267Y-62533357D01*
X180303550Y-62612315D01*
X180303548Y-62612316D01*
X180303547Y-62612317D01*
X180143589Y-62743589D01*
X180012317Y-62903547D01*
X179914769Y-63086043D01*
X179854699Y-63284067D01*
X179834417Y-63490000D01*
X179854699Y-63695932D01*
X179864011Y-63726628D01*
X179914768Y-63893954D01*
X180012315Y-64076450D01*
X180033658Y-64102457D01*
X180143589Y-64236410D01*
X180227805Y-64305523D01*
X180303550Y-64367685D01*
X180486046Y-64465232D01*
X180684066Y-64525300D01*
X180684065Y-64525300D01*
X180702529Y-64527118D01*
X180890000Y-64545583D01*
X181095934Y-64525300D01*
X181293954Y-64465232D01*
X181476450Y-64367685D01*
X181636410Y-64236410D01*
X181767685Y-64076450D01*
X181865232Y-63893954D01*
X181925300Y-63695934D01*
X181945583Y-63490000D01*
X181925300Y-63284066D01*
X181865232Y-63086046D01*
X181767685Y-62903550D01*
X181715702Y-62840209D01*
X181636410Y-62743589D01*
X181518677Y-62646969D01*
X181476450Y-62612315D01*
X181328732Y-62533357D01*
X181278889Y-62484395D01*
X181263429Y-62416257D01*
X181287261Y-62350578D01*
X181342819Y-62308209D01*
X181387187Y-62300000D01*
X181787828Y-62300000D01*
X181787844Y-62299999D01*
X181847372Y-62293598D01*
X181847379Y-62293596D01*
X181982086Y-62243354D01*
X181982093Y-62243350D01*
X182097187Y-62157190D01*
X182097190Y-62157187D01*
X182183350Y-62042093D01*
X182183354Y-62042086D01*
X182233596Y-61907379D01*
X182233598Y-61907372D01*
X182239999Y-61847844D01*
X182240000Y-61847827D01*
X182240000Y-61200000D01*
X181334560Y-61200000D01*
X181365245Y-61146853D01*
X181400000Y-61017143D01*
X181400000Y-60882857D01*
X181365245Y-60753147D01*
X181334560Y-60700000D01*
X182240000Y-60700000D01*
X182240000Y-60052172D01*
X182239999Y-60052155D01*
X182233598Y-59992627D01*
X182233596Y-59992620D01*
X182183354Y-59857913D01*
X182183350Y-59857906D01*
X182097190Y-59742812D01*
X182097187Y-59742809D01*
X181982093Y-59656649D01*
X181982086Y-59656645D01*
X181847379Y-59606403D01*
X181847372Y-59606401D01*
X181787844Y-59600000D01*
X181387187Y-59600000D01*
X181320148Y-59580315D01*
X181274393Y-59527511D01*
X181264449Y-59458353D01*
X181293474Y-59394797D01*
X181328733Y-59366642D01*
X181476450Y-59287685D01*
X181636410Y-59156410D01*
X181767685Y-58996450D01*
X181865232Y-58813954D01*
X181925300Y-58615934D01*
X181945583Y-58410000D01*
X181925300Y-58204066D01*
X181865232Y-58006046D01*
X181767685Y-57823550D01*
X181715702Y-57760209D01*
X181636410Y-57663589D01*
X181476452Y-57532317D01*
X181476453Y-57532317D01*
X181476450Y-57532315D01*
X181293954Y-57434768D01*
X181095934Y-57374700D01*
X181095932Y-57374699D01*
X181095934Y-57374699D01*
X180890000Y-57354417D01*
X180684067Y-57374699D01*
X180486043Y-57434769D01*
X180375898Y-57493643D01*
X180303550Y-57532315D01*
X180303548Y-57532316D01*
X180303547Y-57532317D01*
X180143589Y-57663589D01*
X180012317Y-57823547D01*
X179914769Y-58006043D01*
X179854699Y-58204067D01*
X179834417Y-58410000D01*
X179854699Y-58615932D01*
X179884734Y-58714944D01*
X179914768Y-58813954D01*
X180012315Y-58996450D01*
X180012317Y-58996452D01*
X180143589Y-59156410D01*
X180240209Y-59235702D01*
X180303550Y-59287685D01*
X180451267Y-59366642D01*
X180501111Y-59415605D01*
X180516571Y-59483743D01*
X180492739Y-59549422D01*
X180437181Y-59591791D01*
X180392813Y-59600000D01*
X179992155Y-59600000D01*
X179932627Y-59606401D01*
X179932620Y-59606403D01*
X179797913Y-59656645D01*
X179797906Y-59656649D01*
X179682812Y-59742809D01*
X179682809Y-59742812D01*
X179596649Y-59857906D01*
X179596645Y-59857913D01*
X179546403Y-59992620D01*
X179546401Y-59992627D01*
X179540000Y-60052155D01*
X179540000Y-60700000D01*
X180445440Y-60700000D01*
X180414755Y-60753147D01*
X180380000Y-60882857D01*
X180380000Y-61017143D01*
X180414755Y-61146853D01*
X180445440Y-61200000D01*
X179540000Y-61200000D01*
X179540000Y-61847844D01*
X164459999Y-61847844D01*
X164460000Y-61847827D01*
X164460000Y-61200000D01*
X163554560Y-61200000D01*
X163585245Y-61146853D01*
X163620000Y-61017143D01*
X163620000Y-60882857D01*
X163585245Y-60753147D01*
X163554560Y-60700000D01*
X164460000Y-60700000D01*
X164460000Y-60052172D01*
X164459999Y-60052155D01*
X164453598Y-59992627D01*
X164453596Y-59992620D01*
X164403354Y-59857913D01*
X164403350Y-59857906D01*
X164317190Y-59742812D01*
X164317187Y-59742809D01*
X164202093Y-59656649D01*
X164202086Y-59656645D01*
X164067379Y-59606403D01*
X164067372Y-59606401D01*
X164007844Y-59600000D01*
X163607187Y-59600000D01*
X163540148Y-59580315D01*
X163494393Y-59527511D01*
X163484449Y-59458353D01*
X163513474Y-59394797D01*
X163548733Y-59366642D01*
X163696450Y-59287685D01*
X163856410Y-59156410D01*
X163879280Y-59128543D01*
X168574499Y-59128543D01*
X168612947Y-59321829D01*
X168612950Y-59321839D01*
X168688364Y-59503907D01*
X168688371Y-59503920D01*
X168797860Y-59667781D01*
X168797863Y-59667785D01*
X168937214Y-59807136D01*
X168937218Y-59807139D01*
X169101079Y-59916628D01*
X169101092Y-59916635D01*
X169283160Y-59992049D01*
X169283165Y-59992051D01*
X169283169Y-59992051D01*
X169283170Y-59992052D01*
X169476456Y-60030500D01*
X169476459Y-60030500D01*
X169673543Y-60030500D01*
X169803582Y-60004632D01*
X169866835Y-59992051D01*
X170048914Y-59916632D01*
X170212782Y-59807139D01*
X170352139Y-59667782D01*
X170461632Y-59503914D01*
X170537051Y-59321835D01*
X170549632Y-59258582D01*
X170575500Y-59128543D01*
X173424499Y-59128543D01*
X173462947Y-59321829D01*
X173462950Y-59321839D01*
X173538364Y-59503907D01*
X173538371Y-59503920D01*
X173647860Y-59667781D01*
X173647863Y-59667785D01*
X173787214Y-59807136D01*
X173787218Y-59807139D01*
X173951079Y-59916628D01*
X173951092Y-59916635D01*
X174133160Y-59992049D01*
X174133165Y-59992051D01*
X174133169Y-59992051D01*
X174133170Y-59992052D01*
X174326456Y-60030500D01*
X174326459Y-60030500D01*
X174523543Y-60030500D01*
X174653582Y-60004632D01*
X174716835Y-59992051D01*
X174898914Y-59916632D01*
X175062782Y-59807139D01*
X175202139Y-59667782D01*
X175311632Y-59503914D01*
X175387051Y-59321835D01*
X175399632Y-59258582D01*
X175425500Y-59128543D01*
X175425500Y-58931456D01*
X175387052Y-58738170D01*
X175387051Y-58738169D01*
X175387051Y-58738165D01*
X175347408Y-58642457D01*
X175311635Y-58556092D01*
X175311628Y-58556079D01*
X175202139Y-58392218D01*
X175202136Y-58392214D01*
X175062785Y-58252863D01*
X175062781Y-58252860D01*
X174898920Y-58143371D01*
X174898907Y-58143364D01*
X174716839Y-58067950D01*
X174716829Y-58067947D01*
X174523543Y-58029500D01*
X174523541Y-58029500D01*
X174326459Y-58029500D01*
X174326457Y-58029500D01*
X174133170Y-58067947D01*
X174133160Y-58067950D01*
X173951092Y-58143364D01*
X173951079Y-58143371D01*
X173787218Y-58252860D01*
X173787214Y-58252863D01*
X173647863Y-58392214D01*
X173647860Y-58392218D01*
X173538371Y-58556079D01*
X173538364Y-58556092D01*
X173462950Y-58738160D01*
X173462947Y-58738170D01*
X173424500Y-58931456D01*
X173424500Y-58931459D01*
X173424500Y-59128541D01*
X173424500Y-59128543D01*
X173424499Y-59128543D01*
X170575500Y-59128543D01*
X170575500Y-58931456D01*
X170537052Y-58738170D01*
X170537051Y-58738169D01*
X170537051Y-58738165D01*
X170497408Y-58642457D01*
X170461635Y-58556092D01*
X170461628Y-58556079D01*
X170352139Y-58392218D01*
X170352136Y-58392214D01*
X170212785Y-58252863D01*
X170212781Y-58252860D01*
X170048920Y-58143371D01*
X170048907Y-58143364D01*
X169866839Y-58067950D01*
X169866829Y-58067947D01*
X169673543Y-58029500D01*
X169673541Y-58029500D01*
X169476459Y-58029500D01*
X169476457Y-58029500D01*
X169283170Y-58067947D01*
X169283160Y-58067950D01*
X169101092Y-58143364D01*
X169101079Y-58143371D01*
X168937218Y-58252860D01*
X168937214Y-58252863D01*
X168797863Y-58392214D01*
X168797860Y-58392218D01*
X168688371Y-58556079D01*
X168688364Y-58556092D01*
X168612950Y-58738160D01*
X168612947Y-58738170D01*
X168574500Y-58931456D01*
X168574500Y-58931459D01*
X168574500Y-59128541D01*
X168574500Y-59128543D01*
X168574499Y-59128543D01*
X163879280Y-59128543D01*
X163987685Y-58996450D01*
X164085232Y-58813954D01*
X164145300Y-58615934D01*
X164165583Y-58410000D01*
X164145300Y-58204066D01*
X164085232Y-58006046D01*
X163987685Y-57823550D01*
X163935702Y-57760209D01*
X163856410Y-57663589D01*
X163696452Y-57532317D01*
X163696453Y-57532317D01*
X163696450Y-57532315D01*
X163513954Y-57434768D01*
X163315934Y-57374700D01*
X163315932Y-57374699D01*
X163315934Y-57374699D01*
X163110000Y-57354417D01*
X162904067Y-57374699D01*
X162706043Y-57434769D01*
X162595898Y-57493643D01*
X162523550Y-57532315D01*
X162523548Y-57532316D01*
X162523547Y-57532317D01*
X162363589Y-57663589D01*
X162232317Y-57823547D01*
X162134769Y-58006043D01*
X162074699Y-58204067D01*
X162054417Y-58410000D01*
X162074699Y-58615932D01*
X162104734Y-58714944D01*
X162134768Y-58813954D01*
X162232315Y-58996450D01*
X162232317Y-58996452D01*
X162363589Y-59156410D01*
X162460209Y-59235702D01*
X162523550Y-59287685D01*
X162671267Y-59366642D01*
X162721111Y-59415605D01*
X162736571Y-59483743D01*
X162712739Y-59549422D01*
X162657181Y-59591791D01*
X162612813Y-59600000D01*
X162212155Y-59600000D01*
X162152627Y-59606401D01*
X162152620Y-59606403D01*
X162017913Y-59656645D01*
X162017906Y-59656649D01*
X161902812Y-59742809D01*
X161902809Y-59742812D01*
X161816649Y-59857906D01*
X161816645Y-59857913D01*
X161766403Y-59992620D01*
X161766401Y-59992627D01*
X161760000Y-60052155D01*
X161760000Y-60700000D01*
X162665440Y-60700000D01*
X162634755Y-60753147D01*
X162600000Y-60882857D01*
X162600000Y-61017143D01*
X162634755Y-61146853D01*
X162665440Y-61200000D01*
X161760000Y-61200000D01*
X161760000Y-61847844D01*
X124077126Y-61847844D01*
X124888151Y-61036818D01*
X124949474Y-61003334D01*
X124975832Y-61000500D01*
X125071962Y-61000500D01*
X125071962Y-61000499D01*
X125179121Y-60969035D01*
X125210050Y-60959954D01*
X125210050Y-60959953D01*
X125210053Y-60959953D01*
X125331128Y-60882143D01*
X125425377Y-60773373D01*
X125485165Y-60642457D01*
X125505647Y-60500000D01*
X125485165Y-60357543D01*
X125425377Y-60226627D01*
X125331128Y-60117857D01*
X125210053Y-60040047D01*
X125210051Y-60040046D01*
X125210049Y-60040045D01*
X125210050Y-60040045D01*
X125071963Y-59999500D01*
X125071961Y-59999500D01*
X124928039Y-59999500D01*
X124928036Y-59999500D01*
X124789949Y-60040045D01*
X124668873Y-60117856D01*
X124574623Y-60226626D01*
X124574622Y-60226628D01*
X124514834Y-60357543D01*
X124494353Y-60500000D01*
X124494353Y-60500001D01*
X124495661Y-60509103D01*
X124485713Y-60578261D01*
X124460603Y-60614424D01*
X121478517Y-63596510D01*
X121417194Y-63629995D01*
X121347502Y-63625011D01*
X121323797Y-63613145D01*
X121210050Y-63540045D01*
X121071963Y-63499500D01*
X121071961Y-63499500D01*
X120928039Y-63499500D01*
X120928036Y-63499500D01*
X120789949Y-63540045D01*
X120668873Y-63617856D01*
X120574623Y-63726626D01*
X120574622Y-63726628D01*
X120514834Y-63857543D01*
X120494353Y-64000000D01*
X119424971Y-64000000D01*
X119588152Y-63836819D01*
X120740460Y-62684511D01*
X120780022Y-62615988D01*
X120800500Y-62539562D01*
X120800500Y-62460438D01*
X120800500Y-60963738D01*
X120820185Y-60896699D01*
X120830787Y-60882535D01*
X120831124Y-60882144D01*
X120831128Y-60882143D01*
X120925377Y-60773373D01*
X120985165Y-60642457D01*
X121005647Y-60500000D01*
X120985165Y-60357543D01*
X120925377Y-60226627D01*
X120831128Y-60117857D01*
X120710053Y-60040047D01*
X120710051Y-60040046D01*
X120710049Y-60040045D01*
X120710050Y-60040045D01*
X120571963Y-59999500D01*
X120571961Y-59999500D01*
X120428039Y-59999500D01*
X120428036Y-59999500D01*
X120289949Y-60040045D01*
X120168873Y-60117856D01*
X120074623Y-60226626D01*
X120074622Y-60226628D01*
X120014834Y-60357543D01*
X119994353Y-60500000D01*
X120014834Y-60642456D01*
X120041114Y-60700000D01*
X120074623Y-60773373D01*
X120168872Y-60882143D01*
X120168875Y-60882144D01*
X120169213Y-60882535D01*
X120198238Y-60946091D01*
X120199500Y-60963738D01*
X120199500Y-62324166D01*
X120179815Y-62391205D01*
X120163181Y-62411847D01*
X117611847Y-64963181D01*
X117550524Y-64996666D01*
X117524166Y-64999500D01*
X117428036Y-64999500D01*
X117289949Y-65040045D01*
X117168873Y-65117856D01*
X117135212Y-65156703D01*
X117076433Y-65194477D01*
X117041499Y-65199500D01*
X109458501Y-65199500D01*
X109391462Y-65179815D01*
X109364788Y-65156703D01*
X109331128Y-65117857D01*
X109210053Y-65040047D01*
X109210051Y-65040046D01*
X109210049Y-65040045D01*
X109210050Y-65040045D01*
X109071963Y-64999500D01*
X109071961Y-64999500D01*
X108928039Y-64999500D01*
X108928036Y-64999500D01*
X108789949Y-65040045D01*
X108668873Y-65117856D01*
X108574623Y-65226626D01*
X108574622Y-65226628D01*
X108514834Y-65357543D01*
X108494353Y-65500000D01*
X100500500Y-65500000D01*
X100500500Y-63960000D01*
X105954353Y-63960000D01*
X105974834Y-64102456D01*
X106012308Y-64184511D01*
X106034623Y-64233373D01*
X106128872Y-64342143D01*
X106249947Y-64419953D01*
X106249950Y-64419954D01*
X106249949Y-64419954D01*
X106357107Y-64451417D01*
X106386179Y-64459954D01*
X106388036Y-64460499D01*
X106388038Y-64460500D01*
X106388039Y-64460500D01*
X106531962Y-64460500D01*
X106531962Y-64460499D01*
X106670053Y-64419953D01*
X106791128Y-64342143D01*
X106824788Y-64303296D01*
X106883567Y-64265523D01*
X106918501Y-64260500D01*
X115506839Y-64260500D01*
X115573878Y-64280185D01*
X115600552Y-64303297D01*
X115668872Y-64382143D01*
X115789947Y-64459953D01*
X115789950Y-64459954D01*
X115789949Y-64459954D01*
X115928036Y-64500499D01*
X115928038Y-64500500D01*
X115928039Y-64500500D01*
X116071962Y-64500500D01*
X116071962Y-64500499D01*
X116208190Y-64460500D01*
X116210050Y-64459954D01*
X116210050Y-64459953D01*
X116210053Y-64459953D01*
X116331128Y-64382143D01*
X116425377Y-64273373D01*
X116485165Y-64142457D01*
X116505647Y-64000000D01*
X116485165Y-63857543D01*
X116425377Y-63726627D01*
X116425375Y-63726625D01*
X116425374Y-63726622D01*
X116331129Y-63617858D01*
X116331128Y-63617857D01*
X116323796Y-63613145D01*
X116317458Y-63609071D01*
X116271704Y-63556265D01*
X116260500Y-63504757D01*
X116260500Y-61995241D01*
X116280185Y-61928202D01*
X116317463Y-61890924D01*
X116331128Y-61882143D01*
X116425377Y-61773373D01*
X116485165Y-61642457D01*
X116505647Y-61500000D01*
X116485165Y-61357543D01*
X116425377Y-61226627D01*
X116331128Y-61117857D01*
X116210053Y-61040047D01*
X116210051Y-61040046D01*
X116210049Y-61040045D01*
X116210050Y-61040045D01*
X116071963Y-60999500D01*
X116071961Y-60999500D01*
X115928039Y-60999500D01*
X115928036Y-60999500D01*
X115789949Y-61040045D01*
X115668873Y-61117856D01*
X115574623Y-61226626D01*
X115574622Y-61226628D01*
X115514834Y-61357543D01*
X115494353Y-61500000D01*
X115514834Y-61642456D01*
X115574622Y-61773371D01*
X115574625Y-61773377D01*
X115629212Y-61836372D01*
X115658238Y-61899927D01*
X115659500Y-61917575D01*
X115659500Y-63535500D01*
X115639815Y-63602539D01*
X115587011Y-63648294D01*
X115535500Y-63659500D01*
X106918501Y-63659500D01*
X106851462Y-63639815D01*
X106824788Y-63616703D01*
X106812515Y-63602539D01*
X106791128Y-63577857D01*
X106670053Y-63500047D01*
X106670051Y-63500046D01*
X106670049Y-63500045D01*
X106670050Y-63500045D01*
X106531963Y-63459500D01*
X106531961Y-63459500D01*
X106388039Y-63459500D01*
X106388036Y-63459500D01*
X106249949Y-63500045D01*
X106128873Y-63577856D01*
X106034623Y-63686626D01*
X106034622Y-63686628D01*
X105974834Y-63817543D01*
X105954353Y-63960000D01*
X100500500Y-63960000D01*
X100500500Y-58500000D01*
X127931853Y-58500000D01*
X127952334Y-58642456D01*
X127996044Y-58738165D01*
X128012123Y-58773373D01*
X128106372Y-58882143D01*
X128227447Y-58959953D01*
X128227450Y-58959954D01*
X128227449Y-58959954D01*
X128365536Y-59000499D01*
X128365538Y-59000500D01*
X128365539Y-59000500D01*
X128509462Y-59000500D01*
X128509462Y-59000499D01*
X128647553Y-58959953D01*
X128768628Y-58882143D01*
X128802288Y-58843296D01*
X128861067Y-58805523D01*
X128896001Y-58800500D01*
X154628999Y-58800500D01*
X154696038Y-58820185D01*
X154722711Y-58843296D01*
X154756372Y-58882143D01*
X154877447Y-58959953D01*
X154877450Y-58959954D01*
X154877449Y-58959954D01*
X155015536Y-59000499D01*
X155015538Y-59000500D01*
X155015539Y-59000500D01*
X155159462Y-59000500D01*
X155159462Y-59000499D01*
X155297553Y-58959953D01*
X155418628Y-58882143D01*
X155512877Y-58773373D01*
X155572665Y-58642457D01*
X155593147Y-58500000D01*
X155572665Y-58357543D01*
X155512877Y-58226627D01*
X155418628Y-58117857D01*
X155297553Y-58040047D01*
X155297551Y-58040046D01*
X155297549Y-58040045D01*
X155297550Y-58040045D01*
X155159463Y-57999500D01*
X155159461Y-57999500D01*
X155015539Y-57999500D01*
X155015536Y-57999500D01*
X154877449Y-58040045D01*
X154756373Y-58117856D01*
X154722712Y-58156703D01*
X154663933Y-58194477D01*
X154628999Y-58199500D01*
X128896001Y-58199500D01*
X128828962Y-58179815D01*
X128802288Y-58156703D01*
X128768628Y-58117857D01*
X128647553Y-58040047D01*
X128647551Y-58040046D01*
X128647549Y-58040045D01*
X128647550Y-58040045D01*
X128509463Y-57999500D01*
X128509461Y-57999500D01*
X128365539Y-57999500D01*
X128365536Y-57999500D01*
X128227449Y-58040045D01*
X128106373Y-58117856D01*
X128012123Y-58226626D01*
X128012122Y-58226628D01*
X127952334Y-58357543D01*
X127931853Y-58500000D01*
X100500500Y-58500000D01*
X100500500Y-56000000D01*
X125994353Y-56000000D01*
X126014834Y-56142456D01*
X126072813Y-56269409D01*
X126074623Y-56273373D01*
X126168872Y-56382143D01*
X126289947Y-56459953D01*
X126289950Y-56459954D01*
X126289949Y-56459954D01*
X126428036Y-56500499D01*
X126428038Y-56500500D01*
X126428039Y-56500500D01*
X126571962Y-56500500D01*
X126571962Y-56500499D01*
X126710053Y-56459953D01*
X126831128Y-56382143D01*
X126864788Y-56343296D01*
X126923567Y-56305523D01*
X126958501Y-56300500D01*
X154628999Y-56300500D01*
X154696038Y-56320185D01*
X154722711Y-56343296D01*
X154756372Y-56382143D01*
X154877447Y-56459953D01*
X154877450Y-56459954D01*
X154877449Y-56459954D01*
X155015536Y-56500499D01*
X155015538Y-56500500D01*
X155015539Y-56500500D01*
X155159462Y-56500500D01*
X155159462Y-56500499D01*
X155297553Y-56459953D01*
X155418628Y-56382143D01*
X155512877Y-56273373D01*
X155572665Y-56142457D01*
X155593147Y-56000000D01*
X155574456Y-55870000D01*
X162054417Y-55870000D01*
X162074699Y-56075932D01*
X162074700Y-56075934D01*
X162134768Y-56273954D01*
X162232315Y-56456450D01*
X162232317Y-56456452D01*
X162363589Y-56616410D01*
X162460209Y-56695702D01*
X162523550Y-56747685D01*
X162706046Y-56845232D01*
X162904066Y-56905300D01*
X162904065Y-56905300D01*
X162922529Y-56907118D01*
X163110000Y-56925583D01*
X163315934Y-56905300D01*
X163513954Y-56845232D01*
X163696450Y-56747685D01*
X163856410Y-56616410D01*
X163987685Y-56456450D01*
X164085232Y-56273954D01*
X164140866Y-56090551D01*
X168124500Y-56090551D01*
X168152829Y-56269410D01*
X168208787Y-56441636D01*
X168208788Y-56441639D01*
X168291006Y-56602997D01*
X168397441Y-56749494D01*
X168397445Y-56749499D01*
X168525500Y-56877554D01*
X168525505Y-56877558D01*
X168591607Y-56925583D01*
X168672006Y-56983996D01*
X168777484Y-57037740D01*
X168833360Y-57066211D01*
X168833363Y-57066212D01*
X168919476Y-57094191D01*
X169005591Y-57122171D01*
X169088429Y-57135291D01*
X169184449Y-57150500D01*
X169184454Y-57150500D01*
X169365551Y-57150500D01*
X169452259Y-57136765D01*
X169544409Y-57122171D01*
X169716639Y-57066211D01*
X169877994Y-56983996D01*
X170024501Y-56877553D01*
X170152553Y-56749501D01*
X170258996Y-56602994D01*
X170341211Y-56441639D01*
X170397171Y-56269409D01*
X170417278Y-56142457D01*
X170425500Y-56090551D01*
X173574500Y-56090551D01*
X173602829Y-56269410D01*
X173658787Y-56441636D01*
X173658788Y-56441639D01*
X173741006Y-56602997D01*
X173847441Y-56749494D01*
X173847445Y-56749499D01*
X173975500Y-56877554D01*
X173975505Y-56877558D01*
X174041607Y-56925583D01*
X174122006Y-56983996D01*
X174227484Y-57037740D01*
X174283360Y-57066211D01*
X174283363Y-57066212D01*
X174369476Y-57094191D01*
X174455591Y-57122171D01*
X174538429Y-57135291D01*
X174634449Y-57150500D01*
X174634454Y-57150500D01*
X174815551Y-57150500D01*
X174902259Y-57136765D01*
X174994409Y-57122171D01*
X175166639Y-57066211D01*
X175327994Y-56983996D01*
X175474501Y-56877553D01*
X175602553Y-56749501D01*
X175708996Y-56602994D01*
X175791211Y-56441639D01*
X175847171Y-56269409D01*
X175867278Y-56142457D01*
X175875500Y-56090551D01*
X175875500Y-55909448D01*
X175869252Y-55870000D01*
X179834417Y-55870000D01*
X179854699Y-56075932D01*
X179854700Y-56075934D01*
X179914768Y-56273954D01*
X180012315Y-56456450D01*
X180012317Y-56456452D01*
X180143589Y-56616410D01*
X180240209Y-56695702D01*
X180303550Y-56747685D01*
X180486046Y-56845232D01*
X180684066Y-56905300D01*
X180684065Y-56905300D01*
X180702529Y-56907118D01*
X180890000Y-56925583D01*
X181095934Y-56905300D01*
X181293954Y-56845232D01*
X181476450Y-56747685D01*
X181636410Y-56616410D01*
X181767685Y-56456450D01*
X181865232Y-56273954D01*
X181925300Y-56075934D01*
X181945583Y-55870000D01*
X181925300Y-55664066D01*
X181865232Y-55466046D01*
X181767685Y-55283550D01*
X181715702Y-55220209D01*
X181636410Y-55123589D01*
X181476452Y-54992317D01*
X181476453Y-54992317D01*
X181476450Y-54992315D01*
X181293954Y-54894768D01*
X181095934Y-54834700D01*
X181095932Y-54834699D01*
X181095934Y-54834699D01*
X180890000Y-54814417D01*
X180684067Y-54834699D01*
X180486043Y-54894769D01*
X180413047Y-54933787D01*
X180303550Y-54992315D01*
X180303548Y-54992316D01*
X180303547Y-54992317D01*
X180143589Y-55123589D01*
X180012317Y-55283547D01*
X179914769Y-55466043D01*
X179854699Y-55664067D01*
X179834417Y-55870000D01*
X175869252Y-55870000D01*
X175859019Y-55805397D01*
X175847171Y-55730591D01*
X175791211Y-55558361D01*
X175791211Y-55558360D01*
X175744172Y-55466043D01*
X175708996Y-55397006D01*
X175626564Y-55283547D01*
X175602558Y-55250505D01*
X175602554Y-55250500D01*
X175474499Y-55122445D01*
X175474494Y-55122441D01*
X175327997Y-55016006D01*
X175327996Y-55016005D01*
X175327994Y-55016004D01*
X175276300Y-54989664D01*
X175166639Y-54933788D01*
X175166636Y-54933787D01*
X174994410Y-54877829D01*
X174815551Y-54849500D01*
X174815546Y-54849500D01*
X174634454Y-54849500D01*
X174634449Y-54849500D01*
X174455589Y-54877829D01*
X174283363Y-54933787D01*
X174283360Y-54933788D01*
X174122002Y-55016006D01*
X173975505Y-55122441D01*
X173975500Y-55122445D01*
X173847445Y-55250500D01*
X173847441Y-55250505D01*
X173741006Y-55397002D01*
X173658788Y-55558360D01*
X173658787Y-55558363D01*
X173602829Y-55730589D01*
X173574500Y-55909448D01*
X173574500Y-56090551D01*
X170425500Y-56090551D01*
X170425500Y-55909448D01*
X170409019Y-55805397D01*
X170397171Y-55730591D01*
X170341211Y-55558361D01*
X170341211Y-55558360D01*
X170294172Y-55466043D01*
X170258996Y-55397006D01*
X170176564Y-55283547D01*
X170152558Y-55250505D01*
X170152554Y-55250500D01*
X170024499Y-55122445D01*
X170024494Y-55122441D01*
X169877997Y-55016006D01*
X169877996Y-55016005D01*
X169877994Y-55016004D01*
X169826300Y-54989664D01*
X169716639Y-54933788D01*
X169716636Y-54933787D01*
X169544410Y-54877829D01*
X169365551Y-54849500D01*
X169365546Y-54849500D01*
X169184454Y-54849500D01*
X169184449Y-54849500D01*
X169005589Y-54877829D01*
X168833363Y-54933787D01*
X168833360Y-54933788D01*
X168672002Y-55016006D01*
X168525505Y-55122441D01*
X168525500Y-55122445D01*
X168397445Y-55250500D01*
X168397441Y-55250505D01*
X168291006Y-55397002D01*
X168208788Y-55558360D01*
X168208787Y-55558363D01*
X168152829Y-55730589D01*
X168124500Y-55909448D01*
X168124500Y-56090551D01*
X164140866Y-56090551D01*
X164145300Y-56075934D01*
X164165583Y-55870000D01*
X164145300Y-55664066D01*
X164085232Y-55466046D01*
X163987685Y-55283550D01*
X163935702Y-55220209D01*
X163856410Y-55123589D01*
X163696452Y-54992317D01*
X163696453Y-54992317D01*
X163696450Y-54992315D01*
X163513954Y-54894768D01*
X163315934Y-54834700D01*
X163315932Y-54834699D01*
X163315934Y-54834699D01*
X163110000Y-54814417D01*
X162904067Y-54834699D01*
X162706043Y-54894769D01*
X162633047Y-54933787D01*
X162523550Y-54992315D01*
X162523548Y-54992316D01*
X162523547Y-54992317D01*
X162363589Y-55123589D01*
X162232317Y-55283547D01*
X162134769Y-55466043D01*
X162074699Y-55664067D01*
X162054417Y-55870000D01*
X155574456Y-55870000D01*
X155572665Y-55857543D01*
X155512877Y-55726627D01*
X155418628Y-55617857D01*
X155297553Y-55540047D01*
X155297551Y-55540046D01*
X155297549Y-55540045D01*
X155297550Y-55540045D01*
X155159463Y-55499500D01*
X155159461Y-55499500D01*
X155015539Y-55499500D01*
X155015536Y-55499500D01*
X154877449Y-55540045D01*
X154756373Y-55617856D01*
X154722712Y-55656703D01*
X154663933Y-55694477D01*
X154628999Y-55699500D01*
X126958501Y-55699500D01*
X126891462Y-55679815D01*
X126864788Y-55656703D01*
X126831128Y-55617857D01*
X126710053Y-55540047D01*
X126710051Y-55540046D01*
X126710049Y-55540045D01*
X126710050Y-55540045D01*
X126571963Y-55499500D01*
X126571961Y-55499500D01*
X126428039Y-55499500D01*
X126428036Y-55499500D01*
X126289949Y-55540045D01*
X126168873Y-55617856D01*
X126074623Y-55726626D01*
X126074622Y-55726628D01*
X126014834Y-55857543D01*
X125994353Y-56000000D01*
X100500500Y-56000000D01*
X100500500Y-53624500D01*
X100520185Y-53557461D01*
X100572989Y-53511706D01*
X100624500Y-53500500D01*
X184375500Y-53500500D01*
X184442539Y-53520185D01*
G37*
%TD.AperFunction*%
%TD*%
M02*
