M48
; DRILL file {KiCad 8.0.1} date 2024-05-11T19:31:13-0300
; FORMAT={-:-/ absolute / inch / decimal}
; #@! TF.CreationDate,2024-05-11T19:31:13-03:00
; #@! TF.GenerationSoftware,Kicad,Pcbnew,8.0.1
; #@! TF.FileFunction,Plated,1,2,PTH
FMAT,2
INCH
; #@! TA.AperFunction,Plated,PTH,ViaDrill
T1C0.0118
; #@! TA.AperFunction,Plated,PTH,ComponentDrill
T2C0.0394
; #@! TA.AperFunction,Plated,PTH,ComponentDrill
T3C0.0402
; #@! TA.AperFunction,Plated,PTH,ComponentDrill
T4C0.0433
%
G90
G05
T1
X4.1913Y-2.5181
X4.2913Y-2.5787
X4.4094Y-3.189
X4.5079Y-3.248
X4.5669Y-2.4213
X4.5669Y-2.5197
X4.626Y-2.5787
X4.7441Y-2.3819
X4.7638Y-2.5197
X4.7835Y-2.9331
X4.8425Y-2.7165
X4.9213Y-2.3819
X4.9213Y-2.815
X4.9409Y-2.6181
X4.9646Y-2.5787
X4.9803Y-2.2047
X5.0566Y-2.3031
X5.2756Y-3.622
X5.2756Y-3.7205
X5.2756Y-4.1535
X5.7087Y-3.622
X5.7087Y-3.7205
X5.7087Y-4.1535
X6.08Y-3.44
X6.1024Y-2.5984
X6.1058Y-2.2047
X6.1058Y-2.3031
X6.1058Y-2.5
X6.1058Y-2.6969
X6.1058Y-2.7953
X6.1058Y-2.9921
T2
X4.4079Y-3.1063
X4.5079Y-3.1063
X4.6079Y-3.1063
X4.7079Y-3.1063
T3
X6.4217Y-2.1996
X6.4217Y-2.2996
X6.4217Y-2.3996
X6.4217Y-2.4996
X6.4217Y-2.5996
X6.4217Y-2.6996
X6.4217Y-2.7996
X6.4217Y-2.8996
X6.4217Y-2.9996
X6.4217Y-3.0996
X6.4217Y-3.1996
X6.4217Y-3.2996
X6.4217Y-3.3996
X6.4217Y-3.4996
X6.4217Y-3.5996
X6.4217Y-3.6996
X6.4217Y-3.7996
X6.4217Y-3.8996
X6.4217Y-3.9996
X6.4217Y-4.0996
X6.6717Y-4.0906
X6.7717Y-4.0906
X6.8717Y-4.0906
X7.1217Y-2.1996
X7.1217Y-2.2996
X7.1217Y-2.3996
X7.1217Y-2.4996
X7.1217Y-2.5996
X7.1217Y-2.6996
X7.1217Y-2.7996
X7.1217Y-2.8996
X7.1217Y-2.9996
X7.1217Y-3.0996
X7.1217Y-3.1996
X7.1217Y-3.2996
X7.1217Y-3.3996
X7.1217Y-3.4996
X7.1217Y-3.5996
X7.1217Y-3.6996
X7.1217Y-3.7996
X7.1217Y-3.8996
X7.1217Y-3.9996
X7.1217Y-4.0996
T4
X5.876Y-3.9272
X5.876Y-4.1043
X6.1319Y-3.9272
X6.1319Y-4.1043
M30
