%TF.GenerationSoftware,KiCad,Pcbnew,8.0.1*%
%TF.CreationDate,2024-07-30T09:20:39-03:00*%
%TF.ProjectId,business-card-pi-pico,62757369-6e65-4737-932d-636172642d70,rev?*%
%TF.SameCoordinates,Original*%
%TF.FileFunction,Profile,NP*%
%FSLAX46Y46*%
G04 Gerber Fmt 4.6, Leading zero omitted, Abs format (unit mm)*
G04 Created by KiCad (PCBNEW 8.0.1) date 2024-07-30 09:20:39*
%MOMM*%
%LPD*%
G01*
G04 APERTURE LIST*
%TA.AperFunction,Profile*%
%ADD10C,0.100000*%
%TD*%
%ADD11C,0.150000*%
%TA.AperFunction,Profile*%
%ADD12C,0.050000*%
%TD*%
G04 APERTURE END LIST*
D10*
X185000000Y-53000000D02*
X185000000Y-107000000D01*
X100000000Y-53000000D02*
X185000000Y-53000000D01*
X185000000Y-107000000D02*
X100000000Y-107000000D01*
X100000000Y-53000000D02*
X100000000Y-107000000D01*
D11*
X138065429Y-111001390D02*
X137970191Y-110953771D01*
X137970191Y-110953771D02*
X137922572Y-110906152D01*
X137922572Y-110906152D02*
X137874953Y-110810914D01*
X137874953Y-110810914D02*
X137874953Y-110763295D01*
X137874953Y-110763295D02*
X137922572Y-110668057D01*
X137922572Y-110668057D02*
X137970191Y-110620438D01*
X137970191Y-110620438D02*
X138065429Y-110572819D01*
X138065429Y-110572819D02*
X138255905Y-110572819D01*
X138255905Y-110572819D02*
X138351143Y-110620438D01*
X138351143Y-110620438D02*
X138398762Y-110668057D01*
X138398762Y-110668057D02*
X138446381Y-110763295D01*
X138446381Y-110763295D02*
X138446381Y-110810914D01*
X138446381Y-110810914D02*
X138398762Y-110906152D01*
X138398762Y-110906152D02*
X138351143Y-110953771D01*
X138351143Y-110953771D02*
X138255905Y-111001390D01*
X138255905Y-111001390D02*
X138065429Y-111001390D01*
X138065429Y-111001390D02*
X137970191Y-111049009D01*
X137970191Y-111049009D02*
X137922572Y-111096628D01*
X137922572Y-111096628D02*
X137874953Y-111191866D01*
X137874953Y-111191866D02*
X137874953Y-111382342D01*
X137874953Y-111382342D02*
X137922572Y-111477580D01*
X137922572Y-111477580D02*
X137970191Y-111525200D01*
X137970191Y-111525200D02*
X138065429Y-111572819D01*
X138065429Y-111572819D02*
X138255905Y-111572819D01*
X138255905Y-111572819D02*
X138351143Y-111525200D01*
X138351143Y-111525200D02*
X138398762Y-111477580D01*
X138398762Y-111477580D02*
X138446381Y-111382342D01*
X138446381Y-111382342D02*
X138446381Y-111191866D01*
X138446381Y-111191866D02*
X138398762Y-111096628D01*
X138398762Y-111096628D02*
X138351143Y-111049009D01*
X138351143Y-111049009D02*
X138255905Y-111001390D01*
X139303524Y-110906152D02*
X139303524Y-111572819D01*
X139065429Y-110525200D02*
X138827334Y-111239485D01*
X138827334Y-111239485D02*
X139446381Y-111239485D01*
X139874953Y-111525200D02*
X139874953Y-111572819D01*
X139874953Y-111572819D02*
X139827334Y-111668057D01*
X139827334Y-111668057D02*
X139779715Y-111715676D01*
X140446381Y-111001390D02*
X140351143Y-110953771D01*
X140351143Y-110953771D02*
X140303524Y-110906152D01*
X140303524Y-110906152D02*
X140255905Y-110810914D01*
X140255905Y-110810914D02*
X140255905Y-110763295D01*
X140255905Y-110763295D02*
X140303524Y-110668057D01*
X140303524Y-110668057D02*
X140351143Y-110620438D01*
X140351143Y-110620438D02*
X140446381Y-110572819D01*
X140446381Y-110572819D02*
X140636857Y-110572819D01*
X140636857Y-110572819D02*
X140732095Y-110620438D01*
X140732095Y-110620438D02*
X140779714Y-110668057D01*
X140779714Y-110668057D02*
X140827333Y-110763295D01*
X140827333Y-110763295D02*
X140827333Y-110810914D01*
X140827333Y-110810914D02*
X140779714Y-110906152D01*
X140779714Y-110906152D02*
X140732095Y-110953771D01*
X140732095Y-110953771D02*
X140636857Y-111001390D01*
X140636857Y-111001390D02*
X140446381Y-111001390D01*
X140446381Y-111001390D02*
X140351143Y-111049009D01*
X140351143Y-111049009D02*
X140303524Y-111096628D01*
X140303524Y-111096628D02*
X140255905Y-111191866D01*
X140255905Y-111191866D02*
X140255905Y-111382342D01*
X140255905Y-111382342D02*
X140303524Y-111477580D01*
X140303524Y-111477580D02*
X140351143Y-111525200D01*
X140351143Y-111525200D02*
X140446381Y-111572819D01*
X140446381Y-111572819D02*
X140636857Y-111572819D01*
X140636857Y-111572819D02*
X140732095Y-111525200D01*
X140732095Y-111525200D02*
X140779714Y-111477580D01*
X140779714Y-111477580D02*
X140827333Y-111382342D01*
X140827333Y-111382342D02*
X140827333Y-111191866D01*
X140827333Y-111191866D02*
X140779714Y-111096628D01*
X140779714Y-111096628D02*
X140732095Y-111049009D01*
X140732095Y-111049009D02*
X140636857Y-111001390D01*
X141160667Y-110572819D02*
X141779714Y-110572819D01*
X141779714Y-110572819D02*
X141446381Y-110953771D01*
X141446381Y-110953771D02*
X141589238Y-110953771D01*
X141589238Y-110953771D02*
X141684476Y-111001390D01*
X141684476Y-111001390D02*
X141732095Y-111049009D01*
X141732095Y-111049009D02*
X141779714Y-111144247D01*
X141779714Y-111144247D02*
X141779714Y-111382342D01*
X141779714Y-111382342D02*
X141732095Y-111477580D01*
X141732095Y-111477580D02*
X141684476Y-111525200D01*
X141684476Y-111525200D02*
X141589238Y-111572819D01*
X141589238Y-111572819D02*
X141303524Y-111572819D01*
X141303524Y-111572819D02*
X141208286Y-111525200D01*
X141208286Y-111525200D02*
X141160667Y-111477580D01*
X142636857Y-110572819D02*
X142446381Y-110572819D01*
X142446381Y-110572819D02*
X142351143Y-110620438D01*
X142351143Y-110620438D02*
X142303524Y-110668057D01*
X142303524Y-110668057D02*
X142208286Y-110810914D01*
X142208286Y-110810914D02*
X142160667Y-111001390D01*
X142160667Y-111001390D02*
X142160667Y-111382342D01*
X142160667Y-111382342D02*
X142208286Y-111477580D01*
X142208286Y-111477580D02*
X142255905Y-111525200D01*
X142255905Y-111525200D02*
X142351143Y-111572819D01*
X142351143Y-111572819D02*
X142541619Y-111572819D01*
X142541619Y-111572819D02*
X142636857Y-111525200D01*
X142636857Y-111525200D02*
X142684476Y-111477580D01*
X142684476Y-111477580D02*
X142732095Y-111382342D01*
X142732095Y-111382342D02*
X142732095Y-111144247D01*
X142732095Y-111144247D02*
X142684476Y-111049009D01*
X142684476Y-111049009D02*
X142636857Y-111001390D01*
X142636857Y-111001390D02*
X142541619Y-110953771D01*
X142541619Y-110953771D02*
X142351143Y-110953771D01*
X142351143Y-110953771D02*
X142255905Y-111001390D01*
X142255905Y-111001390D02*
X142208286Y-111049009D01*
X142208286Y-111049009D02*
X142160667Y-111144247D01*
X143351143Y-110572819D02*
X143446381Y-110572819D01*
X143446381Y-110572819D02*
X143541619Y-110620438D01*
X143541619Y-110620438D02*
X143589238Y-110668057D01*
X143589238Y-110668057D02*
X143636857Y-110763295D01*
X143636857Y-110763295D02*
X143684476Y-110953771D01*
X143684476Y-110953771D02*
X143684476Y-111191866D01*
X143684476Y-111191866D02*
X143636857Y-111382342D01*
X143636857Y-111382342D02*
X143589238Y-111477580D01*
X143589238Y-111477580D02*
X143541619Y-111525200D01*
X143541619Y-111525200D02*
X143446381Y-111572819D01*
X143446381Y-111572819D02*
X143351143Y-111572819D01*
X143351143Y-111572819D02*
X143255905Y-111525200D01*
X143255905Y-111525200D02*
X143208286Y-111477580D01*
X143208286Y-111477580D02*
X143160667Y-111382342D01*
X143160667Y-111382342D02*
X143113048Y-111191866D01*
X143113048Y-111191866D02*
X143113048Y-110953771D01*
X143113048Y-110953771D02*
X143160667Y-110763295D01*
X143160667Y-110763295D02*
X143208286Y-110668057D01*
X143208286Y-110668057D02*
X143255905Y-110620438D01*
X143255905Y-110620438D02*
X143351143Y-110572819D01*
X144874953Y-111572819D02*
X144874953Y-110906152D01*
X144874953Y-111001390D02*
X144922572Y-110953771D01*
X144922572Y-110953771D02*
X145017810Y-110906152D01*
X145017810Y-110906152D02*
X145160667Y-110906152D01*
X145160667Y-110906152D02*
X145255905Y-110953771D01*
X145255905Y-110953771D02*
X145303524Y-111049009D01*
X145303524Y-111049009D02*
X145303524Y-111572819D01*
X145303524Y-111049009D02*
X145351143Y-110953771D01*
X145351143Y-110953771D02*
X145446381Y-110906152D01*
X145446381Y-110906152D02*
X145589238Y-110906152D01*
X145589238Y-110906152D02*
X145684477Y-110953771D01*
X145684477Y-110953771D02*
X145732096Y-111049009D01*
X145732096Y-111049009D02*
X145732096Y-111572819D01*
X146208286Y-111572819D02*
X146208286Y-110906152D01*
X146208286Y-111001390D02*
X146255905Y-110953771D01*
X146255905Y-110953771D02*
X146351143Y-110906152D01*
X146351143Y-110906152D02*
X146494000Y-110906152D01*
X146494000Y-110906152D02*
X146589238Y-110953771D01*
X146589238Y-110953771D02*
X146636857Y-111049009D01*
X146636857Y-111049009D02*
X146636857Y-111572819D01*
X146636857Y-111049009D02*
X146684476Y-110953771D01*
X146684476Y-110953771D02*
X146779714Y-110906152D01*
X146779714Y-110906152D02*
X146922571Y-110906152D01*
X146922571Y-110906152D02*
X147017810Y-110953771D01*
X147017810Y-110953771D02*
X147065429Y-111049009D01*
X147065429Y-111049009D02*
X147065429Y-111572819D01*
D12*
X100076000Y-84828000D02*
X100076000Y-112854420D01*
X184912000Y-84828000D02*
X184912000Y-112854420D01*
X100076000Y-112268000D02*
X184912000Y-112268000D01*
X100076000Y-112268000D02*
X184912000Y-112268000D01*
X100076000Y-112268000D02*
X101202504Y-111681579D01*
X100076000Y-112268000D02*
X101202504Y-112854421D01*
X184912000Y-112268000D02*
X183785496Y-112854421D01*
X184912000Y-112268000D02*
X183785496Y-111681579D01*
D11*
X191344819Y-84105237D02*
X191344819Y-84581427D01*
X191344819Y-84581427D02*
X191821009Y-84629046D01*
X191821009Y-84629046D02*
X191773390Y-84581427D01*
X191773390Y-84581427D02*
X191725771Y-84486189D01*
X191725771Y-84486189D02*
X191725771Y-84248094D01*
X191725771Y-84248094D02*
X191773390Y-84152856D01*
X191773390Y-84152856D02*
X191821009Y-84105237D01*
X191821009Y-84105237D02*
X191916247Y-84057618D01*
X191916247Y-84057618D02*
X192154342Y-84057618D01*
X192154342Y-84057618D02*
X192249580Y-84105237D01*
X192249580Y-84105237D02*
X192297200Y-84152856D01*
X192297200Y-84152856D02*
X192344819Y-84248094D01*
X192344819Y-84248094D02*
X192344819Y-84486189D01*
X192344819Y-84486189D02*
X192297200Y-84581427D01*
X192297200Y-84581427D02*
X192249580Y-84629046D01*
X191678152Y-83200475D02*
X192344819Y-83200475D01*
X191297200Y-83438570D02*
X192011485Y-83676665D01*
X192011485Y-83676665D02*
X192011485Y-83057618D01*
X192297200Y-82629046D02*
X192344819Y-82629046D01*
X192344819Y-82629046D02*
X192440057Y-82676665D01*
X192440057Y-82676665D02*
X192487676Y-82724284D01*
X191344819Y-82295713D02*
X191344819Y-81676666D01*
X191344819Y-81676666D02*
X191725771Y-82009999D01*
X191725771Y-82009999D02*
X191725771Y-81867142D01*
X191725771Y-81867142D02*
X191773390Y-81771904D01*
X191773390Y-81771904D02*
X191821009Y-81724285D01*
X191821009Y-81724285D02*
X191916247Y-81676666D01*
X191916247Y-81676666D02*
X192154342Y-81676666D01*
X192154342Y-81676666D02*
X192249580Y-81724285D01*
X192249580Y-81724285D02*
X192297200Y-81771904D01*
X192297200Y-81771904D02*
X192344819Y-81867142D01*
X192344819Y-81867142D02*
X192344819Y-82152856D01*
X192344819Y-82152856D02*
X192297200Y-82248094D01*
X192297200Y-82248094D02*
X192249580Y-82295713D01*
X191344819Y-80771904D02*
X191344819Y-81248094D01*
X191344819Y-81248094D02*
X191821009Y-81295713D01*
X191821009Y-81295713D02*
X191773390Y-81248094D01*
X191773390Y-81248094D02*
X191725771Y-81152856D01*
X191725771Y-81152856D02*
X191725771Y-80914761D01*
X191725771Y-80914761D02*
X191773390Y-80819523D01*
X191773390Y-80819523D02*
X191821009Y-80771904D01*
X191821009Y-80771904D02*
X191916247Y-80724285D01*
X191916247Y-80724285D02*
X192154342Y-80724285D01*
X192154342Y-80724285D02*
X192249580Y-80771904D01*
X192249580Y-80771904D02*
X192297200Y-80819523D01*
X192297200Y-80819523D02*
X192344819Y-80914761D01*
X192344819Y-80914761D02*
X192344819Y-81152856D01*
X192344819Y-81152856D02*
X192297200Y-81248094D01*
X192297200Y-81248094D02*
X192249580Y-81295713D01*
X191344819Y-79867142D02*
X191344819Y-80057618D01*
X191344819Y-80057618D02*
X191392438Y-80152856D01*
X191392438Y-80152856D02*
X191440057Y-80200475D01*
X191440057Y-80200475D02*
X191582914Y-80295713D01*
X191582914Y-80295713D02*
X191773390Y-80343332D01*
X191773390Y-80343332D02*
X192154342Y-80343332D01*
X192154342Y-80343332D02*
X192249580Y-80295713D01*
X192249580Y-80295713D02*
X192297200Y-80248094D01*
X192297200Y-80248094D02*
X192344819Y-80152856D01*
X192344819Y-80152856D02*
X192344819Y-79962380D01*
X192344819Y-79962380D02*
X192297200Y-79867142D01*
X192297200Y-79867142D02*
X192249580Y-79819523D01*
X192249580Y-79819523D02*
X192154342Y-79771904D01*
X192154342Y-79771904D02*
X191916247Y-79771904D01*
X191916247Y-79771904D02*
X191821009Y-79819523D01*
X191821009Y-79819523D02*
X191773390Y-79867142D01*
X191773390Y-79867142D02*
X191725771Y-79962380D01*
X191725771Y-79962380D02*
X191725771Y-80152856D01*
X191725771Y-80152856D02*
X191773390Y-80248094D01*
X191773390Y-80248094D02*
X191821009Y-80295713D01*
X191821009Y-80295713D02*
X191916247Y-80343332D01*
X191344819Y-79152856D02*
X191344819Y-79057618D01*
X191344819Y-79057618D02*
X191392438Y-78962380D01*
X191392438Y-78962380D02*
X191440057Y-78914761D01*
X191440057Y-78914761D02*
X191535295Y-78867142D01*
X191535295Y-78867142D02*
X191725771Y-78819523D01*
X191725771Y-78819523D02*
X191963866Y-78819523D01*
X191963866Y-78819523D02*
X192154342Y-78867142D01*
X192154342Y-78867142D02*
X192249580Y-78914761D01*
X192249580Y-78914761D02*
X192297200Y-78962380D01*
X192297200Y-78962380D02*
X192344819Y-79057618D01*
X192344819Y-79057618D02*
X192344819Y-79152856D01*
X192344819Y-79152856D02*
X192297200Y-79248094D01*
X192297200Y-79248094D02*
X192249580Y-79295713D01*
X192249580Y-79295713D02*
X192154342Y-79343332D01*
X192154342Y-79343332D02*
X191963866Y-79390951D01*
X191963866Y-79390951D02*
X191725771Y-79390951D01*
X191725771Y-79390951D02*
X191535295Y-79343332D01*
X191535295Y-79343332D02*
X191440057Y-79295713D01*
X191440057Y-79295713D02*
X191392438Y-79248094D01*
X191392438Y-79248094D02*
X191344819Y-79152856D01*
X192344819Y-77629046D02*
X191678152Y-77629046D01*
X191773390Y-77629046D02*
X191725771Y-77581427D01*
X191725771Y-77581427D02*
X191678152Y-77486189D01*
X191678152Y-77486189D02*
X191678152Y-77343332D01*
X191678152Y-77343332D02*
X191725771Y-77248094D01*
X191725771Y-77248094D02*
X191821009Y-77200475D01*
X191821009Y-77200475D02*
X192344819Y-77200475D01*
X191821009Y-77200475D02*
X191725771Y-77152856D01*
X191725771Y-77152856D02*
X191678152Y-77057618D01*
X191678152Y-77057618D02*
X191678152Y-76914761D01*
X191678152Y-76914761D02*
X191725771Y-76819522D01*
X191725771Y-76819522D02*
X191821009Y-76771903D01*
X191821009Y-76771903D02*
X192344819Y-76771903D01*
X192344819Y-76295713D02*
X191678152Y-76295713D01*
X191773390Y-76295713D02*
X191725771Y-76248094D01*
X191725771Y-76248094D02*
X191678152Y-76152856D01*
X191678152Y-76152856D02*
X191678152Y-76009999D01*
X191678152Y-76009999D02*
X191725771Y-75914761D01*
X191725771Y-75914761D02*
X191821009Y-75867142D01*
X191821009Y-75867142D02*
X192344819Y-75867142D01*
X191821009Y-75867142D02*
X191725771Y-75819523D01*
X191725771Y-75819523D02*
X191678152Y-75724285D01*
X191678152Y-75724285D02*
X191678152Y-75581428D01*
X191678152Y-75581428D02*
X191725771Y-75486189D01*
X191725771Y-75486189D02*
X191821009Y-75438570D01*
X191821009Y-75438570D02*
X192344819Y-75438570D01*
D12*
X179316000Y-107188000D02*
X193626420Y-107188000D01*
X179316000Y-52832000D02*
X193626420Y-52832000D01*
X193040000Y-107188000D02*
X193040000Y-52832000D01*
X193040000Y-107188000D02*
X193040000Y-52832000D01*
X193040000Y-107188000D02*
X192453579Y-106061496D01*
X193040000Y-107188000D02*
X193626421Y-106061496D01*
X193040000Y-52832000D02*
X193626421Y-53958504D01*
X193040000Y-52832000D02*
X192453579Y-53958504D01*
M02*
