%TF.GenerationSoftware,KiCad,Pcbnew,8.0.1*%
%TF.CreationDate,2024-05-11T19:31:04-03:00*%
%TF.ProjectId,business-card-pi-pico,62757369-6e65-4737-932d-636172642d70,rev?*%
%TF.SameCoordinates,Original*%
%TF.FileFunction,Soldermask,Top*%
%TF.FilePolarity,Negative*%
%FSLAX46Y46*%
G04 Gerber Fmt 4.6, Leading zero omitted, Abs format (unit mm)*
G04 Created by KiCad (PCBNEW 8.0.1) date 2024-05-11 19:31:04*
%MOMM*%
%LPD*%
G01*
G04 APERTURE LIST*
G04 Aperture macros list*
%AMRoundRect*
0 Rectangle with rounded corners*
0 $1 Rounding radius*
0 $2 $3 $4 $5 $6 $7 $8 $9 X,Y pos of 4 corners*
0 Add a 4 corners polygon primitive as box body*
4,1,4,$2,$3,$4,$5,$6,$7,$8,$9,$2,$3,0*
0 Add four circle primitives for the rounded corners*
1,1,$1+$1,$2,$3*
1,1,$1+$1,$4,$5*
1,1,$1+$1,$6,$7*
1,1,$1+$1,$8,$9*
0 Add four rect primitives between the rounded corners*
20,1,$1+$1,$2,$3,$4,$5,0*
20,1,$1+$1,$4,$5,$6,$7,0*
20,1,$1+$1,$6,$7,$8,$9,0*
20,1,$1+$1,$8,$9,$2,$3,0*%
G04 Aperture macros list end*
%ADD10C,0.150000*%
%ADD11RoundRect,0.243750X-0.243750X-0.456250X0.243750X-0.456250X0.243750X0.456250X-0.243750X0.456250X0*%
%ADD12RoundRect,0.250000X0.262500X0.450000X-0.262500X0.450000X-0.262500X-0.450000X0.262500X-0.450000X0*%
%ADD13RoundRect,0.243750X0.243750X0.456250X-0.243750X0.456250X-0.243750X-0.456250X0.243750X-0.456250X0*%
%ADD14RoundRect,0.250000X-0.262500X-0.450000X0.262500X-0.450000X0.262500X0.450000X-0.262500X0.450000X0*%
%ADD15C,2.000000*%
%ADD16O,1.600000X2.000000*%
%ADD17RoundRect,0.250000X0.450000X-0.262500X0.450000X0.262500X-0.450000X0.262500X-0.450000X-0.262500X0*%
%ADD18O,1.800000X1.800000*%
%ADD19O,1.500000X1.500000*%
%ADD20O,1.700000X1.700000*%
%ADD21R,3.500000X1.700000*%
%ADD22R,1.700000X1.700000*%
%ADD23R,1.700000X3.500000*%
G04 APERTURE END LIST*
D10*
X131788017Y-77825923D02*
X131721350Y-77892590D01*
X131721350Y-77892590D02*
X131521350Y-77959256D01*
X131521350Y-77959256D02*
X131388017Y-77959256D01*
X131388017Y-77959256D02*
X131188017Y-77892590D01*
X131188017Y-77892590D02*
X131054684Y-77759256D01*
X131054684Y-77759256D02*
X130988017Y-77625923D01*
X130988017Y-77625923D02*
X130921350Y-77359256D01*
X130921350Y-77359256D02*
X130921350Y-77159256D01*
X130921350Y-77159256D02*
X130988017Y-76892590D01*
X130988017Y-76892590D02*
X131054684Y-76759256D01*
X131054684Y-76759256D02*
X131188017Y-76625923D01*
X131188017Y-76625923D02*
X131388017Y-76559256D01*
X131388017Y-76559256D02*
X131521350Y-76559256D01*
X131521350Y-76559256D02*
X131721350Y-76625923D01*
X131721350Y-76625923D02*
X131788017Y-76692590D01*
X132588017Y-77959256D02*
X132454684Y-77892590D01*
X132454684Y-77892590D02*
X132388017Y-77825923D01*
X132388017Y-77825923D02*
X132321350Y-77692590D01*
X132321350Y-77692590D02*
X132321350Y-77292590D01*
X132321350Y-77292590D02*
X132388017Y-77159256D01*
X132388017Y-77159256D02*
X132454684Y-77092590D01*
X132454684Y-77092590D02*
X132588017Y-77025923D01*
X132588017Y-77025923D02*
X132788017Y-77025923D01*
X132788017Y-77025923D02*
X132921350Y-77092590D01*
X132921350Y-77092590D02*
X132988017Y-77159256D01*
X132988017Y-77159256D02*
X133054684Y-77292590D01*
X133054684Y-77292590D02*
X133054684Y-77692590D01*
X133054684Y-77692590D02*
X132988017Y-77825923D01*
X132988017Y-77825923D02*
X132921350Y-77892590D01*
X132921350Y-77892590D02*
X132788017Y-77959256D01*
X132788017Y-77959256D02*
X132588017Y-77959256D01*
X133654684Y-77025923D02*
X133654684Y-77959256D01*
X133654684Y-77159256D02*
X133721351Y-77092590D01*
X133721351Y-77092590D02*
X133854684Y-77025923D01*
X133854684Y-77025923D02*
X134054684Y-77025923D01*
X134054684Y-77025923D02*
X134188017Y-77092590D01*
X134188017Y-77092590D02*
X134254684Y-77225923D01*
X134254684Y-77225923D02*
X134254684Y-77959256D01*
X134721351Y-77025923D02*
X135254684Y-77025923D01*
X134921351Y-76559256D02*
X134921351Y-77759256D01*
X134921351Y-77759256D02*
X134988018Y-77892590D01*
X134988018Y-77892590D02*
X135121351Y-77959256D01*
X135121351Y-77959256D02*
X135254684Y-77959256D01*
X136321351Y-77959256D02*
X136321351Y-77225923D01*
X136321351Y-77225923D02*
X136254684Y-77092590D01*
X136254684Y-77092590D02*
X136121351Y-77025923D01*
X136121351Y-77025923D02*
X135854684Y-77025923D01*
X135854684Y-77025923D02*
X135721351Y-77092590D01*
X136321351Y-77892590D02*
X136188018Y-77959256D01*
X136188018Y-77959256D02*
X135854684Y-77959256D01*
X135854684Y-77959256D02*
X135721351Y-77892590D01*
X135721351Y-77892590D02*
X135654684Y-77759256D01*
X135654684Y-77759256D02*
X135654684Y-77625923D01*
X135654684Y-77625923D02*
X135721351Y-77492590D01*
X135721351Y-77492590D02*
X135854684Y-77425923D01*
X135854684Y-77425923D02*
X136188018Y-77425923D01*
X136188018Y-77425923D02*
X136321351Y-77359256D01*
X137588018Y-77892590D02*
X137454685Y-77959256D01*
X137454685Y-77959256D02*
X137188018Y-77959256D01*
X137188018Y-77959256D02*
X137054685Y-77892590D01*
X137054685Y-77892590D02*
X136988018Y-77825923D01*
X136988018Y-77825923D02*
X136921351Y-77692590D01*
X136921351Y-77692590D02*
X136921351Y-77292590D01*
X136921351Y-77292590D02*
X136988018Y-77159256D01*
X136988018Y-77159256D02*
X137054685Y-77092590D01*
X137054685Y-77092590D02*
X137188018Y-77025923D01*
X137188018Y-77025923D02*
X137454685Y-77025923D01*
X137454685Y-77025923D02*
X137588018Y-77092590D01*
X137988018Y-77025923D02*
X138521351Y-77025923D01*
X138188018Y-76559256D02*
X138188018Y-77759256D01*
X138188018Y-77759256D02*
X138254685Y-77892590D01*
X138254685Y-77892590D02*
X138388018Y-77959256D01*
X138388018Y-77959256D02*
X138521351Y-77959256D01*
X140054685Y-77959256D02*
X140054685Y-77025923D01*
X140054685Y-76559256D02*
X139988018Y-76625923D01*
X139988018Y-76625923D02*
X140054685Y-76692590D01*
X140054685Y-76692590D02*
X140121352Y-76625923D01*
X140121352Y-76625923D02*
X140054685Y-76559256D01*
X140054685Y-76559256D02*
X140054685Y-76692590D01*
X140721352Y-77025923D02*
X140721352Y-77959256D01*
X140721352Y-77159256D02*
X140788019Y-77092590D01*
X140788019Y-77092590D02*
X140921352Y-77025923D01*
X140921352Y-77025923D02*
X141121352Y-77025923D01*
X141121352Y-77025923D02*
X141254685Y-77092590D01*
X141254685Y-77092590D02*
X141321352Y-77225923D01*
X141321352Y-77225923D02*
X141321352Y-77959256D01*
X141788019Y-77025923D02*
X142321352Y-77025923D01*
X141988019Y-77959256D02*
X141988019Y-76759256D01*
X141988019Y-76759256D02*
X142054686Y-76625923D01*
X142054686Y-76625923D02*
X142188019Y-76559256D01*
X142188019Y-76559256D02*
X142321352Y-76559256D01*
X142988019Y-77959256D02*
X142854686Y-77892590D01*
X142854686Y-77892590D02*
X142788019Y-77825923D01*
X142788019Y-77825923D02*
X142721352Y-77692590D01*
X142721352Y-77692590D02*
X142721352Y-77292590D01*
X142721352Y-77292590D02*
X142788019Y-77159256D01*
X142788019Y-77159256D02*
X142854686Y-77092590D01*
X142854686Y-77092590D02*
X142988019Y-77025923D01*
X142988019Y-77025923D02*
X143188019Y-77025923D01*
X143188019Y-77025923D02*
X143321352Y-77092590D01*
X143321352Y-77092590D02*
X143388019Y-77159256D01*
X143388019Y-77159256D02*
X143454686Y-77292590D01*
X143454686Y-77292590D02*
X143454686Y-77692590D01*
X143454686Y-77692590D02*
X143388019Y-77825923D01*
X143388019Y-77825923D02*
X143321352Y-77892590D01*
X143321352Y-77892590D02*
X143188019Y-77959256D01*
X143188019Y-77959256D02*
X142988019Y-77959256D01*
X144054686Y-77825923D02*
X144121353Y-77892590D01*
X144121353Y-77892590D02*
X144054686Y-77959256D01*
X144054686Y-77959256D02*
X143988019Y-77892590D01*
X143988019Y-77892590D02*
X144054686Y-77825923D01*
X144054686Y-77825923D02*
X144054686Y-77959256D01*
X144054686Y-77092590D02*
X144121353Y-77159256D01*
X144121353Y-77159256D02*
X144054686Y-77225923D01*
X144054686Y-77225923D02*
X143988019Y-77159256D01*
X143988019Y-77159256D02*
X144054686Y-77092590D01*
X144054686Y-77092590D02*
X144054686Y-77225923D01*
X131454684Y-79479845D02*
X130988017Y-79479845D01*
X130988017Y-80213178D02*
X130988017Y-78813178D01*
X130988017Y-78813178D02*
X131654684Y-78813178D01*
X132188017Y-80213178D02*
X132188017Y-79279845D01*
X132188017Y-79546512D02*
X132254684Y-79413178D01*
X132254684Y-79413178D02*
X132321350Y-79346512D01*
X132321350Y-79346512D02*
X132454684Y-79279845D01*
X132454684Y-79279845D02*
X132588017Y-79279845D01*
X133054684Y-80213178D02*
X133054684Y-79279845D01*
X133054684Y-78813178D02*
X132988017Y-78879845D01*
X132988017Y-78879845D02*
X133054684Y-78946512D01*
X133054684Y-78946512D02*
X133121351Y-78879845D01*
X133121351Y-78879845D02*
X133054684Y-78813178D01*
X133054684Y-78813178D02*
X133054684Y-78946512D01*
X133521351Y-79279845D02*
X134054684Y-79279845D01*
X133721351Y-78813178D02*
X133721351Y-80013178D01*
X133721351Y-80013178D02*
X133788018Y-80146512D01*
X133788018Y-80146512D02*
X133921351Y-80213178D01*
X133921351Y-80213178D02*
X134054684Y-80213178D01*
X134388018Y-79279845D02*
X135121351Y-79279845D01*
X135121351Y-79279845D02*
X134388018Y-80213178D01*
X134388018Y-80213178D02*
X135121351Y-80213178D01*
X136188017Y-80146512D02*
X136054684Y-80213178D01*
X136054684Y-80213178D02*
X135788017Y-80213178D01*
X135788017Y-80213178D02*
X135654684Y-80146512D01*
X135654684Y-80146512D02*
X135588017Y-80013178D01*
X135588017Y-80013178D02*
X135588017Y-79479845D01*
X135588017Y-79479845D02*
X135654684Y-79346512D01*
X135654684Y-79346512D02*
X135788017Y-79279845D01*
X135788017Y-79279845D02*
X136054684Y-79279845D01*
X136054684Y-79279845D02*
X136188017Y-79346512D01*
X136188017Y-79346512D02*
X136254684Y-79479845D01*
X136254684Y-79479845D02*
X136254684Y-79613178D01*
X136254684Y-79613178D02*
X135588017Y-79746512D01*
X136854684Y-79279845D02*
X136854684Y-80213178D01*
X136854684Y-79413178D02*
X136921351Y-79346512D01*
X136921351Y-79346512D02*
X137054684Y-79279845D01*
X137054684Y-79279845D02*
X137254684Y-79279845D01*
X137254684Y-79279845D02*
X137388017Y-79346512D01*
X137388017Y-79346512D02*
X137454684Y-79479845D01*
X137454684Y-79479845D02*
X137454684Y-80213178D01*
X138188018Y-80146512D02*
X138188018Y-80213178D01*
X138188018Y-80213178D02*
X138121351Y-80346512D01*
X138121351Y-80346512D02*
X138054684Y-80413178D01*
X140654685Y-80079845D02*
X140588018Y-80146512D01*
X140588018Y-80146512D02*
X140388018Y-80213178D01*
X140388018Y-80213178D02*
X140254685Y-80213178D01*
X140254685Y-80213178D02*
X140054685Y-80146512D01*
X140054685Y-80146512D02*
X139921352Y-80013178D01*
X139921352Y-80013178D02*
X139854685Y-79879845D01*
X139854685Y-79879845D02*
X139788018Y-79613178D01*
X139788018Y-79613178D02*
X139788018Y-79413178D01*
X139788018Y-79413178D02*
X139854685Y-79146512D01*
X139854685Y-79146512D02*
X139921352Y-79013178D01*
X139921352Y-79013178D02*
X140054685Y-78879845D01*
X140054685Y-78879845D02*
X140254685Y-78813178D01*
X140254685Y-78813178D02*
X140388018Y-78813178D01*
X140388018Y-78813178D02*
X140588018Y-78879845D01*
X140588018Y-78879845D02*
X140654685Y-78946512D01*
X141454685Y-80213178D02*
X141321352Y-80146512D01*
X141321352Y-80146512D02*
X141254685Y-80013178D01*
X141254685Y-80013178D02*
X141254685Y-78813178D01*
X142188018Y-80213178D02*
X142054685Y-80146512D01*
X142054685Y-80146512D02*
X141988018Y-80079845D01*
X141988018Y-80079845D02*
X141921351Y-79946512D01*
X141921351Y-79946512D02*
X141921351Y-79546512D01*
X141921351Y-79546512D02*
X141988018Y-79413178D01*
X141988018Y-79413178D02*
X142054685Y-79346512D01*
X142054685Y-79346512D02*
X142188018Y-79279845D01*
X142188018Y-79279845D02*
X142388018Y-79279845D01*
X142388018Y-79279845D02*
X142521351Y-79346512D01*
X142521351Y-79346512D02*
X142588018Y-79413178D01*
X142588018Y-79413178D02*
X142654685Y-79546512D01*
X142654685Y-79546512D02*
X142654685Y-79946512D01*
X142654685Y-79946512D02*
X142588018Y-80079845D01*
X142588018Y-80079845D02*
X142521351Y-80146512D01*
X142521351Y-80146512D02*
X142388018Y-80213178D01*
X142388018Y-80213178D02*
X142188018Y-80213178D01*
X143121352Y-79279845D02*
X143454685Y-80213178D01*
X143454685Y-80213178D02*
X143788018Y-79279845D01*
X144321352Y-80213178D02*
X144321352Y-79279845D01*
X144321352Y-78813178D02*
X144254685Y-78879845D01*
X144254685Y-78879845D02*
X144321352Y-78946512D01*
X144321352Y-78946512D02*
X144388019Y-78879845D01*
X144388019Y-78879845D02*
X144321352Y-78813178D01*
X144321352Y-78813178D02*
X144321352Y-78946512D01*
X144921352Y-80146512D02*
X145054686Y-80213178D01*
X145054686Y-80213178D02*
X145321352Y-80213178D01*
X145321352Y-80213178D02*
X145454686Y-80146512D01*
X145454686Y-80146512D02*
X145521352Y-80013178D01*
X145521352Y-80013178D02*
X145521352Y-79946512D01*
X145521352Y-79946512D02*
X145454686Y-79813178D01*
X145454686Y-79813178D02*
X145321352Y-79746512D01*
X145321352Y-79746512D02*
X145121352Y-79746512D01*
X145121352Y-79746512D02*
X144988019Y-79679845D01*
X144988019Y-79679845D02*
X144921352Y-79546512D01*
X144921352Y-79546512D02*
X144921352Y-79479845D01*
X144921352Y-79479845D02*
X144988019Y-79346512D01*
X144988019Y-79346512D02*
X145121352Y-79279845D01*
X145121352Y-79279845D02*
X145321352Y-79279845D01*
X145321352Y-79279845D02*
X145454686Y-79346512D01*
X130988017Y-82467100D02*
X130988017Y-81067100D01*
X131588017Y-82467100D02*
X131588017Y-81733767D01*
X131588017Y-81733767D02*
X131521350Y-81600434D01*
X131521350Y-81600434D02*
X131388017Y-81533767D01*
X131388017Y-81533767D02*
X131188017Y-81533767D01*
X131188017Y-81533767D02*
X131054684Y-81600434D01*
X131054684Y-81600434D02*
X130988017Y-81667100D01*
X132054684Y-81533767D02*
X132588017Y-81533767D01*
X132254684Y-81067100D02*
X132254684Y-82267100D01*
X132254684Y-82267100D02*
X132321351Y-82400434D01*
X132321351Y-82400434D02*
X132454684Y-82467100D01*
X132454684Y-82467100D02*
X132588017Y-82467100D01*
X132854684Y-81533767D02*
X133388017Y-81533767D01*
X133054684Y-81067100D02*
X133054684Y-82267100D01*
X133054684Y-82267100D02*
X133121351Y-82400434D01*
X133121351Y-82400434D02*
X133254684Y-82467100D01*
X133254684Y-82467100D02*
X133388017Y-82467100D01*
X133854684Y-81533767D02*
X133854684Y-82933767D01*
X133854684Y-81600434D02*
X133988017Y-81533767D01*
X133988017Y-81533767D02*
X134254684Y-81533767D01*
X134254684Y-81533767D02*
X134388017Y-81600434D01*
X134388017Y-81600434D02*
X134454684Y-81667100D01*
X134454684Y-81667100D02*
X134521351Y-81800434D01*
X134521351Y-81800434D02*
X134521351Y-82200434D01*
X134521351Y-82200434D02*
X134454684Y-82333767D01*
X134454684Y-82333767D02*
X134388017Y-82400434D01*
X134388017Y-82400434D02*
X134254684Y-82467100D01*
X134254684Y-82467100D02*
X133988017Y-82467100D01*
X133988017Y-82467100D02*
X133854684Y-82400434D01*
X135054684Y-82400434D02*
X135188018Y-82467100D01*
X135188018Y-82467100D02*
X135454684Y-82467100D01*
X135454684Y-82467100D02*
X135588018Y-82400434D01*
X135588018Y-82400434D02*
X135654684Y-82267100D01*
X135654684Y-82267100D02*
X135654684Y-82200434D01*
X135654684Y-82200434D02*
X135588018Y-82067100D01*
X135588018Y-82067100D02*
X135454684Y-82000434D01*
X135454684Y-82000434D02*
X135254684Y-82000434D01*
X135254684Y-82000434D02*
X135121351Y-81933767D01*
X135121351Y-81933767D02*
X135054684Y-81800434D01*
X135054684Y-81800434D02*
X135054684Y-81733767D01*
X135054684Y-81733767D02*
X135121351Y-81600434D01*
X135121351Y-81600434D02*
X135254684Y-81533767D01*
X135254684Y-81533767D02*
X135454684Y-81533767D01*
X135454684Y-81533767D02*
X135588018Y-81600434D01*
X136254684Y-82333767D02*
X136321351Y-82400434D01*
X136321351Y-82400434D02*
X136254684Y-82467100D01*
X136254684Y-82467100D02*
X136188017Y-82400434D01*
X136188017Y-82400434D02*
X136254684Y-82333767D01*
X136254684Y-82333767D02*
X136254684Y-82467100D01*
X136254684Y-81600434D02*
X136321351Y-81667100D01*
X136321351Y-81667100D02*
X136254684Y-81733767D01*
X136254684Y-81733767D02*
X136188017Y-81667100D01*
X136188017Y-81667100D02*
X136254684Y-81600434D01*
X136254684Y-81600434D02*
X136254684Y-81733767D01*
X137921351Y-81000434D02*
X136721351Y-82800434D01*
X139388018Y-81000434D02*
X138188018Y-82800434D01*
X140321352Y-81733767D02*
X139854685Y-81733767D01*
X139854685Y-82467100D02*
X139854685Y-81067100D01*
X139854685Y-81067100D02*
X140521352Y-81067100D01*
X141054685Y-82467100D02*
X141054685Y-81533767D01*
X141054685Y-81800434D02*
X141121352Y-81667100D01*
X141121352Y-81667100D02*
X141188018Y-81600434D01*
X141188018Y-81600434D02*
X141321352Y-81533767D01*
X141321352Y-81533767D02*
X141454685Y-81533767D01*
X141921352Y-82467100D02*
X141921352Y-81533767D01*
X141921352Y-81067100D02*
X141854685Y-81133767D01*
X141854685Y-81133767D02*
X141921352Y-81200434D01*
X141921352Y-81200434D02*
X141988019Y-81133767D01*
X141988019Y-81133767D02*
X141921352Y-81067100D01*
X141921352Y-81067100D02*
X141921352Y-81200434D01*
X142388019Y-81533767D02*
X142921352Y-81533767D01*
X142588019Y-81067100D02*
X142588019Y-82267100D01*
X142588019Y-82267100D02*
X142654686Y-82400434D01*
X142654686Y-82400434D02*
X142788019Y-82467100D01*
X142788019Y-82467100D02*
X142921352Y-82467100D01*
X143254686Y-81533767D02*
X143988019Y-81533767D01*
X143988019Y-81533767D02*
X143254686Y-82467100D01*
X143254686Y-82467100D02*
X143988019Y-82467100D01*
X145054685Y-82400434D02*
X144921352Y-82467100D01*
X144921352Y-82467100D02*
X144654685Y-82467100D01*
X144654685Y-82467100D02*
X144521352Y-82400434D01*
X144521352Y-82400434D02*
X144454685Y-82267100D01*
X144454685Y-82267100D02*
X144454685Y-81733767D01*
X144454685Y-81733767D02*
X144521352Y-81600434D01*
X144521352Y-81600434D02*
X144654685Y-81533767D01*
X144654685Y-81533767D02*
X144921352Y-81533767D01*
X144921352Y-81533767D02*
X145054685Y-81600434D01*
X145054685Y-81600434D02*
X145121352Y-81733767D01*
X145121352Y-81733767D02*
X145121352Y-81867100D01*
X145121352Y-81867100D02*
X144454685Y-82000434D01*
X145721352Y-81533767D02*
X145721352Y-82467100D01*
X145721352Y-81667100D02*
X145788019Y-81600434D01*
X145788019Y-81600434D02*
X145921352Y-81533767D01*
X145921352Y-81533767D02*
X146121352Y-81533767D01*
X146121352Y-81533767D02*
X146254685Y-81600434D01*
X146254685Y-81600434D02*
X146321352Y-81733767D01*
X146321352Y-81733767D02*
X146321352Y-82467100D01*
X147654686Y-82467100D02*
X146988019Y-82467100D01*
X146988019Y-82467100D02*
X146988019Y-81067100D01*
X148721352Y-82467100D02*
X148721352Y-81733767D01*
X148721352Y-81733767D02*
X148654685Y-81600434D01*
X148654685Y-81600434D02*
X148521352Y-81533767D01*
X148521352Y-81533767D02*
X148254685Y-81533767D01*
X148254685Y-81533767D02*
X148121352Y-81600434D01*
X148721352Y-82400434D02*
X148588019Y-82467100D01*
X148588019Y-82467100D02*
X148254685Y-82467100D01*
X148254685Y-82467100D02*
X148121352Y-82400434D01*
X148121352Y-82400434D02*
X148054685Y-82267100D01*
X148054685Y-82267100D02*
X148054685Y-82133767D01*
X148054685Y-82133767D02*
X148121352Y-82000434D01*
X148121352Y-82000434D02*
X148254685Y-81933767D01*
X148254685Y-81933767D02*
X148588019Y-81933767D01*
X148588019Y-81933767D02*
X148721352Y-81867100D01*
X149388019Y-82467100D02*
X149388019Y-81067100D01*
X149388019Y-81600434D02*
X149521352Y-81533767D01*
X149521352Y-81533767D02*
X149788019Y-81533767D01*
X149788019Y-81533767D02*
X149921352Y-81600434D01*
X149921352Y-81600434D02*
X149988019Y-81667100D01*
X149988019Y-81667100D02*
X150054686Y-81800434D01*
X150054686Y-81800434D02*
X150054686Y-82200434D01*
X150054686Y-82200434D02*
X149988019Y-82333767D01*
X149988019Y-82333767D02*
X149921352Y-82400434D01*
X149921352Y-82400434D02*
X149788019Y-82467100D01*
X149788019Y-82467100D02*
X149521352Y-82467100D01*
X149521352Y-82467100D02*
X149388019Y-82400434D01*
X150654686Y-82333767D02*
X150721353Y-82400434D01*
X150721353Y-82400434D02*
X150654686Y-82467100D01*
X150654686Y-82467100D02*
X150588019Y-82400434D01*
X150588019Y-82400434D02*
X150654686Y-82333767D01*
X150654686Y-82333767D02*
X150654686Y-82467100D01*
X151921353Y-82400434D02*
X151788020Y-82467100D01*
X151788020Y-82467100D02*
X151521353Y-82467100D01*
X151521353Y-82467100D02*
X151388020Y-82400434D01*
X151388020Y-82400434D02*
X151321353Y-82333767D01*
X151321353Y-82333767D02*
X151254686Y-82200434D01*
X151254686Y-82200434D02*
X151254686Y-81800434D01*
X151254686Y-81800434D02*
X151321353Y-81667100D01*
X151321353Y-81667100D02*
X151388020Y-81600434D01*
X151388020Y-81600434D02*
X151521353Y-81533767D01*
X151521353Y-81533767D02*
X151788020Y-81533767D01*
X151788020Y-81533767D02*
X151921353Y-81600434D01*
X152721353Y-82467100D02*
X152588020Y-82400434D01*
X152588020Y-82400434D02*
X152521353Y-82333767D01*
X152521353Y-82333767D02*
X152454686Y-82200434D01*
X152454686Y-82200434D02*
X152454686Y-81800434D01*
X152454686Y-81800434D02*
X152521353Y-81667100D01*
X152521353Y-81667100D02*
X152588020Y-81600434D01*
X152588020Y-81600434D02*
X152721353Y-81533767D01*
X152721353Y-81533767D02*
X152921353Y-81533767D01*
X152921353Y-81533767D02*
X153054686Y-81600434D01*
X153054686Y-81600434D02*
X153121353Y-81667100D01*
X153121353Y-81667100D02*
X153188020Y-81800434D01*
X153188020Y-81800434D02*
X153188020Y-82200434D01*
X153188020Y-82200434D02*
X153121353Y-82333767D01*
X153121353Y-82333767D02*
X153054686Y-82400434D01*
X153054686Y-82400434D02*
X152921353Y-82467100D01*
X152921353Y-82467100D02*
X152721353Y-82467100D01*
X153788020Y-82467100D02*
X153788020Y-81533767D01*
X153788020Y-81667100D02*
X153854687Y-81600434D01*
X153854687Y-81600434D02*
X153988020Y-81533767D01*
X153988020Y-81533767D02*
X154188020Y-81533767D01*
X154188020Y-81533767D02*
X154321353Y-81600434D01*
X154321353Y-81600434D02*
X154388020Y-81733767D01*
X154388020Y-81733767D02*
X154388020Y-82467100D01*
X154388020Y-81733767D02*
X154454687Y-81600434D01*
X154454687Y-81600434D02*
X154588020Y-81533767D01*
X154588020Y-81533767D02*
X154788020Y-81533767D01*
X154788020Y-81533767D02*
X154921353Y-81600434D01*
X154921353Y-81600434D02*
X154988020Y-81733767D01*
X154988020Y-81733767D02*
X154988020Y-82467100D01*
X155654687Y-82333767D02*
X155721354Y-82400434D01*
X155721354Y-82400434D02*
X155654687Y-82467100D01*
X155654687Y-82467100D02*
X155588020Y-82400434D01*
X155588020Y-82400434D02*
X155654687Y-82333767D01*
X155654687Y-82333767D02*
X155654687Y-82467100D01*
X156321354Y-82467100D02*
X156321354Y-81067100D01*
X156321354Y-81600434D02*
X156454687Y-81533767D01*
X156454687Y-81533767D02*
X156721354Y-81533767D01*
X156721354Y-81533767D02*
X156854687Y-81600434D01*
X156854687Y-81600434D02*
X156921354Y-81667100D01*
X156921354Y-81667100D02*
X156988021Y-81800434D01*
X156988021Y-81800434D02*
X156988021Y-82200434D01*
X156988021Y-82200434D02*
X156921354Y-82333767D01*
X156921354Y-82333767D02*
X156854687Y-82400434D01*
X156854687Y-82400434D02*
X156721354Y-82467100D01*
X156721354Y-82467100D02*
X156454687Y-82467100D01*
X156454687Y-82467100D02*
X156321354Y-82400434D01*
X157588021Y-82467100D02*
X157588021Y-81533767D01*
X157588021Y-81800434D02*
X157654688Y-81667100D01*
X157654688Y-81667100D02*
X157721354Y-81600434D01*
X157721354Y-81600434D02*
X157854688Y-81533767D01*
X157854688Y-81533767D02*
X157988021Y-81533767D01*
X130988017Y-84721022D02*
X130988017Y-83321022D01*
X131588017Y-84721022D02*
X131588017Y-83987689D01*
X131588017Y-83987689D02*
X131521350Y-83854356D01*
X131521350Y-83854356D02*
X131388017Y-83787689D01*
X131388017Y-83787689D02*
X131188017Y-83787689D01*
X131188017Y-83787689D02*
X131054684Y-83854356D01*
X131054684Y-83854356D02*
X130988017Y-83921022D01*
X132054684Y-83787689D02*
X132588017Y-83787689D01*
X132254684Y-83321022D02*
X132254684Y-84521022D01*
X132254684Y-84521022D02*
X132321351Y-84654356D01*
X132321351Y-84654356D02*
X132454684Y-84721022D01*
X132454684Y-84721022D02*
X132588017Y-84721022D01*
X132854684Y-83787689D02*
X133388017Y-83787689D01*
X133054684Y-83321022D02*
X133054684Y-84521022D01*
X133054684Y-84521022D02*
X133121351Y-84654356D01*
X133121351Y-84654356D02*
X133254684Y-84721022D01*
X133254684Y-84721022D02*
X133388017Y-84721022D01*
X133854684Y-83787689D02*
X133854684Y-85187689D01*
X133854684Y-83854356D02*
X133988017Y-83787689D01*
X133988017Y-83787689D02*
X134254684Y-83787689D01*
X134254684Y-83787689D02*
X134388017Y-83854356D01*
X134388017Y-83854356D02*
X134454684Y-83921022D01*
X134454684Y-83921022D02*
X134521351Y-84054356D01*
X134521351Y-84054356D02*
X134521351Y-84454356D01*
X134521351Y-84454356D02*
X134454684Y-84587689D01*
X134454684Y-84587689D02*
X134388017Y-84654356D01*
X134388017Y-84654356D02*
X134254684Y-84721022D01*
X134254684Y-84721022D02*
X133988017Y-84721022D01*
X133988017Y-84721022D02*
X133854684Y-84654356D01*
X135054684Y-84654356D02*
X135188018Y-84721022D01*
X135188018Y-84721022D02*
X135454684Y-84721022D01*
X135454684Y-84721022D02*
X135588018Y-84654356D01*
X135588018Y-84654356D02*
X135654684Y-84521022D01*
X135654684Y-84521022D02*
X135654684Y-84454356D01*
X135654684Y-84454356D02*
X135588018Y-84321022D01*
X135588018Y-84321022D02*
X135454684Y-84254356D01*
X135454684Y-84254356D02*
X135254684Y-84254356D01*
X135254684Y-84254356D02*
X135121351Y-84187689D01*
X135121351Y-84187689D02*
X135054684Y-84054356D01*
X135054684Y-84054356D02*
X135054684Y-83987689D01*
X135054684Y-83987689D02*
X135121351Y-83854356D01*
X135121351Y-83854356D02*
X135254684Y-83787689D01*
X135254684Y-83787689D02*
X135454684Y-83787689D01*
X135454684Y-83787689D02*
X135588018Y-83854356D01*
X136254684Y-84587689D02*
X136321351Y-84654356D01*
X136321351Y-84654356D02*
X136254684Y-84721022D01*
X136254684Y-84721022D02*
X136188017Y-84654356D01*
X136188017Y-84654356D02*
X136254684Y-84587689D01*
X136254684Y-84587689D02*
X136254684Y-84721022D01*
X136254684Y-83854356D02*
X136321351Y-83921022D01*
X136321351Y-83921022D02*
X136254684Y-83987689D01*
X136254684Y-83987689D02*
X136188017Y-83921022D01*
X136188017Y-83921022D02*
X136254684Y-83854356D01*
X136254684Y-83854356D02*
X136254684Y-83987689D01*
X137921351Y-83254356D02*
X136721351Y-85054356D01*
X139388018Y-83254356D02*
X138188018Y-85054356D01*
X140321352Y-83987689D02*
X139854685Y-83987689D01*
X139854685Y-84721022D02*
X139854685Y-83321022D01*
X139854685Y-83321022D02*
X140521352Y-83321022D01*
X141054685Y-84721022D02*
X141054685Y-83787689D01*
X141054685Y-84054356D02*
X141121352Y-83921022D01*
X141121352Y-83921022D02*
X141188018Y-83854356D01*
X141188018Y-83854356D02*
X141321352Y-83787689D01*
X141321352Y-83787689D02*
X141454685Y-83787689D01*
X141921352Y-84721022D02*
X141921352Y-83787689D01*
X141921352Y-83321022D02*
X141854685Y-83387689D01*
X141854685Y-83387689D02*
X141921352Y-83454356D01*
X141921352Y-83454356D02*
X141988019Y-83387689D01*
X141988019Y-83387689D02*
X141921352Y-83321022D01*
X141921352Y-83321022D02*
X141921352Y-83454356D01*
X142388019Y-83787689D02*
X142921352Y-83787689D01*
X142588019Y-83321022D02*
X142588019Y-84521022D01*
X142588019Y-84521022D02*
X142654686Y-84654356D01*
X142654686Y-84654356D02*
X142788019Y-84721022D01*
X142788019Y-84721022D02*
X142921352Y-84721022D01*
X143254686Y-83787689D02*
X143988019Y-83787689D01*
X143988019Y-83787689D02*
X143254686Y-84721022D01*
X143254686Y-84721022D02*
X143988019Y-84721022D01*
X145054685Y-84654356D02*
X144921352Y-84721022D01*
X144921352Y-84721022D02*
X144654685Y-84721022D01*
X144654685Y-84721022D02*
X144521352Y-84654356D01*
X144521352Y-84654356D02*
X144454685Y-84521022D01*
X144454685Y-84521022D02*
X144454685Y-83987689D01*
X144454685Y-83987689D02*
X144521352Y-83854356D01*
X144521352Y-83854356D02*
X144654685Y-83787689D01*
X144654685Y-83787689D02*
X144921352Y-83787689D01*
X144921352Y-83787689D02*
X145054685Y-83854356D01*
X145054685Y-83854356D02*
X145121352Y-83987689D01*
X145121352Y-83987689D02*
X145121352Y-84121022D01*
X145121352Y-84121022D02*
X144454685Y-84254356D01*
X145721352Y-83787689D02*
X145721352Y-84721022D01*
X145721352Y-83921022D02*
X145788019Y-83854356D01*
X145788019Y-83854356D02*
X145921352Y-83787689D01*
X145921352Y-83787689D02*
X146121352Y-83787689D01*
X146121352Y-83787689D02*
X146254685Y-83854356D01*
X146254685Y-83854356D02*
X146321352Y-83987689D01*
X146321352Y-83987689D02*
X146321352Y-84721022D01*
X147654686Y-84721022D02*
X146988019Y-84721022D01*
X146988019Y-84721022D02*
X146988019Y-83321022D01*
X148721352Y-84721022D02*
X148721352Y-83987689D01*
X148721352Y-83987689D02*
X148654685Y-83854356D01*
X148654685Y-83854356D02*
X148521352Y-83787689D01*
X148521352Y-83787689D02*
X148254685Y-83787689D01*
X148254685Y-83787689D02*
X148121352Y-83854356D01*
X148721352Y-84654356D02*
X148588019Y-84721022D01*
X148588019Y-84721022D02*
X148254685Y-84721022D01*
X148254685Y-84721022D02*
X148121352Y-84654356D01*
X148121352Y-84654356D02*
X148054685Y-84521022D01*
X148054685Y-84521022D02*
X148054685Y-84387689D01*
X148054685Y-84387689D02*
X148121352Y-84254356D01*
X148121352Y-84254356D02*
X148254685Y-84187689D01*
X148254685Y-84187689D02*
X148588019Y-84187689D01*
X148588019Y-84187689D02*
X148721352Y-84121022D01*
X149388019Y-84721022D02*
X149388019Y-83321022D01*
X149388019Y-83854356D02*
X149521352Y-83787689D01*
X149521352Y-83787689D02*
X149788019Y-83787689D01*
X149788019Y-83787689D02*
X149921352Y-83854356D01*
X149921352Y-83854356D02*
X149988019Y-83921022D01*
X149988019Y-83921022D02*
X150054686Y-84054356D01*
X150054686Y-84054356D02*
X150054686Y-84454356D01*
X150054686Y-84454356D02*
X149988019Y-84587689D01*
X149988019Y-84587689D02*
X149921352Y-84654356D01*
X149921352Y-84654356D02*
X149788019Y-84721022D01*
X149788019Y-84721022D02*
X149521352Y-84721022D01*
X149521352Y-84721022D02*
X149388019Y-84654356D01*
X150654686Y-84587689D02*
X150721353Y-84654356D01*
X150721353Y-84654356D02*
X150654686Y-84721022D01*
X150654686Y-84721022D02*
X150588019Y-84654356D01*
X150588019Y-84654356D02*
X150654686Y-84587689D01*
X150654686Y-84587689D02*
X150654686Y-84721022D01*
X151321353Y-83787689D02*
X151321353Y-84721022D01*
X151321353Y-83921022D02*
X151388020Y-83854356D01*
X151388020Y-83854356D02*
X151521353Y-83787689D01*
X151521353Y-83787689D02*
X151721353Y-83787689D01*
X151721353Y-83787689D02*
X151854686Y-83854356D01*
X151854686Y-83854356D02*
X151921353Y-83987689D01*
X151921353Y-83987689D02*
X151921353Y-84721022D01*
X153121353Y-84654356D02*
X152988020Y-84721022D01*
X152988020Y-84721022D02*
X152721353Y-84721022D01*
X152721353Y-84721022D02*
X152588020Y-84654356D01*
X152588020Y-84654356D02*
X152521353Y-84521022D01*
X152521353Y-84521022D02*
X152521353Y-83987689D01*
X152521353Y-83987689D02*
X152588020Y-83854356D01*
X152588020Y-83854356D02*
X152721353Y-83787689D01*
X152721353Y-83787689D02*
X152988020Y-83787689D01*
X152988020Y-83787689D02*
X153121353Y-83854356D01*
X153121353Y-83854356D02*
X153188020Y-83987689D01*
X153188020Y-83987689D02*
X153188020Y-84121022D01*
X153188020Y-84121022D02*
X152521353Y-84254356D01*
X153588020Y-83787689D02*
X154121353Y-83787689D01*
X153788020Y-83321022D02*
X153788020Y-84521022D01*
X153788020Y-84521022D02*
X153854687Y-84654356D01*
X153854687Y-84654356D02*
X153988020Y-84721022D01*
X153988020Y-84721022D02*
X154121353Y-84721022D01*
X131588017Y-89162200D02*
X131454684Y-89228866D01*
X131454684Y-89228866D02*
X131188017Y-89228866D01*
X131188017Y-89228866D02*
X131054684Y-89162200D01*
X131054684Y-89162200D02*
X130988017Y-89095533D01*
X130988017Y-89095533D02*
X130921350Y-88962200D01*
X130921350Y-88962200D02*
X130921350Y-88562200D01*
X130921350Y-88562200D02*
X130988017Y-88428866D01*
X130988017Y-88428866D02*
X131054684Y-88362200D01*
X131054684Y-88362200D02*
X131188017Y-88295533D01*
X131188017Y-88295533D02*
X131454684Y-88295533D01*
X131454684Y-88295533D02*
X131588017Y-88362200D01*
X132388017Y-89228866D02*
X132254684Y-89162200D01*
X132254684Y-89162200D02*
X132188017Y-89028866D01*
X132188017Y-89028866D02*
X132188017Y-87828866D01*
X133121350Y-89228866D02*
X132988017Y-89162200D01*
X132988017Y-89162200D02*
X132921350Y-89095533D01*
X132921350Y-89095533D02*
X132854683Y-88962200D01*
X132854683Y-88962200D02*
X132854683Y-88562200D01*
X132854683Y-88562200D02*
X132921350Y-88428866D01*
X132921350Y-88428866D02*
X132988017Y-88362200D01*
X132988017Y-88362200D02*
X133121350Y-88295533D01*
X133121350Y-88295533D02*
X133321350Y-88295533D01*
X133321350Y-88295533D02*
X133454683Y-88362200D01*
X133454683Y-88362200D02*
X133521350Y-88428866D01*
X133521350Y-88428866D02*
X133588017Y-88562200D01*
X133588017Y-88562200D02*
X133588017Y-88962200D01*
X133588017Y-88962200D02*
X133521350Y-89095533D01*
X133521350Y-89095533D02*
X133454683Y-89162200D01*
X133454683Y-89162200D02*
X133321350Y-89228866D01*
X133321350Y-89228866D02*
X133121350Y-89228866D01*
X134054684Y-88295533D02*
X134388017Y-89228866D01*
X134388017Y-89228866D02*
X134721350Y-88295533D01*
X135254684Y-89228866D02*
X135254684Y-88295533D01*
X135254684Y-87828866D02*
X135188017Y-87895533D01*
X135188017Y-87895533D02*
X135254684Y-87962200D01*
X135254684Y-87962200D02*
X135321351Y-87895533D01*
X135321351Y-87895533D02*
X135254684Y-87828866D01*
X135254684Y-87828866D02*
X135254684Y-87962200D01*
X135854684Y-89162200D02*
X135988018Y-89228866D01*
X135988018Y-89228866D02*
X136254684Y-89228866D01*
X136254684Y-89228866D02*
X136388018Y-89162200D01*
X136388018Y-89162200D02*
X136454684Y-89028866D01*
X136454684Y-89028866D02*
X136454684Y-88962200D01*
X136454684Y-88962200D02*
X136388018Y-88828866D01*
X136388018Y-88828866D02*
X136254684Y-88762200D01*
X136254684Y-88762200D02*
X136054684Y-88762200D01*
X136054684Y-88762200D02*
X135921351Y-88695533D01*
X135921351Y-88695533D02*
X135854684Y-88562200D01*
X135854684Y-88562200D02*
X135854684Y-88495533D01*
X135854684Y-88495533D02*
X135921351Y-88362200D01*
X135921351Y-88362200D02*
X136054684Y-88295533D01*
X136054684Y-88295533D02*
X136254684Y-88295533D01*
X136254684Y-88295533D02*
X136388018Y-88362200D01*
X136854684Y-88295533D02*
X137388017Y-88295533D01*
X137054684Y-89228866D02*
X137054684Y-88028866D01*
X137054684Y-88028866D02*
X137121351Y-87895533D01*
X137121351Y-87895533D02*
X137254684Y-87828866D01*
X137254684Y-87828866D02*
X137388017Y-87828866D01*
X138721351Y-88562200D02*
X138654684Y-88495533D01*
X138654684Y-88495533D02*
X138521351Y-88428866D01*
X138521351Y-88428866D02*
X138388017Y-88428866D01*
X138388017Y-88428866D02*
X138254684Y-88495533D01*
X138254684Y-88495533D02*
X138188017Y-88562200D01*
X138188017Y-88562200D02*
X138121351Y-88695533D01*
X138121351Y-88695533D02*
X138121351Y-88828866D01*
X138121351Y-88828866D02*
X138188017Y-88962200D01*
X138188017Y-88962200D02*
X138254684Y-89028866D01*
X138254684Y-89028866D02*
X138388017Y-89095533D01*
X138388017Y-89095533D02*
X138521351Y-89095533D01*
X138521351Y-89095533D02*
X138654684Y-89028866D01*
X138654684Y-89028866D02*
X138721351Y-88962200D01*
X138721351Y-88428866D02*
X138721351Y-88962200D01*
X138721351Y-88962200D02*
X138788017Y-89028866D01*
X138788017Y-89028866D02*
X138854684Y-89028866D01*
X138854684Y-89028866D02*
X138988017Y-88962200D01*
X138988017Y-88962200D02*
X139054684Y-88828866D01*
X139054684Y-88828866D02*
X139054684Y-88495533D01*
X139054684Y-88495533D02*
X138921351Y-88295533D01*
X138921351Y-88295533D02*
X138721351Y-88162200D01*
X138721351Y-88162200D02*
X138454684Y-88095533D01*
X138454684Y-88095533D02*
X138188017Y-88162200D01*
X138188017Y-88162200D02*
X137988017Y-88295533D01*
X137988017Y-88295533D02*
X137854684Y-88495533D01*
X137854684Y-88495533D02*
X137788017Y-88762200D01*
X137788017Y-88762200D02*
X137854684Y-89028866D01*
X137854684Y-89028866D02*
X137988017Y-89228866D01*
X137988017Y-89228866D02*
X138188017Y-89362200D01*
X138188017Y-89362200D02*
X138454684Y-89428866D01*
X138454684Y-89428866D02*
X138721351Y-89362200D01*
X138721351Y-89362200D02*
X138921351Y-89228866D01*
X140254684Y-88295533D02*
X140254684Y-89428866D01*
X140254684Y-89428866D02*
X140188017Y-89562200D01*
X140188017Y-89562200D02*
X140121351Y-89628866D01*
X140121351Y-89628866D02*
X139988017Y-89695533D01*
X139988017Y-89695533D02*
X139788017Y-89695533D01*
X139788017Y-89695533D02*
X139654684Y-89628866D01*
X140254684Y-89162200D02*
X140121351Y-89228866D01*
X140121351Y-89228866D02*
X139854684Y-89228866D01*
X139854684Y-89228866D02*
X139721351Y-89162200D01*
X139721351Y-89162200D02*
X139654684Y-89095533D01*
X139654684Y-89095533D02*
X139588017Y-88962200D01*
X139588017Y-88962200D02*
X139588017Y-88562200D01*
X139588017Y-88562200D02*
X139654684Y-88428866D01*
X139654684Y-88428866D02*
X139721351Y-88362200D01*
X139721351Y-88362200D02*
X139854684Y-88295533D01*
X139854684Y-88295533D02*
X140121351Y-88295533D01*
X140121351Y-88295533D02*
X140254684Y-88362200D01*
X140921351Y-89228866D02*
X140921351Y-88295533D01*
X140921351Y-88428866D02*
X140988018Y-88362200D01*
X140988018Y-88362200D02*
X141121351Y-88295533D01*
X141121351Y-88295533D02*
X141321351Y-88295533D01*
X141321351Y-88295533D02*
X141454684Y-88362200D01*
X141454684Y-88362200D02*
X141521351Y-88495533D01*
X141521351Y-88495533D02*
X141521351Y-89228866D01*
X141521351Y-88495533D02*
X141588018Y-88362200D01*
X141588018Y-88362200D02*
X141721351Y-88295533D01*
X141721351Y-88295533D02*
X141921351Y-88295533D01*
X141921351Y-88295533D02*
X142054684Y-88362200D01*
X142054684Y-88362200D02*
X142121351Y-88495533D01*
X142121351Y-88495533D02*
X142121351Y-89228866D01*
X143388018Y-89228866D02*
X143388018Y-88495533D01*
X143388018Y-88495533D02*
X143321351Y-88362200D01*
X143321351Y-88362200D02*
X143188018Y-88295533D01*
X143188018Y-88295533D02*
X142921351Y-88295533D01*
X142921351Y-88295533D02*
X142788018Y-88362200D01*
X143388018Y-89162200D02*
X143254685Y-89228866D01*
X143254685Y-89228866D02*
X142921351Y-89228866D01*
X142921351Y-89228866D02*
X142788018Y-89162200D01*
X142788018Y-89162200D02*
X142721351Y-89028866D01*
X142721351Y-89028866D02*
X142721351Y-88895533D01*
X142721351Y-88895533D02*
X142788018Y-88762200D01*
X142788018Y-88762200D02*
X142921351Y-88695533D01*
X142921351Y-88695533D02*
X143254685Y-88695533D01*
X143254685Y-88695533D02*
X143388018Y-88628866D01*
X144054685Y-89228866D02*
X144054685Y-88295533D01*
X144054685Y-87828866D02*
X143988018Y-87895533D01*
X143988018Y-87895533D02*
X144054685Y-87962200D01*
X144054685Y-87962200D02*
X144121352Y-87895533D01*
X144121352Y-87895533D02*
X144054685Y-87828866D01*
X144054685Y-87828866D02*
X144054685Y-87962200D01*
X144921352Y-89228866D02*
X144788019Y-89162200D01*
X144788019Y-89162200D02*
X144721352Y-89028866D01*
X144721352Y-89028866D02*
X144721352Y-87828866D01*
X145454685Y-89095533D02*
X145521352Y-89162200D01*
X145521352Y-89162200D02*
X145454685Y-89228866D01*
X145454685Y-89228866D02*
X145388018Y-89162200D01*
X145388018Y-89162200D02*
X145454685Y-89095533D01*
X145454685Y-89095533D02*
X145454685Y-89228866D01*
X146721352Y-89162200D02*
X146588019Y-89228866D01*
X146588019Y-89228866D02*
X146321352Y-89228866D01*
X146321352Y-89228866D02*
X146188019Y-89162200D01*
X146188019Y-89162200D02*
X146121352Y-89095533D01*
X146121352Y-89095533D02*
X146054685Y-88962200D01*
X146054685Y-88962200D02*
X146054685Y-88562200D01*
X146054685Y-88562200D02*
X146121352Y-88428866D01*
X146121352Y-88428866D02*
X146188019Y-88362200D01*
X146188019Y-88362200D02*
X146321352Y-88295533D01*
X146321352Y-88295533D02*
X146588019Y-88295533D01*
X146588019Y-88295533D02*
X146721352Y-88362200D01*
X147521352Y-89228866D02*
X147388019Y-89162200D01*
X147388019Y-89162200D02*
X147321352Y-89095533D01*
X147321352Y-89095533D02*
X147254685Y-88962200D01*
X147254685Y-88962200D02*
X147254685Y-88562200D01*
X147254685Y-88562200D02*
X147321352Y-88428866D01*
X147321352Y-88428866D02*
X147388019Y-88362200D01*
X147388019Y-88362200D02*
X147521352Y-88295533D01*
X147521352Y-88295533D02*
X147721352Y-88295533D01*
X147721352Y-88295533D02*
X147854685Y-88362200D01*
X147854685Y-88362200D02*
X147921352Y-88428866D01*
X147921352Y-88428866D02*
X147988019Y-88562200D01*
X147988019Y-88562200D02*
X147988019Y-88962200D01*
X147988019Y-88962200D02*
X147921352Y-89095533D01*
X147921352Y-89095533D02*
X147854685Y-89162200D01*
X147854685Y-89162200D02*
X147721352Y-89228866D01*
X147721352Y-89228866D02*
X147521352Y-89228866D01*
X148588019Y-89228866D02*
X148588019Y-88295533D01*
X148588019Y-88428866D02*
X148654686Y-88362200D01*
X148654686Y-88362200D02*
X148788019Y-88295533D01*
X148788019Y-88295533D02*
X148988019Y-88295533D01*
X148988019Y-88295533D02*
X149121352Y-88362200D01*
X149121352Y-88362200D02*
X149188019Y-88495533D01*
X149188019Y-88495533D02*
X149188019Y-89228866D01*
X149188019Y-88495533D02*
X149254686Y-88362200D01*
X149254686Y-88362200D02*
X149388019Y-88295533D01*
X149388019Y-88295533D02*
X149588019Y-88295533D01*
X149588019Y-88295533D02*
X149721352Y-88362200D01*
X149721352Y-88362200D02*
X149788019Y-88495533D01*
X149788019Y-88495533D02*
X149788019Y-89228866D01*
D11*
%TO.C,D27*%
X108625000Y-63960000D03*
X110500000Y-63960000D03*
%TD*%
%TO.C,D33*%
X103625000Y-63960000D03*
X105500000Y-63960000D03*
%TD*%
D12*
%TO.C,R1*%
X156912500Y-56000000D03*
X155087500Y-56000000D03*
%TD*%
D11*
%TO.C,D5*%
X126562500Y-70500000D03*
X128437500Y-70500000D03*
%TD*%
D13*
%TO.C,D1*%
X128437500Y-57500000D03*
X126562500Y-57500000D03*
%TD*%
D11*
%TO.C,D12*%
X117625000Y-57500000D03*
X119500000Y-57500000D03*
%TD*%
D13*
%TO.C,D16*%
X119437500Y-67040000D03*
X117562500Y-67040000D03*
%TD*%
%TO.C,D4*%
X128437500Y-67000000D03*
X126562500Y-67000000D03*
%TD*%
%TO.C,D7*%
X123937500Y-57500000D03*
X122062500Y-57500000D03*
%TD*%
%TO.C,D6*%
X128500000Y-73500000D03*
X126625000Y-73500000D03*
%TD*%
%TO.C,D14*%
X119500000Y-60500000D03*
X117625000Y-60500000D03*
%TD*%
%TO.C,D22*%
X119437500Y-73500000D03*
X117562500Y-73500000D03*
%TD*%
D14*
%TO.C,R8*%
X154587500Y-96500000D03*
X156412500Y-96500000D03*
%TD*%
D11*
%TO.C,D35*%
X103625000Y-70500000D03*
X105500000Y-70500000D03*
%TD*%
D15*
%TO.C,SW1*%
X149250000Y-99750000D03*
X155750000Y-99750000D03*
X149250000Y-104250000D03*
X155750000Y-104250000D03*
%TD*%
D12*
%TO.C,R3*%
X156912500Y-63500000D03*
X155087500Y-63500000D03*
%TD*%
D13*
%TO.C,D30*%
X110437500Y-73500000D03*
X108562500Y-73500000D03*
%TD*%
%TO.C,D9*%
X124000000Y-64000000D03*
X122125000Y-64000000D03*
%TD*%
D12*
%TO.C,R4*%
X156912500Y-66000000D03*
X155087500Y-66000000D03*
%TD*%
D16*
%TO.C,J1*%
X111960000Y-78900000D03*
X114500000Y-78900000D03*
X117040000Y-78900000D03*
X119580000Y-78900000D03*
%TD*%
D13*
%TO.C,D36*%
X105500000Y-73540000D03*
X103625000Y-73540000D03*
%TD*%
%TO.C,D23*%
X115000000Y-57500000D03*
X113125000Y-57500000D03*
%TD*%
%TO.C,D17*%
X115000000Y-64000000D03*
X113125000Y-64000000D03*
%TD*%
D11*
%TO.C,D8*%
X122125000Y-60500000D03*
X124000000Y-60500000D03*
%TD*%
D13*
%TO.C,D34*%
X105500000Y-67000000D03*
X103625000Y-67000000D03*
%TD*%
D11*
%TO.C,D19*%
X113125000Y-70500000D03*
X115000000Y-70500000D03*
%TD*%
%TO.C,D10*%
X122125000Y-67040000D03*
X124000000Y-67040000D03*
%TD*%
D13*
%TO.C,D20*%
X115000000Y-73540000D03*
X113125000Y-73540000D03*
%TD*%
D12*
%TO.C,R2*%
X156912500Y-58500000D03*
X155087500Y-58500000D03*
%TD*%
%TO.C,R6*%
X156912500Y-71000000D03*
X155087500Y-71000000D03*
%TD*%
D11*
%TO.C,D29*%
X108562500Y-70500000D03*
X110437500Y-70500000D03*
%TD*%
%TO.C,D21*%
X117562500Y-70500000D03*
X119437500Y-70500000D03*
%TD*%
D17*
%TO.C,R9*%
X154500000Y-93325000D03*
X154500000Y-91500000D03*
%TD*%
D11*
%TO.C,D11*%
X122125000Y-70500000D03*
X124000000Y-70500000D03*
%TD*%
D13*
%TO.C,D31*%
X105500000Y-57500000D03*
X103625000Y-57500000D03*
%TD*%
%TO.C,D26*%
X110500000Y-60500000D03*
X108625000Y-60500000D03*
%TD*%
D11*
%TO.C,D24*%
X113125000Y-60540000D03*
X115000000Y-60540000D03*
%TD*%
D18*
%TO.C,U1*%
X169275000Y-56000000D03*
D19*
X169575000Y-59030000D03*
X174425000Y-59030000D03*
D18*
X174725000Y-56000000D03*
D20*
X163110000Y-55870000D03*
D21*
X162210000Y-55870000D03*
D20*
X163110000Y-58410000D03*
D21*
X162210000Y-58410000D03*
D22*
X163110000Y-60950000D03*
D21*
X162210000Y-60950000D03*
D20*
X163110000Y-63490000D03*
D21*
X162210000Y-63490000D03*
D20*
X163110000Y-66030000D03*
D21*
X162210000Y-66030000D03*
D20*
X163110000Y-68570000D03*
D21*
X162210000Y-68570000D03*
D20*
X163110000Y-71110000D03*
D21*
X162210000Y-71110000D03*
D22*
X163110000Y-73650000D03*
D21*
X162210000Y-73650000D03*
D20*
X163110000Y-76190000D03*
D21*
X162210000Y-76190000D03*
D20*
X163110000Y-78730000D03*
D21*
X162210000Y-78730000D03*
D20*
X163110000Y-81270000D03*
D21*
X162210000Y-81270000D03*
D20*
X163110000Y-83810000D03*
D21*
X162210000Y-83810000D03*
D22*
X163110000Y-86350000D03*
D21*
X162210000Y-86350000D03*
D20*
X163110000Y-88890000D03*
D21*
X162210000Y-88890000D03*
D20*
X163110000Y-91430000D03*
D21*
X162210000Y-91430000D03*
D20*
X163110000Y-93970000D03*
D21*
X162210000Y-93970000D03*
D20*
X163110000Y-96510000D03*
D21*
X162210000Y-96510000D03*
D22*
X163110000Y-99050000D03*
D21*
X162210000Y-99050000D03*
D20*
X163110000Y-101590000D03*
D21*
X162210000Y-101590000D03*
D20*
X163110000Y-104130000D03*
D21*
X162210000Y-104130000D03*
D20*
X180890000Y-104130000D03*
D21*
X181790000Y-104130000D03*
D20*
X180890000Y-101590000D03*
D21*
X181790000Y-101590000D03*
D22*
X180890000Y-99050000D03*
D21*
X181790000Y-99050000D03*
D20*
X180890000Y-96510000D03*
D21*
X181790000Y-96510000D03*
D20*
X180890000Y-93970000D03*
D21*
X181790000Y-93970000D03*
D20*
X180890000Y-91430000D03*
D21*
X181790000Y-91430000D03*
D20*
X180890000Y-88890000D03*
D21*
X181790000Y-88890000D03*
D22*
X180890000Y-86350000D03*
D21*
X181790000Y-86350000D03*
D20*
X180890000Y-83810000D03*
D21*
X181790000Y-83810000D03*
D20*
X180890000Y-81270000D03*
D21*
X181790000Y-81270000D03*
D20*
X180890000Y-78730000D03*
D21*
X181790000Y-78730000D03*
D20*
X180890000Y-76190000D03*
D21*
X181790000Y-76190000D03*
D22*
X180890000Y-73650000D03*
D21*
X181790000Y-73650000D03*
D20*
X180890000Y-71110000D03*
D21*
X181790000Y-71110000D03*
D20*
X180890000Y-68570000D03*
D21*
X181790000Y-68570000D03*
D20*
X180890000Y-66030000D03*
D21*
X181790000Y-66030000D03*
D20*
X180890000Y-63490000D03*
D21*
X181790000Y-63490000D03*
D22*
X180890000Y-60950000D03*
D21*
X181790000Y-60950000D03*
D20*
X180890000Y-58410000D03*
D21*
X181790000Y-58410000D03*
D20*
X180890000Y-55870000D03*
D21*
X181790000Y-55870000D03*
D20*
X169460000Y-103900000D03*
D23*
X169460000Y-104800000D03*
D22*
X172000000Y-103900000D03*
D23*
X172000000Y-104800000D03*
D20*
X174540000Y-103900000D03*
D23*
X174540000Y-104800000D03*
%TD*%
D11*
%TO.C,D2*%
X126562500Y-60500000D03*
X128437500Y-60500000D03*
%TD*%
%TO.C,D18*%
X113125000Y-67040000D03*
X115000000Y-67040000D03*
%TD*%
D12*
%TO.C,R5*%
X156912500Y-68500000D03*
X155087500Y-68500000D03*
%TD*%
D11*
%TO.C,D32*%
X103625000Y-60500000D03*
X105500000Y-60500000D03*
%TD*%
%TO.C,D3*%
X126562500Y-64000000D03*
X128437500Y-64000000D03*
%TD*%
%TO.C,D25*%
X108625000Y-57460000D03*
X110500000Y-57460000D03*
%TD*%
D13*
%TO.C,D28*%
X110500000Y-67000000D03*
X108625000Y-67000000D03*
%TD*%
D12*
%TO.C,R7*%
X156912500Y-76000000D03*
X155087500Y-76000000D03*
%TD*%
D13*
%TO.C,D13*%
X123937500Y-73500000D03*
X122062500Y-73500000D03*
%TD*%
D11*
%TO.C,D15*%
X117562500Y-64000000D03*
X119437500Y-64000000D03*
%TD*%
M02*
