%TF.GenerationSoftware,KiCad,Pcbnew,8.0.1*%
%TF.CreationDate,2024-07-30T09:20:38-03:00*%
%TF.ProjectId,business-card-pi-pico,62757369-6e65-4737-932d-636172642d70,rev?*%
%TF.SameCoordinates,Original*%
%TF.FileFunction,Copper,L1,Top*%
%TF.FilePolarity,Positive*%
%FSLAX46Y46*%
G04 Gerber Fmt 4.6, Leading zero omitted, Abs format (unit mm)*
G04 Created by KiCad (PCBNEW 8.0.1) date 2024-07-30 09:20:38*
%MOMM*%
%LPD*%
G01*
G04 APERTURE LIST*
G04 Aperture macros list*
%AMRoundRect*
0 Rectangle with rounded corners*
0 $1 Rounding radius*
0 $2 $3 $4 $5 $6 $7 $8 $9 X,Y pos of 4 corners*
0 Add a 4 corners polygon primitive as box body*
4,1,4,$2,$3,$4,$5,$6,$7,$8,$9,$2,$3,0*
0 Add four circle primitives for the rounded corners*
1,1,$1+$1,$2,$3*
1,1,$1+$1,$4,$5*
1,1,$1+$1,$6,$7*
1,1,$1+$1,$8,$9*
0 Add four rect primitives between the rounded corners*
20,1,$1+$1,$2,$3,$4,$5,0*
20,1,$1+$1,$4,$5,$6,$7,0*
20,1,$1+$1,$6,$7,$8,$9,0*
20,1,$1+$1,$8,$9,$2,$3,0*%
G04 Aperture macros list end*
%TA.AperFunction,Conductor*%
%ADD10C,4.974429*%
%TD*%
%TA.AperFunction,SMDPad,CuDef*%
%ADD11RoundRect,0.243750X-0.243750X-0.456250X0.243750X-0.456250X0.243750X0.456250X-0.243750X0.456250X0*%
%TD*%
%TA.AperFunction,SMDPad,CuDef*%
%ADD12RoundRect,0.250000X0.262500X0.450000X-0.262500X0.450000X-0.262500X-0.450000X0.262500X-0.450000X0*%
%TD*%
%TA.AperFunction,SMDPad,CuDef*%
%ADD13RoundRect,0.243750X0.243750X0.456250X-0.243750X0.456250X-0.243750X-0.456250X0.243750X-0.456250X0*%
%TD*%
%TA.AperFunction,SMDPad,CuDef*%
%ADD14RoundRect,0.250000X-0.262500X-0.450000X0.262500X-0.450000X0.262500X0.450000X-0.262500X0.450000X0*%
%TD*%
%TA.AperFunction,ComponentPad*%
%ADD15C,2.000000*%
%TD*%
%TA.AperFunction,ComponentPad*%
%ADD16O,1.600000X2.000000*%
%TD*%
%TA.AperFunction,SMDPad,CuDef*%
%ADD17RoundRect,0.250000X0.450000X-0.262500X0.450000X0.262500X-0.450000X0.262500X-0.450000X-0.262500X0*%
%TD*%
%TA.AperFunction,ComponentPad*%
%ADD18O,1.700000X1.700000*%
%TD*%
%TA.AperFunction,SMDPad,CuDef*%
%ADD19R,3.500000X1.700000*%
%TD*%
%TA.AperFunction,ComponentPad*%
%ADD20R,1.700000X1.700000*%
%TD*%
%TA.AperFunction,SMDPad,CuDef*%
%ADD21R,1.700000X3.500000*%
%TD*%
%TA.AperFunction,ViaPad*%
%ADD22C,0.600000*%
%TD*%
%TA.AperFunction,Conductor*%
%ADD23C,0.200000*%
%TD*%
G04 APERTURE END LIST*
%TO.N,Net-(R8-Pad1)*%
D10*
X141987214Y-100500000D02*
G75*
G02*
X137012786Y-100500000I-2487214J0D01*
G01*
X137012786Y-100500000D02*
G75*
G02*
X141987214Y-100500000I2487214J0D01*
G01*
%TD*%
D11*
%TO.P,D27,1,K*%
%TO.N,Net-(D12-A)*%
X108625000Y-63960000D03*
%TO.P,D27,2,A*%
%TO.N,Net-(D11-K)*%
X110500000Y-63960000D03*
%TD*%
%TO.P,D33,1,K*%
%TO.N,Net-(D1-K)*%
X103625000Y-63960000D03*
%TO.P,D33,2,A*%
%TO.N,Net-(D17-K)*%
X105500000Y-63960000D03*
%TD*%
D12*
%TO.P,R1,1*%
%TO.N,pin1*%
X156912500Y-56000000D03*
%TO.P,R1,2*%
%TO.N,Net-(D1-A)*%
X155087500Y-56000000D03*
%TD*%
D11*
%TO.P,D5,1,K*%
%TO.N,Net-(D17-K)*%
X126562500Y-70500000D03*
%TO.P,D5,2,A*%
%TO.N,Net-(D12-A)*%
X128437500Y-70500000D03*
%TD*%
D13*
%TO.P,D1,1,K*%
%TO.N,Net-(D1-K)*%
X128437500Y-57500000D03*
%TO.P,D1,2,A*%
%TO.N,Net-(D1-A)*%
X126562500Y-57500000D03*
%TD*%
D11*
%TO.P,D12,1,K*%
%TO.N,Net-(D1-A)*%
X117625000Y-57500000D03*
%TO.P,D12,2,A*%
%TO.N,Net-(D12-A)*%
X119500000Y-57500000D03*
%TD*%
D13*
%TO.P,D16,1,K*%
%TO.N,Net-(D10-K)*%
X119437500Y-67040000D03*
%TO.P,D16,2,A*%
%TO.N,Net-(D12-A)*%
X117562500Y-67040000D03*
%TD*%
%TO.P,D4,1,K*%
%TO.N,Net-(D1-K)*%
X128437500Y-67000000D03*
%TO.P,D4,2,A*%
%TO.N,Net-(D12-A)*%
X126562500Y-67000000D03*
%TD*%
%TO.P,D7,1,K*%
%TO.N,Net-(D10-K)*%
X123937500Y-57500000D03*
%TO.P,D7,2,A*%
%TO.N,Net-(D17-K)*%
X122062500Y-57500000D03*
%TD*%
%TO.P,D6,1,K*%
%TO.N,Net-(D12-A)*%
X128500000Y-73500000D03*
%TO.P,D6,2,A*%
%TO.N,Net-(D17-K)*%
X126625000Y-73500000D03*
%TD*%
%TO.P,D14,1,K*%
%TO.N,Net-(D12-A)*%
X119500000Y-60500000D03*
%TO.P,D14,2,A*%
%TO.N,Net-(D1-A)*%
X117625000Y-60500000D03*
%TD*%
%TO.P,D22,1,K*%
%TO.N,Net-(D11-K)*%
X119437500Y-73500000D03*
%TO.P,D22,2,A*%
%TO.N,Net-(D10-K)*%
X117562500Y-73500000D03*
%TD*%
D14*
%TO.P,R8,1*%
%TO.N,Net-(R8-Pad1)*%
X154587500Y-96500000D03*
%TO.P,R8,2*%
%TO.N,3V3*%
X156412500Y-96500000D03*
%TD*%
D11*
%TO.P,D35,1,K*%
%TO.N,Net-(D1-K)*%
X103625000Y-70500000D03*
%TO.P,D35,2,A*%
%TO.N,Net-(D10-K)*%
X105500000Y-70500000D03*
%TD*%
D15*
%TO.P,SW1,1,1*%
%TO.N,GND*%
X149250000Y-99750000D03*
X155750000Y-99750000D03*
%TO.P,SW1,2,2*%
%TO.N,Net-(R8-Pad1)*%
X149250000Y-104250000D03*
X155750000Y-104250000D03*
%TD*%
D12*
%TO.P,R3,1*%
%TO.N,pin3*%
X156912500Y-63500000D03*
%TO.P,R3,2*%
%TO.N,Net-(D12-A)*%
X155087500Y-63500000D03*
%TD*%
D13*
%TO.P,D30,1,K*%
%TO.N,Net-(D11-K)*%
X110437500Y-73500000D03*
%TO.P,D30,2,A*%
%TO.N,Net-(D1-K)*%
X108562500Y-73500000D03*
%TD*%
%TO.P,D9,1,K*%
%TO.N,Net-(D10-A)*%
X124000000Y-64000000D03*
%TO.P,D9,2,A*%
%TO.N,Net-(D10-K)*%
X122125000Y-64000000D03*
%TD*%
D12*
%TO.P,R4,1*%
%TO.N,pin4*%
X156912500Y-66000000D03*
%TO.P,R4,2*%
%TO.N,Net-(D17-K)*%
X155087500Y-66000000D03*
%TD*%
D16*
%TO.P,J1,1,Pin_1*%
%TO.N,3V3*%
X111960000Y-78900000D03*
%TO.P,J1,2,Pin_2*%
%TO.N,GND*%
X114500000Y-78900000D03*
%TO.P,J1,3,Pin_3*%
%TO.N,SCL*%
X117040000Y-78900000D03*
%TO.P,J1,4,Pin_4*%
%TO.N,SDA*%
X119580000Y-78900000D03*
%TD*%
D13*
%TO.P,D36,1,K*%
%TO.N,Net-(D10-K)*%
X105500000Y-73540000D03*
%TO.P,D36,2,A*%
%TO.N,Net-(D1-K)*%
X103625000Y-73540000D03*
%TD*%
%TO.P,D23,1,K*%
%TO.N,Net-(D1-A)*%
X115000000Y-57500000D03*
%TO.P,D23,2,A*%
%TO.N,Net-(D17-K)*%
X113125000Y-57500000D03*
%TD*%
%TO.P,D17,1,K*%
%TO.N,Net-(D17-K)*%
X115000000Y-64000000D03*
%TO.P,D17,2,A*%
%TO.N,Net-(D11-K)*%
X113125000Y-64000000D03*
%TD*%
D11*
%TO.P,D8,1,K*%
%TO.N,Net-(D17-K)*%
X122125000Y-60500000D03*
%TO.P,D8,2,A*%
%TO.N,Net-(D10-K)*%
X124000000Y-60500000D03*
%TD*%
D13*
%TO.P,D34,1,K*%
%TO.N,Net-(D17-K)*%
X105500000Y-67000000D03*
%TO.P,D34,2,A*%
%TO.N,Net-(D1-K)*%
X103625000Y-67000000D03*
%TD*%
D11*
%TO.P,D19,1,K*%
%TO.N,Net-(D1-A)*%
X113125000Y-70500000D03*
%TO.P,D19,2,A*%
%TO.N,Net-(D10-K)*%
X115000000Y-70500000D03*
%TD*%
%TO.P,D10,1,K*%
%TO.N,Net-(D10-K)*%
X122125000Y-67040000D03*
%TO.P,D10,2,A*%
%TO.N,Net-(D10-A)*%
X124000000Y-67040000D03*
%TD*%
D13*
%TO.P,D20,1,K*%
%TO.N,Net-(D10-K)*%
X115000000Y-73540000D03*
%TO.P,D20,2,A*%
%TO.N,Net-(D1-A)*%
X113125000Y-73540000D03*
%TD*%
D12*
%TO.P,R2,1*%
%TO.N,pin2*%
X156912500Y-58500000D03*
%TO.P,R2,2*%
%TO.N,Net-(D1-K)*%
X155087500Y-58500000D03*
%TD*%
%TO.P,R6,1*%
%TO.N,pin6*%
X156912500Y-71000000D03*
%TO.P,R6,2*%
%TO.N,Net-(D10-A)*%
X155087500Y-71000000D03*
%TD*%
D11*
%TO.P,D29,1,K*%
%TO.N,Net-(D1-K)*%
X108562500Y-70500000D03*
%TO.P,D29,2,A*%
%TO.N,Net-(D11-K)*%
X110437500Y-70500000D03*
%TD*%
%TO.P,D21,1,K*%
%TO.N,Net-(D10-K)*%
X117562500Y-70500000D03*
%TO.P,D21,2,A*%
%TO.N,Net-(D11-K)*%
X119437500Y-70500000D03*
%TD*%
D17*
%TO.P,R9,1*%
%TO.N,Net-(R8-Pad1)*%
X154500000Y-93325000D03*
%TO.P,R9,2*%
%TO.N,Capacitive_touch*%
X154500000Y-91500000D03*
%TD*%
D11*
%TO.P,D11,1,K*%
%TO.N,Net-(D11-K)*%
X122125000Y-70500000D03*
%TO.P,D11,2,A*%
%TO.N,Net-(D10-A)*%
X124000000Y-70500000D03*
%TD*%
D13*
%TO.P,D31,1,K*%
%TO.N,Net-(D1-A)*%
X105500000Y-57500000D03*
%TO.P,D31,2,A*%
%TO.N,Net-(D11-K)*%
X103625000Y-57500000D03*
%TD*%
%TO.P,D26,1,K*%
%TO.N,Net-(D10-A)*%
X110500000Y-60500000D03*
%TO.P,D26,2,A*%
%TO.N,Net-(D1-A)*%
X108625000Y-60500000D03*
%TD*%
D11*
%TO.P,D24,1,K*%
%TO.N,Net-(D17-K)*%
X113125000Y-60540000D03*
%TO.P,D24,2,A*%
%TO.N,Net-(D1-A)*%
X115000000Y-60540000D03*
%TD*%
D18*
%TO.P,U1,1,GPIO0*%
%TO.N,pin1*%
X163110000Y-55870000D03*
D19*
X162210000Y-55870000D03*
D18*
%TO.P,U1,2,GPIO1*%
%TO.N,pin2*%
X163110000Y-58410000D03*
D19*
X162210000Y-58410000D03*
D20*
%TO.P,U1,3,GND*%
%TO.N,GND*%
X163110000Y-60950000D03*
D19*
X162210000Y-60950000D03*
D18*
%TO.P,U1,4,GPIO2*%
%TO.N,pin3*%
X163110000Y-63490000D03*
D19*
X162210000Y-63490000D03*
D18*
%TO.P,U1,5,GPIO3*%
%TO.N,pin4*%
X163110000Y-66030000D03*
D19*
X162210000Y-66030000D03*
D18*
%TO.P,U1,6,GPIO4*%
%TO.N,pin5*%
X163110000Y-68570000D03*
D19*
X162210000Y-68570000D03*
D18*
%TO.P,U1,7,GPIO5*%
%TO.N,pin6*%
X163110000Y-71110000D03*
D19*
X162210000Y-71110000D03*
D20*
%TO.P,U1,8,GND*%
%TO.N,GND*%
X163110000Y-73650000D03*
D19*
X162210000Y-73650000D03*
D18*
%TO.P,U1,9,GPIO6*%
%TO.N,pin7*%
X163110000Y-76190000D03*
D19*
X162210000Y-76190000D03*
D18*
%TO.P,U1,10,GPIO7*%
%TO.N,Capacitive_touch*%
X163110000Y-78730000D03*
D19*
X162210000Y-78730000D03*
D18*
%TO.P,U1,11,GPIO8*%
%TO.N,unconnected-(U1-GPIO8-Pad11)*%
X163110000Y-81270000D03*
D19*
X162210000Y-81270000D03*
D18*
%TO.P,U1,12,GPIO9*%
%TO.N,unconnected-(U1-GPIO9-Pad12)*%
X163110000Y-83810000D03*
D19*
X162210000Y-83810000D03*
D20*
%TO.P,U1,13,GND*%
%TO.N,GND*%
X163110000Y-86350000D03*
D19*
X162210000Y-86350000D03*
D18*
%TO.P,U1,14,GPIO10*%
%TO.N,SDA*%
X163110000Y-88890000D03*
D19*
X162210000Y-88890000D03*
D18*
%TO.P,U1,15,GPIO11*%
%TO.N,SCL*%
X163110000Y-91430000D03*
D19*
X162210000Y-91430000D03*
D18*
%TO.P,U1,16,GPIO12*%
%TO.N,unconnected-(U1-GPIO12-Pad16)*%
X163110000Y-93970000D03*
D19*
X162210000Y-93970000D03*
D18*
%TO.P,U1,17,GPIO13*%
%TO.N,unconnected-(U1-GPIO13-Pad17)*%
X163110000Y-96510000D03*
D19*
X162210000Y-96510000D03*
D20*
%TO.P,U1,18,GND*%
%TO.N,GND*%
X163110000Y-99050000D03*
D19*
X162210000Y-99050000D03*
D18*
%TO.P,U1,19,GPIO14*%
%TO.N,unconnected-(U1-GPIO14-Pad19)*%
X163110000Y-101590000D03*
D19*
X162210000Y-101590000D03*
D18*
%TO.P,U1,20,GPIO15*%
%TO.N,unconnected-(U1-GPIO15-Pad20)*%
X163110000Y-104130000D03*
D19*
X162210000Y-104130000D03*
D18*
%TO.P,U1,21,GPIO16*%
%TO.N,unconnected-(U1-GPIO16-Pad21)*%
X180890000Y-104130000D03*
D19*
X181790000Y-104130000D03*
D18*
%TO.P,U1,22,GPIO17*%
%TO.N,unconnected-(U1-GPIO17-Pad22)*%
X180890000Y-101590000D03*
D19*
X181790000Y-101590000D03*
D20*
%TO.P,U1,23,GND*%
%TO.N,GND*%
X180890000Y-99050000D03*
D19*
X181790000Y-99050000D03*
D18*
%TO.P,U1,24,GPIO18*%
%TO.N,unconnected-(U1-GPIO18-Pad24)*%
X180890000Y-96510000D03*
D19*
X181790000Y-96510000D03*
D18*
%TO.P,U1,25,GPIO19*%
%TO.N,unconnected-(U1-GPIO19-Pad25)*%
X180890000Y-93970000D03*
D19*
X181790000Y-93970000D03*
D18*
%TO.P,U1,26,GPIO20*%
%TO.N,unconnected-(U1-GPIO20-Pad26)*%
X180890000Y-91430000D03*
D19*
X181790000Y-91430000D03*
D18*
%TO.P,U1,27,GPIO21*%
%TO.N,unconnected-(U1-GPIO21-Pad27)*%
X180890000Y-88890000D03*
D19*
X181790000Y-88890000D03*
D20*
%TO.P,U1,28,GND*%
%TO.N,GND*%
X180890000Y-86350000D03*
D19*
X181790000Y-86350000D03*
D18*
%TO.P,U1,29,GPIO22*%
%TO.N,unconnected-(U1-GPIO22-Pad29)*%
X180890000Y-83810000D03*
D19*
X181790000Y-83810000D03*
D18*
%TO.P,U1,30,RUN*%
%TO.N,unconnected-(U1-RUN-Pad30)*%
X180890000Y-81270000D03*
D19*
X181790000Y-81270000D03*
D18*
%TO.P,U1,31,GPIO26_ADC0*%
%TO.N,unconnected-(U1-GPIO26_ADC0-Pad31)*%
X180890000Y-78730000D03*
D19*
X181790000Y-78730000D03*
D18*
%TO.P,U1,32,GPIO27_ADC1*%
%TO.N,unconnected-(U1-GPIO27_ADC1-Pad32)*%
X180890000Y-76190000D03*
D19*
X181790000Y-76190000D03*
D20*
%TO.P,U1,33,AGND*%
%TO.N,unconnected-(U1-AGND-Pad33)*%
X180890000Y-73650000D03*
D19*
X181790000Y-73650000D03*
D18*
%TO.P,U1,34,GPIO28_ADC2*%
%TO.N,unconnected-(U1-GPIO28_ADC2-Pad34)*%
X180890000Y-71110000D03*
D19*
X181790000Y-71110000D03*
D18*
%TO.P,U1,35,ADC_VREF*%
%TO.N,unconnected-(U1-ADC_VREF-Pad35)*%
X180890000Y-68570000D03*
D19*
X181790000Y-68570000D03*
D18*
%TO.P,U1,36,3V3*%
%TO.N,3V3*%
X180890000Y-66030000D03*
D19*
X181790000Y-66030000D03*
D18*
%TO.P,U1,37,3V3_EN*%
%TO.N,unconnected-(U1-3V3_EN-Pad37)*%
X180890000Y-63490000D03*
D19*
X181790000Y-63490000D03*
D20*
%TO.P,U1,38,GND*%
%TO.N,GND*%
X180890000Y-60950000D03*
D19*
X181790000Y-60950000D03*
D18*
%TO.P,U1,39,VSYS*%
%TO.N,unconnected-(U1-VSYS-Pad39)*%
X180890000Y-58410000D03*
D19*
X181790000Y-58410000D03*
D18*
%TO.P,U1,40,VBUS*%
%TO.N,unconnected-(U1-VBUS-Pad40)*%
X180890000Y-55870000D03*
D19*
X181790000Y-55870000D03*
D18*
%TO.P,U1,41,SWCLK*%
%TO.N,unconnected-(U1-SWCLK-Pad41)*%
X169460000Y-103900000D03*
D21*
X169460000Y-104800000D03*
D20*
%TO.P,U1,42,GND*%
%TO.N,GND*%
X172000000Y-103900000D03*
D21*
X172000000Y-104800000D03*
D18*
%TO.P,U1,43,SWDIO*%
%TO.N,unconnected-(U1-SWDIO-Pad43)*%
X174540000Y-103900000D03*
D21*
X174540000Y-104800000D03*
%TD*%
D11*
%TO.P,D2,1,K*%
%TO.N,Net-(D1-A)*%
X126562500Y-60500000D03*
%TO.P,D2,2,A*%
%TO.N,Net-(D1-K)*%
X128437500Y-60500000D03*
%TD*%
%TO.P,D18,1,K*%
%TO.N,Net-(D11-K)*%
X113125000Y-67040000D03*
%TO.P,D18,2,A*%
%TO.N,Net-(D17-K)*%
X115000000Y-67040000D03*
%TD*%
D12*
%TO.P,R5,1*%
%TO.N,pin5*%
X156912500Y-68500000D03*
%TO.P,R5,2*%
%TO.N,Net-(D10-K)*%
X155087500Y-68500000D03*
%TD*%
D11*
%TO.P,D32,1,K*%
%TO.N,Net-(D11-K)*%
X103625000Y-60500000D03*
%TO.P,D32,2,A*%
%TO.N,Net-(D1-A)*%
X105500000Y-60500000D03*
%TD*%
%TO.P,D3,1,K*%
%TO.N,Net-(D12-A)*%
X126562500Y-64000000D03*
%TO.P,D3,2,A*%
%TO.N,Net-(D1-K)*%
X128437500Y-64000000D03*
%TD*%
%TO.P,D25,1,K*%
%TO.N,Net-(D1-A)*%
X108625000Y-57460000D03*
%TO.P,D25,2,A*%
%TO.N,Net-(D10-A)*%
X110500000Y-57460000D03*
%TD*%
D13*
%TO.P,D28,1,K*%
%TO.N,Net-(D11-K)*%
X110500000Y-67000000D03*
%TO.P,D28,2,A*%
%TO.N,Net-(D12-A)*%
X108625000Y-67000000D03*
%TD*%
D12*
%TO.P,R7,1*%
%TO.N,pin7*%
X156912500Y-76000000D03*
%TO.P,R7,2*%
%TO.N,Net-(D11-K)*%
X155087500Y-76000000D03*
%TD*%
D13*
%TO.P,D13,1,K*%
%TO.N,Net-(D10-A)*%
X123937500Y-73500000D03*
%TO.P,D13,2,A*%
%TO.N,Net-(D11-K)*%
X122062500Y-73500000D03*
%TD*%
D11*
%TO.P,D15,1,K*%
%TO.N,Net-(D12-A)*%
X117562500Y-64000000D03*
%TO.P,D15,2,A*%
%TO.N,Net-(D10-K)*%
X119437500Y-64000000D03*
%TD*%
D22*
%TO.N,Net-(D1-K)*%
X128437500Y-58500000D03*
X155087500Y-58500000D03*
%TO.N,Capacitive_touch*%
X154432000Y-87376000D03*
%TO.N,Net-(D1-A)*%
X126500000Y-56000000D03*
X155087500Y-56000000D03*
%TO.N,Net-(D12-A)*%
X155087500Y-63500000D03*
X120500000Y-60500000D03*
X117500000Y-65500000D03*
X126100000Y-65500000D03*
X109000000Y-65500000D03*
%TO.N,Net-(D17-K)*%
X116000000Y-61500000D03*
X116000000Y-64000000D03*
X125500000Y-66500000D03*
X106460000Y-63960000D03*
X155000000Y-66000000D03*
%TO.N,GND*%
X134000000Y-105500000D03*
X134000000Y-92000000D03*
X134000000Y-94500000D03*
X145000000Y-105500000D03*
X145000000Y-92000000D03*
X145000000Y-94500000D03*
%TO.N,Net-(D10-K)*%
X123000000Y-69000000D03*
X155087500Y-68500000D03*
X125000000Y-60500000D03*
X121000000Y-64000000D03*
%TO.N,Net-(D10-A)*%
X155087500Y-71000000D03*
X125000000Y-71500000D03*
%TO.N,Net-(D11-K)*%
X155087500Y-76000000D03*
X121500000Y-74500000D03*
%TD*%
D23*
%TO.N,Net-(D1-K)*%
X103625000Y-73540000D02*
X103625000Y-74625000D01*
X104000000Y-75000000D02*
X107000000Y-75000000D01*
X108000000Y-76000000D02*
X107000000Y-75000000D01*
X128437500Y-67000000D02*
X130000000Y-68562500D01*
X108000000Y-75000000D02*
X108562500Y-74437500D01*
X108562500Y-74437500D02*
X108562500Y-70500000D01*
X129000000Y-76000000D02*
X108000000Y-76000000D01*
X130000000Y-75000000D02*
X129000000Y-76000000D01*
X103625000Y-63960000D02*
X103625000Y-73540000D01*
X130000000Y-68562500D02*
X130000000Y-75000000D01*
X128437500Y-57500000D02*
X128437500Y-67000000D01*
X107000000Y-75000000D02*
X108000000Y-75000000D01*
X103625000Y-74625000D02*
X104000000Y-75000000D01*
%TO.N,Capacitive_touch*%
X154500000Y-91500000D02*
X154500000Y-87444000D01*
X154500000Y-87444000D02*
X154432000Y-87376000D01*
%TO.N,Net-(D1-A)*%
X114500000Y-56000000D02*
X109000000Y-56000000D01*
X115000000Y-57500000D02*
X115000000Y-60540000D01*
X114000000Y-63000000D02*
X111125000Y-63000000D01*
X115000000Y-57500000D02*
X115000000Y-56500000D01*
X108000000Y-57300000D02*
X108465000Y-57300000D01*
X108465000Y-57300000D02*
X108625000Y-57460000D01*
X113125000Y-73540000D02*
X113125000Y-70500000D01*
X117625000Y-56375000D02*
X117625000Y-57500000D01*
X105500000Y-57300000D02*
X108000000Y-57300000D01*
X117625000Y-60500000D02*
X117625000Y-57500000D01*
X126562500Y-60500000D02*
X126562500Y-57500000D01*
X109000000Y-56000000D02*
X108625000Y-56375000D01*
X113125000Y-70500000D02*
X114000000Y-69625000D01*
X117625000Y-60500000D02*
X115040000Y-60500000D01*
X114000000Y-69625000D02*
X114000000Y-63000000D01*
X125062500Y-56000000D02*
X118000000Y-56000000D01*
X115000000Y-56500000D02*
X114500000Y-56000000D01*
X126562500Y-56062500D02*
X126500000Y-56000000D01*
X108625000Y-56375000D02*
X108625000Y-57460000D01*
X111125000Y-63000000D02*
X108625000Y-60500000D01*
X118000000Y-56000000D02*
X117625000Y-56375000D01*
X126562500Y-57500000D02*
X126562500Y-56062500D01*
X108625000Y-60500000D02*
X108625000Y-57460000D01*
X115040000Y-60500000D02*
X115000000Y-60540000D01*
X105500000Y-60340000D02*
X105500000Y-57300000D01*
X126562500Y-57500000D02*
X125062500Y-56000000D01*
%TO.N,Net-(D12-A)*%
X108625000Y-65125000D02*
X109000000Y-65500000D01*
X117500000Y-64062500D02*
X117562500Y-64000000D01*
X119500000Y-57500000D02*
X119500000Y-60500000D01*
X128500000Y-70562500D02*
X128437500Y-70500000D01*
X126562500Y-67000000D02*
X126562500Y-64000000D01*
X117500000Y-65500000D02*
X117500000Y-64062500D01*
X108625000Y-65875000D02*
X109000000Y-65500000D01*
X128437500Y-70500000D02*
X128437500Y-68875000D01*
X117500000Y-66977500D02*
X117562500Y-67040000D01*
X128437500Y-68875000D02*
X126562500Y-67000000D01*
X126562500Y-64937500D02*
X126000000Y-65500000D01*
X126000000Y-65500000D02*
X126100000Y-65500000D01*
X128500000Y-73500000D02*
X128500000Y-70562500D01*
X119500000Y-60500000D02*
X120500000Y-60500000D01*
X117500000Y-65500000D02*
X117500000Y-66977500D01*
X108625000Y-67000000D02*
X108625000Y-65875000D01*
X108625000Y-63960000D02*
X108625000Y-65125000D01*
X126562500Y-64000000D02*
X126562500Y-64937500D01*
%TO.N,3V3*%
X147000000Y-77000000D02*
X113860000Y-77000000D01*
X179000000Y-66500000D02*
X179470000Y-66030000D01*
X156412500Y-96500000D02*
X156412500Y-86412500D01*
X157552500Y-95360000D02*
X164140000Y-95360000D01*
X164140000Y-95360000D02*
X179000000Y-80500000D01*
X179000000Y-80500000D02*
X179000000Y-66500000D01*
X156412500Y-96500000D02*
X157552500Y-95360000D01*
X113860000Y-77000000D02*
X111960000Y-78900000D01*
X179470000Y-66030000D02*
X180890000Y-66030000D01*
X156412500Y-86412500D02*
X147000000Y-77000000D01*
%TO.N,Net-(D17-K)*%
X122125000Y-60500000D02*
X123625000Y-62000000D01*
X125500000Y-69437500D02*
X125500000Y-66500000D01*
X120625000Y-62000000D02*
X115500000Y-62000000D01*
X125500000Y-63000000D02*
X125500000Y-66500000D01*
X113125000Y-57500000D02*
X113125000Y-60540000D01*
X105500000Y-63960000D02*
X106460000Y-63960000D01*
X126625000Y-73500000D02*
X126625000Y-70562500D01*
X115000000Y-64000000D02*
X116000000Y-64000000D01*
X115000000Y-64000000D02*
X115000000Y-67040000D01*
X126625000Y-70562500D02*
X126562500Y-70500000D01*
X126562500Y-70500000D02*
X125500000Y-69437500D01*
X106500000Y-64000000D02*
X106460000Y-63960000D01*
X114000000Y-62000000D02*
X113125000Y-61125000D01*
X122062500Y-60437500D02*
X122125000Y-60500000D01*
X122062500Y-57500000D02*
X122062500Y-60437500D01*
X124500000Y-62000000D02*
X125500000Y-63000000D01*
X115500000Y-62000000D02*
X114000000Y-62000000D01*
X116000000Y-61500000D02*
X116400000Y-61900000D01*
X113125000Y-61125000D02*
X113125000Y-60540000D01*
X115500000Y-62000000D02*
X116000000Y-61500000D01*
X123625000Y-62000000D02*
X124500000Y-62000000D01*
X105500000Y-63960000D02*
X105500000Y-67000000D01*
X122125000Y-60500000D02*
X120625000Y-62000000D01*
%TO.N,Net-(D10-K)*%
X123937500Y-60437500D02*
X124000000Y-60500000D01*
X119437500Y-68625000D02*
X119437500Y-67040000D01*
X115000000Y-70500000D02*
X117562500Y-70500000D01*
X123937500Y-57500000D02*
X123937500Y-60437500D01*
X107000000Y-69000000D02*
X109000000Y-69000000D01*
X122125000Y-64000000D02*
X121000000Y-64000000D01*
X117562500Y-70500000D02*
X119437500Y-68625000D01*
X109500000Y-75000000D02*
X110000000Y-75500000D01*
X110000000Y-75500000D02*
X122000000Y-75500000D01*
X109500000Y-69500000D02*
X109500000Y-75000000D01*
X109000000Y-69000000D02*
X109500000Y-69500000D01*
X115000000Y-70500000D02*
X115000000Y-73540000D01*
X105500000Y-70500000D02*
X107000000Y-69000000D01*
X122125000Y-67040000D02*
X119437500Y-67040000D01*
X122125000Y-67040000D02*
X122125000Y-68125000D01*
X124000000Y-60500000D02*
X125000000Y-60500000D01*
X122125000Y-67040000D02*
X122125000Y-64000000D01*
X105500000Y-73540000D02*
X105500000Y-70500000D01*
X123000000Y-74500000D02*
X123000000Y-69000000D01*
X121000000Y-64000000D02*
X119437500Y-64000000D01*
X122125000Y-68125000D02*
X123000000Y-69000000D01*
X122000000Y-75500000D02*
X123000000Y-74500000D01*
X117562500Y-73500000D02*
X117562500Y-70500000D01*
%TO.N,Net-(D10-A)*%
X123500000Y-62500000D02*
X124000000Y-63000000D01*
X124000000Y-63000000D02*
X124000000Y-64000000D01*
X112500000Y-62500000D02*
X123500000Y-62500000D01*
X124000000Y-70500000D02*
X125000000Y-71500000D01*
X124000000Y-73437500D02*
X123937500Y-73500000D01*
X124000000Y-64000000D02*
X124000000Y-73437500D01*
X110500000Y-57460000D02*
X110500000Y-60500000D01*
X110500000Y-60500000D02*
X112500000Y-62500000D01*
%TO.N,Net-(D11-K)*%
X117937500Y-75000000D02*
X119437500Y-73500000D01*
X103625000Y-60500000D02*
X105625000Y-62500000D01*
X103625000Y-57500000D02*
X103625000Y-60500000D01*
X122125000Y-70500000D02*
X119437500Y-70500000D01*
X119437500Y-70500000D02*
X119437500Y-73500000D01*
X122062500Y-73500000D02*
X121500000Y-74062500D01*
X105625000Y-62500000D02*
X110000000Y-62500000D01*
X113125000Y-67040000D02*
X112000000Y-67040000D01*
X111000000Y-64000000D02*
X113125000Y-64000000D01*
X110500000Y-63000000D02*
X110500000Y-63960000D01*
X122062500Y-73500000D02*
X119437500Y-73500000D01*
X110437500Y-73500000D02*
X111937500Y-75000000D01*
X110500000Y-63960000D02*
X110960000Y-63960000D01*
X121500000Y-74062500D02*
X121500000Y-74500000D01*
X110960000Y-63960000D02*
X111000000Y-64000000D01*
X110000000Y-62500000D02*
X110500000Y-63000000D01*
X112000000Y-68937500D02*
X112000000Y-67040000D01*
X110500000Y-67000000D02*
X110500000Y-63960000D01*
X110437500Y-70500000D02*
X110437500Y-73500000D01*
X111937500Y-75000000D02*
X117937500Y-75000000D01*
X110540000Y-67040000D02*
X110500000Y-67000000D01*
X110437500Y-70500000D02*
X112000000Y-68937500D01*
X112000000Y-67040000D02*
X110540000Y-67040000D01*
%TO.N,pin1*%
X162980000Y-56000000D02*
X163110000Y-55870000D01*
X156912500Y-56000000D02*
X162980000Y-56000000D01*
%TO.N,pin2*%
X163020000Y-58500000D02*
X163110000Y-58410000D01*
X156912500Y-58500000D02*
X163020000Y-58500000D01*
%TO.N,pin3*%
X156912500Y-63500000D02*
X163100000Y-63500000D01*
X163100000Y-63500000D02*
X163110000Y-63490000D01*
%TO.N,pin4*%
X163080000Y-66000000D02*
X163110000Y-66030000D01*
X156912500Y-66000000D02*
X163080000Y-66000000D01*
%TO.N,pin5*%
X163040000Y-68500000D02*
X163110000Y-68570000D01*
X156912500Y-68500000D02*
X163040000Y-68500000D01*
%TO.N,pin6*%
X156912500Y-71000000D02*
X163000000Y-71000000D01*
X163000000Y-71000000D02*
X163110000Y-71110000D01*
%TO.N,pin7*%
X162920000Y-76000000D02*
X163110000Y-76190000D01*
X156912500Y-76000000D02*
X162920000Y-76000000D01*
%TO.N,Net-(R8-Pad1)*%
X154500000Y-93325000D02*
X154500000Y-96412500D01*
X139500000Y-100500000D02*
X146500000Y-100500000D01*
X155750000Y-104250000D02*
X149250000Y-104250000D01*
X147000000Y-102000000D02*
X147000000Y-100000000D01*
X149250000Y-104250000D02*
X147000000Y-102000000D01*
X148675000Y-93325000D02*
X154500000Y-93325000D01*
X146500000Y-100500000D02*
X147000000Y-100000000D01*
X147000000Y-95000000D02*
X148675000Y-93325000D01*
X147000000Y-100000000D02*
X147000000Y-95000000D01*
X154500000Y-96412500D02*
X154587500Y-96500000D01*
%TD*%
%TA.AperFunction,Conductor*%
%TO.N,GND*%
G36*
X145443039Y-91519685D02*
G01*
X145488794Y-91572489D01*
X145500000Y-91624000D01*
X145500000Y-100075500D01*
X145480315Y-100142539D01*
X145427511Y-100188294D01*
X145376000Y-100199500D01*
X144785443Y-100199500D01*
X144718404Y-100179815D01*
X144672649Y-100127011D01*
X144661561Y-100080909D01*
X144660148Y-100048547D01*
X144660148Y-100048546D01*
X144601165Y-99600527D01*
X144503360Y-99159354D01*
X144367475Y-98728384D01*
X144194547Y-98310897D01*
X144194545Y-98310892D01*
X143985894Y-97910080D01*
X143985892Y-97910077D01*
X143985889Y-97910071D01*
X143743092Y-97528955D01*
X143743089Y-97528950D01*
X143468007Y-97170457D01*
X143468005Y-97170455D01*
X143468002Y-97170451D01*
X143162713Y-96837287D01*
X142829549Y-96531998D01*
X142829544Y-96531994D01*
X142829542Y-96531992D01*
X142471049Y-96256910D01*
X142243660Y-96112048D01*
X142089930Y-96014111D01*
X142089926Y-96014109D01*
X142089920Y-96014105D01*
X141689107Y-95805454D01*
X141271632Y-95632531D01*
X141271619Y-95632526D01*
X141271616Y-95632525D01*
X140840646Y-95496640D01*
X140512131Y-95423810D01*
X140399469Y-95398834D01*
X140399460Y-95398833D01*
X139951452Y-95339851D01*
X139500000Y-95320141D01*
X139048547Y-95339851D01*
X138600539Y-95398833D01*
X138600530Y-95398834D01*
X138267282Y-95472713D01*
X138159354Y-95496640D01*
X137862762Y-95590155D01*
X137728380Y-95632526D01*
X137728367Y-95632531D01*
X137310892Y-95805454D01*
X136910080Y-96014105D01*
X136528950Y-96256910D01*
X136170457Y-96531992D01*
X136170452Y-96531997D01*
X135837287Y-96837286D01*
X135837286Y-96837287D01*
X135531997Y-97170452D01*
X135531992Y-97170457D01*
X135256910Y-97528950D01*
X135014105Y-97910080D01*
X134805454Y-98310892D01*
X134632531Y-98728367D01*
X134632526Y-98728380D01*
X134632525Y-98728384D01*
X134496640Y-99159354D01*
X134496639Y-99159359D01*
X134398834Y-99600530D01*
X134398833Y-99600539D01*
X134339851Y-100048547D01*
X134320141Y-100500000D01*
X134339851Y-100951452D01*
X134398833Y-101399460D01*
X134398835Y-101399473D01*
X134496640Y-101840646D01*
X134632525Y-102271616D01*
X134632526Y-102271619D01*
X134632531Y-102271632D01*
X134805454Y-102689107D01*
X135014105Y-103089920D01*
X135256910Y-103471049D01*
X135531992Y-103829542D01*
X135531994Y-103829544D01*
X135531998Y-103829549D01*
X135837287Y-104162713D01*
X136170451Y-104468002D01*
X136170455Y-104468005D01*
X136170457Y-104468007D01*
X136528950Y-104743089D01*
X136528955Y-104743092D01*
X136910070Y-104985889D01*
X136910076Y-104985892D01*
X136910079Y-104985894D01*
X137310892Y-105194545D01*
X137310897Y-105194547D01*
X137728384Y-105367475D01*
X138159354Y-105503360D01*
X138600527Y-105601165D01*
X139048546Y-105660148D01*
X139500000Y-105679859D01*
X139951454Y-105660148D01*
X140399473Y-105601165D01*
X140840646Y-105503360D01*
X141271616Y-105367475D01*
X141689103Y-105194547D01*
X142089930Y-104985889D01*
X142471045Y-104743092D01*
X142829549Y-104468002D01*
X143162713Y-104162713D01*
X143468002Y-103829549D01*
X143743092Y-103471045D01*
X143985889Y-103089930D01*
X144194547Y-102689103D01*
X144367475Y-102271616D01*
X144503360Y-101840646D01*
X144601165Y-101399473D01*
X144660148Y-100951454D01*
X144661561Y-100919090D01*
X144684151Y-100852974D01*
X144738901Y-100809566D01*
X144785443Y-100800500D01*
X145376000Y-100800500D01*
X145443039Y-100820185D01*
X145488794Y-100872989D01*
X145500000Y-100924500D01*
X145500000Y-105876000D01*
X145480315Y-105943039D01*
X145427511Y-105988794D01*
X145376000Y-106000000D01*
X133624000Y-106000000D01*
X133556961Y-105980315D01*
X133511206Y-105927511D01*
X133500000Y-105876000D01*
X133500000Y-91624000D01*
X133519685Y-91556961D01*
X133572489Y-91511206D01*
X133624000Y-91500000D01*
X145376000Y-91500000D01*
X145443039Y-91519685D01*
G37*
%TD.AperFunction*%
%TD*%
M02*
